<svg width="88" height="88" viewBox="0 0 88 88" fill="none" xmlns="http://www.w3.org/2000/svg">
<path d="M10.3 79C8.0175 79 6.06354 78.1555 4.43812 76.4664C2.81271 74.7773 2 72.7469 2 70.375V18.625C2 16.2531 2.81271 14.2227 4.43812 12.5336C6.06354 10.8445 8.0175 10 10.3 10H76.7C78.9825 10 80.9365 10.8445 82.5619 12.5336C84.1873 14.2227 85 16.2531 85 18.625V70.375C85 72.7469 84.1873 74.7773 82.5619 76.4664C80.9365 78.1555 78.9825 79 76.7 79H10.3ZM10.3 70.375H76.7V27.25H10.3V70.375ZM24.825 66.0625L19.015 60.025L29.7012 48.8125L18.9112 37.6L24.825 31.5625L41.425 48.8125L24.825 66.0625ZM43.5 66.0625V57.4375H68.4V66.0625H43.5Z" fill="#222222"/>
</svg>
