<svg width="88" height="88" viewBox="0 0 88 88" fill="none" xmlns="http://www.w3.org/2000/svg">
<g clip-path="url(#clip0_2474_147)">
<g clip-path="url(#clip1_2474_147)">
<path d="M84.3334 44L75.3867 33.77L76.6334 20.24L63.3967 17.2333L56.4667 5.5L44.0001 10.8533L31.5334 5.5L24.6034 17.1967L11.3667 20.1667L12.6134 33.7333L3.66675 44L12.6134 54.23L11.3667 67.7967L24.6034 70.8033L31.5334 82.5L44.0001 77.11L56.4667 82.4633L63.3967 70.7667L76.6334 67.76L75.3867 54.23L84.3334 44ZM36.9967 61.3067L23.0634 47.3367L28.4901 41.91L36.9967 50.4533L58.4467 28.93L63.8734 34.3567L36.9967 61.3067Z" fill="#222222"/>
</g>
</g>
<defs>
<clipPath id="clip0_2474_147">
<rect width="88" height="88" fill="white"/>
</clipPath>
<clipPath id="clip1_2474_147">
<rect width="88" height="88" fill="white"/>
</clipPath>
</defs>
</svg>
