<svg width="296" height="284" viewBox="0 0 296 284" fill="none" xmlns="http://www.w3.org/2000/svg">
<rect width="296" height="284" fill="#888888"/>
<g clip-path="url(#clip0_2711_576)">
<path d="M154.248 46.718C154.248 46.718 129.54 21.868 86.94 47.57C44.34 73.272 52.718 135.61 65.782 160.886C78.846 186.162 74.586 212.716 57.262 210.87C57.262 210.87 59.108 222.798 79.556 223.224C79.556 223.224 88.076 229.33 101.85 225.212C101.85 225.212 104.122 231.318 119.174 227.2C134.226 223.082 176.826 225.638 176.826 225.638C176.826 225.638 186.766 231.034 196.848 226.774C196.848 226.774 212.61 230.608 219.568 223.65C219.568 223.65 236.466 227.91 242.572 215.13C242.572 215.13 226.1 214.704 225.674 199.794C225.248 184.884 228.798 178.21 237.602 160.176C246.406 142.142 245.696 102.098 231.07 78.242C216.444 54.386 190.742 44.446 176.826 43.594C162.91 42.742 154.248 46.718 154.248 46.718Z" fill="#A9B0B6"/>
<path d="M156.804 50.268C156.804 50.268 176.4 39.618 206.646 57.936C236.892 76.254 241.152 121.552 238.88 141.006C236.608 160.46 217.012 180.766 219.284 196.954C221.556 213 231.496 216.834 237.602 216.834C237.602 216.834 224.254 222.94 218.006 210.728C211.758 198.516 212.184 190.422 221.13 175.512C230.076 160.602 238.738 142.994 236.04 125.67C233.342 108.346 225.248 77.816 206.93 64.042C188.612 50.268 172.566 48.422 156.804 50.268ZM158.366 53.96C158.366 53.96 189.464 52.398 207.924 72.562C222.976 89.034 228.656 103.092 228.372 132.77C228.088 154.496 213.462 174.376 209.202 185.878C204.942 197.38 205.51 215.84 216.16 221.52C216.16 221.52 204.658 221.804 200.966 205.332C197.274 188.86 212.894 169.406 217.864 162.164C222.834 154.922 225.248 130.214 222.266 113.6C218.716 94.146 213.888 81.934 193.156 68.018C172.424 54.102 158.366 53.96 158.366 53.96ZM151.55 48.848C151.55 48.848 140.048 43.168 114.204 45.582C88.36 48.138 66.776 72.846 65.782 101.956C64.788 131.066 71.888 156.484 82.68 176.506C93.472 196.528 81.26 217.402 66.918 216.976C66.918 216.976 86.23 205.474 80.55 184.316C74.87 163.158 65.782 157.478 62.942 120.132C60.102 82.786 69.332 68.16 81.26 57.652C93.188 47.144 116.334 34.932 151.55 48.848ZM149.704 53.534C149.704 53.534 119.6 43.878 95.886 68.586C72.172 93.294 69.048 128.794 78.278 148.248C87.508 167.702 100.856 191.7 99.436 204.906C98.016 218.112 81.828 222.088 81.828 222.088C81.828 222.088 96.596 211.296 92.904 192.268C89.212 173.24 76.006 156.342 71.746 139.87C67.486 123.398 67.486 104.37 77.426 83.496C87.366 62.622 110.654 39.902 149.704 53.534Z" fill="#BABCBE"/>
<path d="M120.736 60.776C120.736 60.776 88.6441 65.036 81.8281 103.66C75.0121 142.284 88.6441 163.442 94.7501 173.524C100.856 183.606 107.672 193.972 107.388 204.906C107.104 215.84 102.702 222.94 102.702 222.94C102.702 222.94 110.938 216.408 111.648 205.332C112.358 194.256 106.252 179.772 103.696 173.24C101.14 166.708 89.3541 103.376 98.5841 86.194C107.814 69.012 114.204 63.9 120.736 60.776ZM171.998 63.616C171.998 63.616 189.038 69.012 199.12 80.94C209.202 92.868 216.728 115.872 212.042 136.036C207.356 156.2 190.032 189.712 189.748 199.368C189.464 209.024 192.02 218.112 196.848 226.916C196.848 226.916 183.642 219.958 184.352 201.214C185.062 182.47 194.434 162.022 198.41 149.384C198.41 149.384 205.084 115.73 195.144 95.708C185.204 75.686 170.862 63.332 170.862 63.332L171.998 63.616ZM110.938 224.36C110.938 224.36 117.186 213.426 115.766 191.558C115.766 191.558 120.452 197.664 121.304 210.302C122.298 222.94 110.938 224.36 110.938 224.36ZM182.648 193.688C182.648 193.688 178.956 211.012 184.92 224.928C184.92 224.928 176.684 221.236 175.406 209.876C174.27 198.658 182.648 193.688 182.648 193.688Z" fill="#9AA4AF"/>
<path d="M245.27 311.69L242.856 281.16C242.856 281.16 243.85 268.38 230.36 259.434C216.87 250.488 197.132 245.092 188.47 239.27C179.808 233.448 175.406 232.88 175.69 215.272C175.974 197.664 176.968 158.046 176.968 158.046H119.032C119.032 158.046 120.026 197.664 120.31 215.272C120.594 232.88 116.192 233.448 107.53 239.27C98.868 245.092 79.1299 250.488 65.6399 259.434C52.1499 268.38 53.1439 281.16 53.1439 281.16L50.8719 311.69H245.27Z" fill="#F3D4CF"/>
<path opacity="0.65" d="M148 228.478C148 228.478 160.922 229.103 175.69 218.084C175.676 217.189 175.676 216.266 175.69 215.272C175.974 197.664 176.968 158.046 176.968 158.046H119.032C119.032 158.046 120.026 197.664 120.31 215.272C120.324 216.266 120.324 217.203 120.31 218.084C135.078 229.103 148 228.478 148 228.478Z" fill="#D4958A"/>
<path d="M110.796 249.778C118.038 253.896 127.552 257.162 135.788 257.872C136.356 257.872 136.356 257.02 135.93 256.878C131.954 255.316 127.552 254.464 123.434 253.186C119.316 251.908 115.198 250.346 110.938 249.352C110.796 249.21 110.512 249.636 110.796 249.778ZM160.78 258.582C168.306 257.73 176.826 254.322 183.358 250.346C183.784 250.062 183.5 249.494 183.074 249.636C179.382 250.914 175.69 252.476 171.998 253.754C168.306 255.032 164.33 255.884 160.638 257.304C159.928 257.446 159.928 258.582 160.78 258.582Z" fill="#D4958A"/>
<path d="M245.128 311.548L242.146 281.16C242.146 278.036 241.436 274.77 240.016 271.788C238.738 268.806 236.75 266.25 234.478 263.978C232.206 261.706 229.508 260.002 226.668 258.298C223.828 256.594 220.846 255.174 217.864 253.896C211.9 251.198 205.652 248.784 199.546 246.228C196.422 244.95 193.44 243.53 190.458 241.968C188.896 241.116 187.476 240.264 186.198 239.27C184.778 238.418 183.358 237.566 181.938 236.572C180.518 235.578 179.098 234.442 177.962 232.88C176.826 231.46 176.116 229.756 175.548 228.052C174.554 224.644 174.412 221.236 174.412 217.828C174.412 211.154 174.696 204.48 174.838 197.806C175.122 184.458 175.69 171.252 176.116 158.046L176.968 158.898L148 158.614L119.032 158.472L119.458 158.046L120.452 197.806C120.594 204.48 120.878 211.012 121.02 217.686C121.02 221.094 120.878 224.36 119.884 227.768C119.458 229.472 118.606 231.034 117.612 232.454C116.476 233.874 115.198 235.01 113.778 236.004C112.358 236.998 110.938 237.85 109.66 238.844C108.382 239.696 106.962 240.69 105.4 241.542C102.418 243.246 99.4359 244.524 96.3119 245.944C90.2059 248.642 84.0999 251.056 78.1359 253.896C75.1539 255.316 72.1719 256.878 69.4739 258.44C66.6339 260.144 64.0779 261.848 61.8059 264.12C59.5339 266.392 57.6879 268.948 56.4099 271.788C55.8419 273.208 55.2739 274.77 54.9899 276.19C54.7059 277.752 54.4219 279.314 54.5639 280.734V281.018L52.4339 311.548L51.0139 309.986L99.2939 310.128C115.34 310.128 131.528 310.27 147.716 310.412L196.28 310.838L245.128 311.548ZM245.412 311.832L197.132 312.4L148.568 312.826C132.38 312.968 116.05 313.11 99.7199 313.11L50.8719 313.252H49.3099L49.4519 311.69L51.8659 281.16V281.302C51.7239 274.06 54.9899 267.386 59.9599 262.416C62.3739 260.002 65.3559 258.014 68.1959 256.31C71.0359 254.606 74.1599 253.186 77.1419 251.766C83.2479 248.926 89.4959 246.512 95.6019 244.098C98.5839 242.82 101.708 241.542 104.548 239.98C105.968 239.27 107.246 238.418 108.808 237.424C110.228 236.572 111.648 235.72 112.926 234.726C114.204 233.874 115.482 232.738 116.334 231.602C117.328 230.324 118.038 228.904 118.464 227.484C119.316 224.502 119.6 221.094 119.6 217.828C119.6 211.296 119.458 204.622 119.316 197.948L118.464 158.188V157.762H118.89L147.858 157.62L176.826 157.336H177.678V158.188C177.536 171.394 177.394 184.742 177.11 197.948C176.968 204.622 176.826 211.296 176.826 217.828C176.968 221.094 177.11 224.36 177.962 227.342C178.388 228.904 179.098 230.182 179.95 231.46C180.802 232.596 181.938 233.732 183.358 234.584C184.636 235.436 186.056 236.43 187.476 237.282C188.896 238.276 190.174 239.128 191.594 239.838C194.434 241.4 197.416 242.82 200.54 244.098C206.646 246.654 212.752 249.21 218.858 252.05C221.84 253.47 224.822 255.032 227.662 256.736C230.502 258.44 233.342 260.428 235.756 262.842C240.584 267.67 243.708 274.344 243.424 281.302V281.16L245.412 311.832ZM85.2359 311.264L87.9339 291.668L88.0759 311.264H85.2359ZM211.048 311.264L208.35 291.668L208.208 311.264H211.048Z" fill="#C5796D"/>
<path d="M179.808 312.4L183.642 274.344C183.642 274.344 163.336 297.064 148.142 301.466C148.142 301.466 124.712 288.26 110.796 274.344L116.334 312.4H179.808Z" fill="#EFEFEF"/>
<path d="M183.926 273.918C183.642 273.634 183.358 273.776 183.074 273.918C177.911 279.365 172.46 284.532 166.744 289.396C163.904 291.81 160.922 294.082 157.798 296.212C154.674 298.2 151.408 300.046 148 301.182C144.734 299.336 141.468 297.348 138.202 295.218C134.936 293.088 131.812 290.958 128.688 288.686C122.44 284.142 116.476 279.314 111.08 273.918C110.938 273.776 110.796 273.776 110.654 273.776C110.37 273.776 110.228 274.06 110.228 274.344C111.08 280.734 111.932 286.982 112.784 293.372C113.636 299.762 114.488 306.01 115.482 312.4C115.482 312.684 115.908 312.968 116.192 312.968H132.238L148.142 312.826L164.046 312.684L179.808 312.4L182.08 293.514L184.21 274.344C184.21 274.202 184.068 274.06 183.926 273.918ZM181.228 293.088L179.666 312.258L163.62 311.974L147.716 311.832L131.812 311.69H116.618C115.766 305.584 114.772 299.478 113.92 293.23C113.068 287.408 112.216 281.586 111.222 275.764C116.476 280.734 122.298 285.136 128.12 289.254C131.244 291.526 134.51 293.656 137.776 295.644C141.042 297.632 144.308 299.762 147.716 301.75H147.858C151.55 300.614 154.816 298.91 158.082 296.922C161.348 294.934 164.33 292.662 167.312 290.39C170.294 287.976 173.134 285.562 175.832 282.864C178.104 280.734 180.376 278.32 182.506 276.048C182.222 281.728 181.796 287.408 181.228 293.088Z" fill="#232323"/>
<path d="M113.494 238.418C113.494 238.418 115.198 233.164 115.908 229.33C116.76 225.496 116.476 216.124 116.476 216.124C116.476 216.124 113.778 221.946 109.944 225.212C106.11 228.478 91.2 238.134 91.2 238.134L94.466 240.406C94.466 240.406 59.534 252.76 57.12 254.464C54.706 256.168 54.422 259.718 54.422 259.718L51.44 260.57C45.618 284.426 45.618 312.542 45.618 312.542H123.008C123.008 312.542 119.742 288.97 118.322 279.882C117.044 270.652 113.494 238.418 113.494 238.418ZM245.128 260.428L242.146 259.576C242.146 259.576 241.862 256.026 239.448 254.322C237.034 252.618 202.102 240.264 202.102 240.264L205.368 237.992C205.368 237.992 190.6 228.336 186.624 225.07C182.79 221.804 180.092 215.982 180.092 215.982C180.092 215.982 179.808 225.354 180.66 229.188C181.512 233.022 183.074 238.276 183.074 238.276C183.074 238.276 179.524 270.368 178.104 279.456C176.684 288.544 173.418 312.116 173.418 312.116H250.808C250.808 312.4 250.808 284.426 245.128 260.428Z" fill="#424242"/>
<path d="M205.226 254.18C202.67 251.482 199.262 249.636 196.422 247.08C193.582 244.524 191.31 241.542 188.754 238.702C188.47 238.418 187.902 238.844 188.186 239.128C190.032 242.678 192.588 245.802 195.428 248.642C197.842 251.056 200.966 254.18 204.374 255.316C196.99 268.806 192.446 285.42 190.742 300.614C190.742 300.898 191.168 301.04 191.31 300.756C193.014 292.946 194.434 285.136 196.848 277.468C199.12 269.8 202.67 262.7 205.51 255.174C205.652 255.032 205.51 254.89 205.368 254.748C205.51 254.606 205.368 254.464 205.226 254.18ZM202.386 237.282C199.404 235.578 196.28 234.158 193.44 232.17C190.316 230.04 187.476 227.484 184.778 224.786C184.494 224.502 184.21 224.928 184.494 225.07C188.896 230.608 195.144 236.146 202.102 237.992C202.528 238.276 202.812 237.566 202.386 237.282ZM229.224 252.192C221.13 248.784 212.752 245.66 204.374 243.104C204.09 242.962 203.948 243.388 204.232 243.53C209.202 245.944 214.314 248.216 219.426 250.346C225.958 253.044 233.91 254.748 237.46 261.422C237.744 261.99 238.596 261.564 238.454 260.996C237.602 256.026 233.484 253.896 229.224 252.192ZM242.714 264.12C242.572 263.552 241.72 263.694 241.72 264.262C242.714 271.93 244.418 279.314 245.27 286.982C246.122 294.65 245.838 302.46 246.832 309.986C246.832 310.554 247.542 310.554 247.684 309.986C249.388 295.928 247.116 277.61 242.714 264.12ZM111.222 240.122C111.932 238.702 112.074 236.998 112.358 235.436C112.784 233.732 113.352 232.028 113.778 230.324C113.92 230.04 113.494 229.898 113.352 230.182C112.358 231.602 111.79 233.164 111.08 234.726C110.512 236.288 109.802 238.134 109.944 239.838C110.086 240.406 110.938 240.832 111.222 240.122ZM110.796 242.394C110.796 242.252 110.512 242.252 110.512 242.394C110.37 251.624 112.216 261.138 113.636 270.368C115.056 280.45 116.618 290.674 119.316 300.614C119.316 300.756 119.458 300.614 119.458 300.614C118.464 291.242 116.902 282.012 115.482 272.782C113.778 262.842 113.352 252.334 110.796 242.394ZM103.554 242.394C99.578 246.796 95.886 250.772 91.058 254.18C90.49 254.606 90.632 255.458 91.2 255.6C93.188 261.848 96.028 267.67 98.016 273.918C100.004 280.308 101.282 286.982 102.986 293.372C103.128 293.798 103.696 293.656 103.696 293.23C102.986 280.876 99.152 265.966 92.478 255.316C97.164 252.05 101.708 247.932 104.406 242.962C104.406 242.394 103.838 241.968 103.554 242.394ZM57.262 258.156C59.108 266.25 62.8 274.344 65.64 282.154C65.782 282.58 66.35 282.438 66.35 282.012C64.788 274.06 62.658 264.688 58.398 257.73C57.83 257.162 57.12 257.588 57.262 258.156Z" fill="#515151"/>
<path d="M120.594 284.568C120.168 281.444 119.742 278.462 119.316 275.338C117.754 263.126 116.192 250.772 114.488 238.56C115.056 236.856 115.482 235.01 115.908 233.306C116.05 232.88 116.192 232.454 116.192 232.028C116.618 231.46 117.47 230.466 118.038 229.188C118.89 227.2 119.6 223.792 119.742 220.384C119.884 216.976 119.742 213.568 119.742 213.568C119.742 213.568 116.334 215.13 116.192 216.124C114.914 218.68 113.494 220.952 111.648 223.082C109.944 225.212 107.53 226.774 105.258 228.478C100.998 231.46 96.738 234.3 92.194 236.998C91.768 237.282 91.342 237.424 90.916 237.708L90.774 237.85C90.49 238.134 90.632 238.56 90.916 238.702C91.484 239.128 92.052 239.554 92.62 239.838L92.904 240.122C86.088 242.394 79.272 244.666 72.456 247.08C68.906 248.358 65.214 249.636 61.664 251.056L58.966 252.192L57.546 252.76C57.12 253.044 56.552 253.186 56.126 253.612C55.132 254.322 54.422 255.316 53.996 256.31C53.712 257.02 53.428 257.872 53.286 258.582L51.014 259.15C50.588 259.292 50.304 259.576 50.162 260.002C48.174 268.522 47.038 277.326 46.186 285.988C45.902 290.39 45.476 294.65 45.476 299.052C45.476 301.182 45.334 303.454 45.334 305.584V312.116L83.674 312.968L103.27 313.252C109.802 313.394 116.334 313.394 122.866 313.394H123.15C124.002 313.252 124.57 312.542 124.428 311.69L121.872 293.23L120.594 284.568ZM45.76 312.258C45.902 312.116 45.76 311.832 45.902 311.548V310.696L46.044 309.134L46.186 305.868C46.328 303.738 46.47 301.466 46.754 299.336C47.18 294.934 47.606 290.674 48.174 286.414C48.742 282.154 49.452 277.752 50.162 273.492C50.872 269.374 51.724 265.398 52.718 261.422L54.99 260.854H55.132C55.842 262.558 56.694 264.262 57.262 266.108L58.54 269.232L59.676 272.498C61.096 276.758 62.374 281.16 63.368 285.562C64.504 289.964 65.356 294.366 66.208 298.91C66.634 301.182 66.918 303.454 67.202 305.726C67.486 307.714 67.77 309.844 67.912 311.974L45.76 312.258ZM103.98 311.122L84.81 311.406L67.77 311.832C67.77 307.43 67.486 303.028 66.918 298.768C66.35 294.224 65.498 289.68 64.504 285.278C63.368 280.876 62.09 276.474 60.386 272.214C58.966 268.238 57.12 264.546 54.99 260.854C55.274 260.712 55.558 260.286 55.558 260.002C55.7 258.44 56.41 256.736 57.546 255.884C57.83 255.6 58.114 255.6 58.54 255.316L59.818 254.748L62.516 253.612L73.166 249.494L94.466 241.4C96.17 242.252 98.016 242.962 100.004 243.53C99.294 244.098 98.584 244.808 97.874 245.376C96.17 246.796 94.324 248.216 92.62 249.636C90.774 250.914 88.928 252.192 87.082 253.328C86.514 253.612 86.372 254.322 86.514 254.89C88.36 259.576 90.206 264.262 91.91 268.948C93.614 273.634 95.176 278.462 96.88 283.29C98.442 288.118 99.862 292.946 101.282 297.774C102.56 302.176 103.554 306.72 104.69 311.264C104.406 311.122 104.264 311.122 103.98 311.122ZM104.832 311.122C104.406 306.436 103.838 301.892 102.986 297.348C101.992 292.378 100.856 287.408 99.436 282.438C98.016 277.468 96.454 272.64 94.75 267.812C93.046 263.41 91.342 259.008 89.354 254.606C91.058 253.47 92.478 252.334 94.04 251.056C95.744 249.636 97.448 248.074 99.152 246.37C102.418 243.104 105.542 239.838 108.382 236.288C105.684 238.702 103.128 240.974 100.43 243.246C98.726 241.968 97.022 240.974 95.176 239.98C95.176 239.98 95.176 239.838 95.034 239.838L93.472 238.844C93.188 238.702 92.904 238.418 92.478 238.276C92.62 238.134 92.762 238.134 92.904 237.992C97.164 235.152 101.424 232.17 105.684 229.188C107.956 227.484 110.37 225.922 112.358 223.792C113.778 222.088 115.056 220.242 116.192 218.396C116.192 221.52 116.05 224.644 115.766 227.626C115.482 229.472 115.056 231.176 114.488 233.022C113.92 234.868 113.352 236.572 112.784 238.418V238.702C113.92 251.056 115.34 263.41 116.76 275.764C117.044 278.888 117.47 282.012 117.896 284.994L119.174 294.224L121.588 310.98C115.908 310.98 110.37 310.98 104.832 311.122ZM250.95 299.336C250.808 294.934 250.524 290.674 250.098 286.272C249.388 277.61 248.11 268.806 246.122 260.286C245.98 259.86 245.696 259.576 245.27 259.434L242.998 258.866C242.856 258.014 242.714 257.304 242.288 256.594C241.862 255.6 241.152 254.606 240.158 253.896C239.732 253.47 239.164 253.328 238.596 253.044L237.176 252.476L234.478 251.34C230.928 249.92 227.236 248.642 223.686 247.364C216.87 244.95 210.054 242.678 203.238 240.406L203.522 240.122C204.09 239.696 204.658 239.412 205.226 238.986C205.51 238.844 205.652 238.418 205.368 238.134C205.368 237.992 205.226 237.992 205.226 237.992C204.8 237.708 204.374 237.424 203.948 237.282C199.546 234.584 195.144 231.744 191.026 228.762C188.754 227.058 186.34 225.496 184.636 223.366C182.79 221.236 181.37 218.822 180.092 216.408C180.092 216.266 179.95 216.266 179.95 216.266C179.24 215.414 176.542 214.704 176.542 214.704C176.4 218.822 176.4 225.212 177.252 228.478C177.82 230.892 179.808 233.59 180.66 234.868C181.086 236.288 181.37 237.708 181.796 238.986C180.092 251.198 178.53 263.41 176.968 275.764C176.542 278.888 176.116 281.87 175.69 284.994L174.27 294.224L171.714 312.684C171.572 313.536 172.14 314.246 172.992 314.388H173.276C179.808 314.388 186.34 314.388 192.872 314.246L212.468 313.962L250.808 313.11C250.95 312.684 250.808 312.4 250.95 312.258V306.578C251.092 303.596 251.092 301.466 250.95 299.336ZM175.122 310.838L177.536 294.082L178.814 284.852C179.24 281.728 179.666 278.746 179.95 275.622C181.37 263.268 182.648 250.914 183.926 238.56V238.276C183.358 236.572 182.79 234.726 182.222 232.88C181.796 231.034 181.228 229.33 180.944 227.484C180.66 224.502 180.518 221.378 180.518 218.254C181.654 220.242 182.932 221.946 184.352 223.65C186.198 225.922 188.754 227.484 191.026 229.046C195.286 232.028 199.546 234.868 203.806 237.85C203.948 237.992 204.09 237.992 204.232 238.134C203.948 238.276 203.664 238.56 203.238 238.702L201.676 239.696L201.534 239.838C199.688 240.832 197.984 241.826 196.28 243.104C193.582 240.832 190.884 238.56 188.328 236.146C191.168 239.696 194.292 243.104 197.558 246.228C199.12 247.79 200.824 249.352 202.67 250.914C204.232 252.192 205.652 253.328 207.356 254.464C205.368 258.866 203.664 263.126 201.96 267.67C200.256 272.498 198.552 277.326 197.274 282.296C195.854 287.124 194.718 292.236 193.724 297.206C192.872 301.75 192.162 306.436 191.878 310.98C186.198 310.98 180.66 310.98 175.122 310.838ZM211.758 311.406L192.588 311.122H191.878C193.014 306.578 194.008 302.176 195.286 297.632C196.564 292.804 198.126 287.834 199.688 283.148C201.25 278.32 202.812 273.492 204.658 268.806C206.362 264.12 208.208 259.292 210.196 254.748C210.48 254.18 210.196 253.47 209.628 253.186C207.782 252.192 205.936 250.914 204.09 249.494C202.244 248.216 200.54 246.796 198.836 245.234C198.126 244.666 197.416 243.956 196.706 243.388C198.552 242.82 200.398 241.968 202.244 241.258L223.544 249.352L234.194 253.47L236.892 254.606L238.17 255.174C238.596 255.316 238.88 255.458 239.164 255.742C240.3 256.594 241.01 258.298 241.152 259.86C241.152 260.286 241.436 260.57 241.72 260.712C239.732 264.404 237.886 268.096 236.324 272.072C234.62 276.332 233.342 280.734 232.206 285.136C231.212 289.538 230.218 294.082 229.792 298.626C229.224 303.028 228.94 307.288 228.94 311.69L211.758 311.406ZM228.798 311.832C229.082 309.702 229.224 307.714 229.65 305.584C229.934 303.312 230.36 301.04 230.644 298.768C231.496 294.224 232.348 289.822 233.342 285.42C234.336 281.018 235.614 276.616 237.034 272.356L238.17 269.09L239.448 265.966C240.016 264.262 240.868 262.558 241.578 260.712H241.72L243.992 261.28C244.844 265.256 245.838 269.232 246.548 273.35C247.258 277.61 247.968 281.87 248.536 286.272C249.104 290.532 249.53 294.934 249.814 299.194C249.956 301.324 250.24 303.596 250.382 305.726L250.524 308.992L250.666 310.554V311.406C250.666 311.69 250.666 311.974 250.808 312.116L228.798 311.832Z" fill="#232323"/>
<path d="M97.1639 136.746C96.8799 136.32 92.7619 131.066 89.3539 127.8C85.8039 124.534 84.8099 124.676 83.1059 126.664C81.4019 128.652 79.2719 138.734 79.8399 143.278C80.4079 147.822 84.5259 154.922 86.7979 158.898C89.0699 162.874 91.1999 167.844 93.6139 167.418C96.1699 166.992 99.5779 161.312 101.14 157.052C102.844 152.792 101.992 142.426 97.1639 136.746Z" fill="#F3D4CF"/>
<path d="M102.418 148.816C102.56 149.952 102.702 151.088 102.702 152.224C102.702 153.36 102.702 154.496 102.418 155.632L101.992 157.336C101.85 157.904 101.566 158.33 101.424 158.756C100.998 159.75 100.572 160.602 100.146 161.596C99.1519 163.3 98.1579 165.004 96.7379 166.424C96.0279 167.134 95.3179 167.844 94.3239 168.128C93.8979 168.27 93.1879 168.27 92.6199 168.128C92.0519 167.844 91.6259 167.56 91.1999 167.134C89.4959 165.43 88.6439 163.442 87.6499 161.454C86.6559 159.466 85.6619 157.62 84.6679 155.632C83.6739 153.644 82.6799 151.656 81.8279 149.668C81.4019 148.674 80.9759 147.68 80.5499 146.544C80.1239 145.55 79.8399 144.414 79.6979 143.278C79.4139 141.006 79.6979 138.734 79.8399 136.604C80.1239 134.474 80.4079 132.344 80.9759 130.214C81.2599 129.22 81.5439 128.084 81.9699 127.09C82.1119 126.806 82.2539 126.664 82.3959 126.38C82.5379 126.096 82.6799 125.812 82.8219 125.67C83.1059 125.244 83.5319 124.96 83.9579 124.676C84.3839 124.392 84.9519 124.25 85.5199 124.25C86.0879 124.392 86.5139 124.534 87.0819 124.818C87.9339 125.386 88.6439 126.096 89.4959 126.806C92.3359 129.788 94.7499 133.196 97.4479 136.462C100.004 140.012 101.566 144.414 102.418 148.816ZM88.7859 128.084C87.3659 126.948 85.6619 125.67 84.6679 126.38C84.3839 126.522 84.0999 126.806 83.8159 127.232C83.6739 127.374 83.5319 127.516 83.5319 127.658C83.3899 127.8 83.3899 128.084 83.2479 128.226C82.8219 129.078 82.5379 129.93 82.2539 130.924C81.6859 132.77 81.1179 134.9 80.6919 136.888C80.2659 138.876 79.9819 141.148 80.1239 143.136C80.2659 144.13 80.5499 145.266 80.8339 146.26L82.1119 149.242C82.9639 151.23 84.0999 153.076 85.2359 154.922C86.3719 156.768 87.5079 158.614 88.5019 160.46C89.0699 161.454 89.4959 162.306 90.0639 163.158C90.6319 164.01 91.1999 164.862 91.7679 165.43C92.3359 165.998 92.9039 166.282 93.4719 165.998C94.0399 165.714 94.7499 165.288 95.3179 164.578C96.4539 163.3 97.4479 161.738 98.4419 160.034L99.7199 157.478C99.8619 157.052 100.146 156.626 100.288 156.2L100.572 155.632C100.572 155.348 100.714 155.206 100.714 154.922C101.14 153.076 101.14 150.946 101.14 148.816C100.998 146.686 100.714 144.556 100.004 142.426C99.2939 140.296 98.2999 138.308 97.0219 136.746C94.6079 133.622 91.7679 130.498 88.7859 128.084Z" fill="#E4B3AB"/>
<path d="M82.822 145.408C82.538 142.426 82.254 134.9 83.958 132.628C86.798 128.794 91.91 141.29 93.188 145.124C93.188 145.266 93.33 145.408 93.33 145.408C93.472 145.834 93.188 146.402 92.762 146.26C92.194 145.976 91.626 145.408 91.058 145.124C89.496 144.414 88.928 145.692 89.354 147.538C89.922 149.952 91.2 151.372 92.336 153.218C92.478 153.502 92.336 153.786 92.052 153.644C89.922 152.366 87.366 147.68 87.934 144.84C88.36 142.284 90.49 142.426 92.052 143.704C91.058 141.432 90.064 139.302 88.786 137.314C87.934 136.036 87.224 134.616 85.946 134.474C84.384 134.19 84.668 134.9 84.384 136.888C83.248 143.42 83.958 150.662 87.792 156.342C87.934 156.484 87.792 156.626 87.65 156.484C84.81 153.36 83.248 149.81 82.822 145.408Z" fill="#D4958A"/>
<path d="M198.836 136.746C199.12 136.32 203.238 131.066 206.646 127.8C210.196 124.534 211.19 124.676 212.894 126.664C214.598 128.652 216.728 138.734 216.16 143.278C215.592 147.822 211.474 154.922 209.202 158.898C206.93 162.874 204.8 167.844 202.386 167.418C199.83 166.992 196.422 161.312 194.86 157.052C193.156 152.792 194.008 142.426 198.836 136.746Z" fill="#F3D4CF"/>
<path d="M198.694 136.746C201.25 133.48 203.664 130.072 206.646 127.09C207.356 126.38 208.066 125.67 209.06 125.102C209.486 124.818 210.054 124.534 210.622 124.534C211.19 124.392 211.758 124.676 212.184 124.96C212.61 125.244 213.036 125.67 213.32 125.954C213.462 126.096 213.604 126.38 213.746 126.664C213.888 126.948 214.03 127.09 214.172 127.374C214.598 128.368 214.882 129.362 215.166 130.498C215.734 132.628 216.018 134.758 216.302 136.888C216.444 139.018 216.728 141.29 216.444 143.562C216.302 144.698 216.018 145.834 215.592 146.828C215.166 147.964 214.74 148.958 214.314 149.952C213.462 151.94 212.468 153.928 211.474 155.916C210.48 157.904 209.486 159.75 208.492 161.738C207.498 163.726 206.504 165.714 204.942 167.418C204.516 167.844 204.09 168.27 203.522 168.412C202.954 168.554 202.244 168.696 201.818 168.412C200.824 168.128 200.114 167.418 199.404 166.708C197.984 165.288 196.99 163.584 195.996 161.88C195.57 161.028 195.144 160.034 194.718 159.04C194.576 158.614 194.292 158.046 194.15 157.62L193.724 155.916C193.582 154.78 193.44 153.644 193.44 152.508C193.44 151.372 193.582 150.236 193.724 149.1C194.434 144.414 195.996 140.012 198.694 136.746ZM198.836 136.888C197.558 138.45 196.564 140.438 195.854 142.568C195.144 144.698 194.86 146.828 194.718 148.958C194.576 151.088 194.718 153.218 195.144 155.064C195.144 155.348 195.286 155.49 195.286 155.774L195.57 156.342C195.712 156.768 195.996 157.194 196.138 157.62L197.416 160.176C198.268 161.88 199.404 163.442 200.54 164.72C201.108 165.288 201.818 165.856 202.386 166.14C202.954 166.424 203.522 166.14 204.09 165.572C204.658 165.004 205.226 164.152 205.794 163.3C206.362 162.448 206.93 161.454 207.356 160.602C208.35 158.756 209.628 156.91 210.622 155.064C211.758 153.218 212.752 151.372 213.746 149.384L215.024 146.402C215.45 145.408 215.734 144.272 215.734 143.278C215.876 141.148 215.592 139.018 215.166 137.03C214.74 135.042 214.314 132.912 213.604 131.066C213.32 130.072 212.894 129.22 212.61 128.368C212.468 128.226 212.468 127.942 212.326 127.8C212.184 127.658 212.184 127.516 212.042 127.374L211.19 126.522C210.196 125.67 208.634 127.09 207.072 128.226C204.232 130.498 201.392 133.622 198.836 136.888Z" fill="#E4B3AB"/>
<path d="M213.178 145.408C213.462 142.426 213.746 134.9 212.042 132.628C209.202 128.794 204.09 141.29 202.812 145.124C202.812 145.266 202.67 145.408 202.67 145.408C202.528 145.834 202.812 146.402 203.238 146.26C203.806 145.976 204.374 145.408 204.942 145.124C206.504 144.414 207.072 145.692 206.646 147.538C206.078 149.952 204.8 151.372 203.664 153.218C203.522 153.502 203.664 153.786 203.948 153.644C206.078 152.366 208.634 147.68 208.066 144.84C207.64 142.284 205.51 142.426 203.948 143.704C204.942 141.432 205.936 139.302 207.214 137.314C208.066 136.036 208.776 134.616 210.054 134.474C211.616 134.19 211.332 134.9 211.616 136.888C212.752 143.42 212.042 150.662 208.208 156.342C208.066 156.484 208.208 156.626 208.35 156.484C211.19 153.36 212.752 149.81 213.178 145.408Z" fill="#D4958A"/>
<path d="M206.22 121.268C204.516 80.798 178.374 59.4838 148.128 59.4838C117.882 59.4838 91.484 80.94 89.78 121.268C89.78 121.268 89.212 158.046 97.448 174.234C117.896 214.562 148.028 212.503 148.028 212.503C148.028 212.503 178.104 214.562 198.552 174.234C206.788 158.046 206.22 121.268 206.22 121.268Z" fill="#F3D4CF"/>
<path d="M198.552 174.234C206.788 158.046 206.348 121.24 206.348 121.24C204.644 80.7696 178.246 58.646 148 58.646C117.754 58.646 91.484 80.94 89.78 121.268C89.78 121.268 89.212 158.046 97.448 174.234C117.896 214.562 148 213.284 148 213.284C148 213.284 178.104 214.562 198.552 174.234ZM139.338 209.975C136.498 209.251 133.658 208.115 130.818 206.823C125.28 204.239 120.31 200.504 115.908 196.201C113.636 194.043 111.648 191.743 109.66 189.314C109.66 189.314 105.116 182.995 104.122 181.703C103.696 180.979 103.27 180.411 102.844 179.687C102.418 178.963 101.992 178.395 101.566 177.67L99.01 173.07C99.01 173.07 97.732 170.059 97.448 169.335C97.164 168.611 96.88 167.901 96.738 167.035C96.454 166.31 96.312 165.458 96.028 164.734C95.176 161.724 94.466 158.557 93.898 155.405C93.33 152.252 92.762 149.086 92.478 145.777C91.626 139.316 91.2 132.855 90.916 126.252V121.509L91.058 119.067C91.058 118.201 91.2 117.491 91.2 116.625C91.342 115.048 91.626 113.472 91.768 111.74C91.91 110.874 92.052 110.164 92.194 109.297C92.194 109.297 92.6199 107.437 92.7619 106.997C94.1819 100.678 96.312 94.501 99.578 89.0482C100.288 87.614 101.282 86.3218 102.134 85.0296L103.554 83.1694C103.98 82.6014 104.548 81.8772 105.116 81.3092C107.104 78.8668 109.376 76.5664 111.79 74.5642C116.618 70.5456 122.156 67.521 127.978 65.3768C133.8 63.3604 139.906 62.3664 146.154 62.2244C149.278 62.0824 161.774 63.8006 162.2 63.9426C169.172 65.675 175.974 68.9694 181.086 72.42C182.364 73.2862 183.642 74.2802 184.778 75.2884L186.624 76.8646L188.328 78.4408C190.6 80.7412 192.588 83.1836 194.434 85.768C194.86 86.4922 197.132 89.7866 197.132 89.7866C197.558 90.5108 199.404 94.0892 199.404 94.0892C200.114 95.5234 200.682 97.0996 201.392 98.548C201.96 100.124 202.528 101.558 202.954 103.149C203.522 104.725 203.806 106.301 204.232 107.892C204.374 108.758 205.226 112.634 205.226 112.634L205.624 115.389C205.766 116.255 205.879 119.28 205.879 119.28L205.964 120.601C205.964 120.601 205.95 133.068 205.524 138.095C205.098 143.122 204.8 147.694 203.948 152.721C203.522 155.163 202.954 157.748 202.386 160.19C201.818 162.633 201.108 165.075 200.256 167.375C199.404 169.676 198.552 171.976 197.416 174.12L195.57 177.273C195.002 178.423 194.292 179.431 193.582 180.425C190.884 184.586 187.902 188.462 184.636 192.055C181.37 195.648 177.82 198.942 173.986 201.825C171.998 203.259 170.01 204.551 168.022 205.701C165.892 206.851 163.762 207.86 161.632 208.712C161.064 208.996 158.792 209.72 158.224 209.862C157.088 210.146 155.952 210.43 154.816 210.728C153.68 211.026 145.401 211.623 139.338 209.975Z" fill="#C5796D"/>
<path d="M129.398 186.162C129.398 186.162 133.516 185.736 135.93 184.742C138.344 183.748 143.172 181.76 146.864 181.618C150.556 181.476 153.822 182.186 158.224 183.606C162.626 185.026 167.028 186.162 169.158 185.878C169.158 185.878 167.454 187.582 164.188 189.57C160.922 191.558 155.952 193.688 150.272 193.83C144.592 193.972 139.906 193.12 135.93 190.99C131.67 188.86 129.682 187.156 129.398 186.162Z" fill="#DA7C87"/>
<path d="M128.688 186.588C135.22 190.28 142.746 187.014 149.704 187.298C155.952 187.44 164.472 189.996 170.152 186.304C170.72 186.02 170.294 185.31 169.726 185.31C166.318 185.878 163.194 186.588 159.786 186.446C156.378 186.304 153.112 185.736 149.704 185.736C142.746 185.594 135.788 188.292 128.972 185.878C128.546 185.594 128.262 186.304 128.688 186.588Z" fill="#CB5F6C"/>
<path d="M136.64 189.996C143.314 192.694 152.402 193.262 158.792 189.428C159.076 189.286 158.934 188.718 158.65 188.718C154.958 188.86 151.408 189.712 147.716 189.996C144.024 190.138 140.332 189.854 136.782 189.57C136.498 189.428 136.498 189.854 136.64 189.996Z" fill="#E99CA5"/>
<path d="M145.302 183.606C148.284 183.606 151.124 184.316 154.106 185.026C154.532 185.168 154.816 184.6 154.39 184.316C151.55 182.896 148.284 182.754 145.302 183.18C145.018 183.18 145.018 183.464 145.302 183.606Z" fill="#E99CA5"/>
<path d="M136.072 139.018C136.072 139.018 134.51 136.462 133.232 135.184C131.954 133.906 128.546 130.782 122.582 131.492C116.618 132.202 107.956 140.154 107.956 140.154C107.956 140.154 111.79 144.272 116.05 145.124C120.31 145.976 124.57 145.976 128.83 143.846C133.09 141.858 135.788 139.302 135.788 139.302L136.072 139.018Z" fill="white"/>
<path d="M122.44 129.93C126.274 129.93 129.398 133.054 129.398 136.888C129.398 140.722 126.274 143.846 122.44 143.846C118.606 143.846 115.482 140.722 115.482 136.888C115.482 133.054 118.606 129.93 122.44 129.93Z" fill="#681711"/>
<path d="M122.44 133.196C124.428 133.196 126.132 134.9 126.132 136.888C126.132 138.876 124.428 140.58 122.44 140.58C120.452 140.58 118.748 138.876 118.748 136.888C118.748 134.9 120.452 133.196 122.44 133.196Z" fill="black"/>
<path d="M121.446 133.906L120.736 133.196C120.452 132.912 120.168 132.77 119.742 132.77C119.316 132.77 119.032 132.912 118.748 133.196C118.464 133.48 118.322 133.764 118.322 134.19C118.322 134.616 118.464 134.9 118.748 135.184L119.458 135.894C119.742 136.178 120.026 136.32 120.452 136.32C120.736 136.32 121.162 136.178 121.446 135.894C122.014 135.184 122.014 134.474 121.446 133.906ZM124.996 140.154C126.132 140.154 126.132 138.308 124.996 138.308C123.86 138.308 123.718 140.154 124.996 140.154Z" fill="white"/>
<path d="M106.437 139.203C106.437 149.001 113.437 156.953 122.085 156.953C130.733 156.953 137.733 149.001 137.733 139.203C137.733 129.405 130.733 121.453 122.085 121.453C113.437 121.453 106.437 129.39 106.437 139.203ZM108.055 140.055C108.055 140.055 116.788 132.145 122.667 131.449C128.546 130.754 132.025 133.934 133.289 135.198C134.553 136.462 136.072 139.046 136.072 139.046L135.845 139.274C135.845 139.274 133.189 141.759 128.901 143.789C124.613 145.82 120.338 145.877 116.121 145.025C111.904 144.173 108.055 140.055 108.055 140.055Z" fill="#F3D4CF"/>
<path d="M135.93 141.645C133.558 146.118 128.688 149.54 123.604 149.995C123.377 150.009 123.32 149.64 123.547 149.583C128.759 148.376 132.692 145.962 135.859 141.602C135.901 141.56 135.958 141.588 135.93 141.645Z" fill="#E4B3AB"/>
<path d="M134.836 134.957C126.984 123.81 111.066 126.636 106.507 139.075C106.422 139.302 106.081 139.217 106.152 138.975C109.901 125.656 127.623 123.654 135.092 134.801C135.206 134.971 134.95 135.113 134.836 134.957Z" fill="#E4B3AB"/>
<path d="M102.972 143.122C104.789 142.653 106.408 141.83 107.942 140.807C108.95 141.901 110.1 142.809 111.336 143.562C110.725 143.747 110.185 144.102 109.901 144.67C109.788 144.897 110.015 145.096 110.228 144.996C110.881 144.698 111.449 144.286 112.102 144.002C112.699 144.315 113.309 144.599 113.934 144.854C113.238 145.081 112.585 145.479 112.287 146.09C112.188 146.303 112.358 146.658 112.642 146.544C113.096 146.374 113.466 146.033 113.892 145.791C114.289 145.564 114.729 145.408 115.17 145.266C115.794 145.451 116.419 145.621 117.058 145.735C116.533 146.232 116.192 146.984 116.135 147.666C116.121 147.822 116.334 147.907 116.448 147.794C116.732 147.481 117.001 147.169 117.257 146.828C117.484 146.53 117.768 146.232 117.995 145.905C124.471 146.842 131.556 144.485 135.845 139.515C135.873 139.572 135.902 139.614 135.916 139.671C136.058 140.012 136.654 139.756 136.526 139.416C134.453 134.076 128.972 130.072 123.122 130.441C119.557 130.668 116.178 132.216 112.997 134.261C112.088 134.474 111.179 134.673 110.228 134.715C109.135 134.772 108.055 134.502 106.976 134.673C106.408 134.772 106.451 135.511 106.834 135.78C107.644 136.348 108.723 136.519 109.83 136.448C108.879 136.803 107.928 137.101 106.919 137.314C105.613 137.57 104.25 137.456 102.972 137.811C102.29 137.996 102.39 138.862 102.972 139.103C103.952 139.487 105.059 139.515 106.181 139.316C104.946 140.31 103.739 141.276 102.588 142.156C102.148 142.525 102.39 143.278 102.972 143.122ZM108.95 140.14C112.017 137.925 114.8 135.141 118.123 133.409C124.811 129.916 132.494 132.5 135.689 139.231C131.528 142.27 127.41 144.939 122.085 145.252C116.888 145.536 112.614 143.59 108.95 140.14Z" fill="black"/>
<path d="M159.928 139.018C159.928 139.018 161.49 136.462 162.768 135.184C164.046 133.906 167.454 130.782 173.418 131.492C179.382 132.202 188.044 140.154 188.044 140.154C188.044 140.154 184.21 144.272 179.95 145.124C175.69 145.976 171.43 145.976 167.17 143.846C162.91 141.858 160.212 139.302 160.212 139.302L159.928 139.018Z" fill="white"/>
<path d="M173.56 129.93C177.394 129.93 180.518 133.054 180.518 136.888C180.518 140.722 177.394 143.846 173.56 143.846C169.726 143.846 166.602 140.722 166.602 136.888C166.602 133.054 169.726 129.93 173.56 129.93Z" fill="#681711"/>
<path d="M173.56 133.196C175.548 133.196 177.252 134.9 177.252 136.888C177.252 138.876 175.548 140.58 173.56 140.58C171.572 140.58 169.868 138.876 169.868 136.888C169.868 134.9 171.572 133.196 173.56 133.196Z" fill="black"/>
<path d="M172.708 133.906L171.998 133.196C171.714 132.912 171.43 132.77 171.004 132.77C170.578 132.77 170.294 132.912 170.01 133.196C169.726 133.48 169.584 133.764 169.584 134.19C169.584 134.616 169.726 134.9 170.01 135.184L170.72 135.894C171.004 136.178 171.288 136.32 171.714 136.32C171.998 136.32 172.424 136.178 172.708 135.894C173.134 135.184 173.276 134.474 172.708 133.906ZM176.116 140.154C177.252 140.154 177.252 138.308 176.116 138.308C174.98 138.308 174.98 140.154 176.116 140.154Z" fill="white"/>
<path d="M173.929 121.453C165.296 121.453 158.281 129.405 158.281 139.203C158.281 149.001 165.281 156.953 173.929 156.953C182.577 156.953 189.578 149.001 189.578 139.203C189.578 129.405 182.563 121.453 173.929 121.453ZM179.879 145.039C175.662 145.905 171.373 145.834 167.099 143.803C162.811 141.773 160.155 139.288 160.155 139.288L159.928 139.061C159.928 139.061 161.462 136.476 162.711 135.212C163.975 133.949 167.454 130.768 173.333 131.464C179.212 132.159 187.945 140.069 187.945 140.069C187.945 140.069 184.096 144.173 179.879 145.039Z" fill="#F3D4CF"/>
<path d="M160.07 141.645C162.441 146.118 167.312 149.54 172.396 149.995C172.623 150.009 172.68 149.64 172.452 149.583C167.241 148.376 163.308 145.962 160.141 141.602C160.098 141.56 160.041 141.588 160.07 141.645Z" fill="#E4B3AB"/>
<path d="M161.163 134.957C169.016 123.81 184.934 126.636 189.492 139.075C189.578 139.302 189.918 139.217 189.847 138.975C186.099 125.656 168.377 123.654 160.908 134.801C160.794 134.971 161.05 135.113 161.163 134.957Z" fill="#E4B3AB"/>
<path d="M193.412 142.199C192.247 141.318 191.054 140.353 189.819 139.359C190.941 139.558 192.048 139.529 193.028 139.146C193.61 138.919 193.71 138.052 193.028 137.854C191.75 137.499 190.387 137.626 189.08 137.357C188.072 137.158 187.121 136.86 186.17 136.49C187.277 136.561 188.356 136.391 189.166 135.823C189.549 135.553 189.578 134.815 189.024 134.715C187.945 134.531 186.865 134.815 185.772 134.758C184.835 134.701 183.926 134.502 183.003 134.304C179.822 132.259 176.443 130.697 172.878 130.484C167.028 130.115 161.547 134.119 159.474 139.458C159.346 139.799 159.928 140.055 160.084 139.714C160.113 139.657 160.141 139.614 160.155 139.558C164.444 144.542 171.529 146.885 178.005 145.948C178.232 146.274 178.502 146.558 178.743 146.871C178.999 147.197 179.268 147.524 179.552 147.836C179.652 147.95 179.865 147.865 179.865 147.708C179.822 147.027 179.467 146.274 178.942 145.777C179.581 145.649 180.206 145.493 180.83 145.309C181.271 145.451 181.711 145.607 182.108 145.834C182.534 146.075 182.904 146.402 183.358 146.587C183.628 146.686 183.812 146.345 183.713 146.132C183.415 145.522 182.762 145.138 182.066 144.897C182.691 144.655 183.301 144.371 183.898 144.045C184.537 144.329 185.119 144.741 185.772 145.039C185.985 145.138 186.212 144.939 186.099 144.712C185.815 144.13 185.261 143.789 184.664 143.605C185.9 142.852 187.036 141.943 188.058 140.85C189.592 141.858 191.225 142.696 193.028 143.164C193.61 143.278 193.852 142.525 193.412 142.199ZM173.929 145.238C168.59 144.939 164.486 142.256 160.326 139.217C163.506 132.486 171.203 129.902 177.891 133.395C181.214 135.127 183.997 137.91 187.064 140.126C183.386 143.59 179.112 145.536 173.929 145.238Z" fill="black"/>
<path d="M109.518 119.564C109.66 119.28 110.086 119.138 110.37 118.996C110.654 118.854 110.938 118.712 111.222 118.712C111.79 118.428 112.358 118.144 112.926 118.002C113.636 117.86 114.63 117.292 115.34 117.718C117.612 116.866 120.594 117.434 122.582 118.57C125.28 118.854 128.12 119.706 130.108 121.126C130.25 121.268 130.392 121.41 130.392 121.552C130.818 121.694 131.102 121.836 131.528 121.978C132.948 122.546 134.51 122.972 135.93 123.682C136.072 123.682 136.214 123.824 136.356 123.824C136.782 123.966 136.924 124.818 136.64 124.96C136.498 125.102 136.498 125.244 136.356 125.386C135.22 126.238 133.8 125.67 132.664 125.244C131.67 124.818 130.534 124.392 129.824 123.54C128.688 123.114 127.836 122.546 126.842 121.978C126.7 121.978 126.558 121.836 126.416 121.836C124.712 121.552 122.866 120.842 121.162 119.99C120.168 119.848 119.316 119.564 118.322 119.564C117.044 119.422 115.766 119.848 114.346 119.422L114.204 119.422C113.92 119.564 113.636 119.564 113.352 119.706C112.216 119.99 111.222 120.274 110.086 120.274C109.944 120.274 109.802 120.132 109.802 119.99L109.66 119.99C109.66 119.99 109.376 119.848 109.518 119.564Z" fill="#2A232B"/>
<path d="M115.908 116.866C120.31 116.582 124.712 118.996 128.688 120.558C131.102 121.552 136.072 121.836 137.066 124.818C137.208 125.244 136.64 125.386 136.356 125.102C135.078 123.398 132.948 123.114 130.96 122.546C129.256 121.978 127.694 121.41 125.99 120.7C122.582 119.28 119.174 118.428 115.624 117.576C115.482 117.434 115.624 117.008 115.908 116.866Z" fill="#3A353A"/>
<path d="M138.486 124.818C138.912 122.83 135.93 122.12 134.51 121.552C131.102 120.132 127.552 118.57 124.002 117.576C121.872 117.008 119.6 116.582 117.47 116.582C115.766 116.582 114.204 116.724 112.5 117.292C109.66 118.144 106.962 119.848 104.548 121.694C103.27 122.404 101.992 123.398 100.998 124.392C100.856 124.534 100.998 124.818 101.282 124.676C101.282 124.676 101.424 124.676 101.424 124.534C101.424 124.676 101.566 124.676 101.708 124.676C103.838 123.682 105.684 122.404 107.814 121.552C109.944 120.7 112.216 120.132 114.488 119.99L115.482 119.99C118.18 119.99 120.736 120.558 123.15 121.694C126.558 123.256 129.682 125.386 133.09 126.664C133.658 126.948 134.368 126.948 135.078 126.948C136.64 126.948 138.202 126.38 138.486 124.818ZM117.47 117.86C119.742 117.86 122.014 118.428 124.286 119.138C127.126 120.132 129.966 121.41 132.806 122.546C133.374 122.83 136.214 123.54 136.498 124.25C136.782 125.102 136.214 125.386 135.362 125.528C134.936 125.528 134.51 125.386 134.226 125.386C133.374 125.102 132.522 124.534 131.812 124.108C127.41 121.836 122.866 119.138 117.896 118.854L116.476 118.854C114.914 118.854 113.21 118.996 111.506 119.28C112.216 118.996 112.926 118.712 113.778 118.428C114.914 118.002 116.192 117.86 117.47 117.86Z" fill="#1B141C"/>
<path d="M186.482 119.564C186.34 119.28 185.914 119.138 185.63 118.996C185.346 118.854 185.062 118.712 184.778 118.712C184.21 118.428 183.642 118.144 183.074 118.002C182.364 117.86 181.37 117.292 180.66 117.718C178.388 116.866 175.406 117.434 173.418 118.57C170.72 118.854 167.88 119.706 165.892 121.126C165.75 121.268 165.608 121.41 165.608 121.552C165.182 121.694 164.898 121.836 164.472 121.978C163.052 122.546 161.49 122.972 160.07 123.682C159.928 123.682 159.786 123.824 159.644 123.824C159.218 123.966 159.076 124.818 159.36 124.96C159.502 125.102 159.502 125.244 159.644 125.386C160.78 126.238 162.2 125.67 163.336 125.244C164.33 124.818 165.466 124.392 166.176 123.54C167.312 123.114 168.164 122.546 169.158 121.978C169.3 121.978 169.442 121.836 169.584 121.836C171.288 121.552 173.134 120.842 174.838 119.99C175.832 119.848 176.684 119.564 177.678 119.564C178.956 119.422 180.234 119.848 181.654 119.422L181.796 119.422C182.08 119.564 182.364 119.564 182.648 119.706C183.784 119.99 184.778 120.274 185.914 120.274C186.056 120.274 186.198 120.132 186.198 119.99L186.34 119.99C186.34 119.99 186.624 119.848 186.482 119.564Z" fill="#2A232B"/>
<path d="M180.092 116.866C175.69 116.582 171.288 118.996 167.312 120.558C164.898 121.552 159.928 121.836 158.934 124.818C158.792 125.244 159.36 125.386 159.644 125.102C160.922 123.398 163.052 123.114 165.04 122.546C166.744 121.978 168.306 121.41 170.01 120.7C173.418 119.28 176.826 118.428 180.376 117.576C180.518 117.434 180.376 117.008 180.092 116.866Z" fill="#3A353A"/>
<path d="M160.78 126.806C161.49 126.806 162.2 126.664 162.768 126.522C166.176 125.244 169.442 123.114 172.708 121.552C175.264 120.416 177.82 119.848 180.376 119.848L181.37 119.848C183.642 119.99 185.914 120.558 187.902 121.41C190.032 122.262 192.02 123.682 194.008 124.534C194.15 124.534 194.292 124.534 194.292 124.392C194.292 124.392 194.434 124.392 194.434 124.534C194.718 124.676 194.86 124.392 194.718 124.25C193.724 123.256 192.446 122.262 191.168 121.552C188.754 119.706 186.056 118.144 183.216 117.15C181.654 116.582 179.95 116.44 178.246 116.44C175.974 116.44 173.844 116.866 171.714 117.434C168.164 118.428 164.614 119.99 161.206 121.41C159.928 121.978 156.804 122.688 157.23 124.676C157.798 126.38 159.36 126.948 160.78 126.806ZM182.364 118.428C183.074 118.712 183.926 118.854 184.636 119.28C182.932 118.996 181.37 118.854 179.666 118.854L178.246 118.854C173.276 119.138 168.59 121.978 164.33 124.108C163.478 124.534 162.768 125.102 161.916 125.386C161.632 125.528 161.206 125.528 160.78 125.528C160.07 125.528 159.36 125.244 159.644 124.25C159.928 123.54 162.768 122.83 163.336 122.546C166.176 121.41 169.016 120.132 171.856 119.138C174.128 118.428 176.4 117.86 178.672 117.86C179.808 117.86 181.086 118.002 182.364 118.428Z" fill="#1B141C"/>
<path d="M144.762 129.745C143.626 134.474 143.47 139.529 142.959 144.357C142.419 149.526 141.425 154.865 141.496 160.062C141.496 160.474 142.135 160.588 142.235 160.162C143.285 155.419 143.413 150.35 143.91 145.522C144.436 140.353 145.401 134.999 145.231 129.816C145.231 129.547 144.833 129.476 144.762 129.745Z" fill="#C5796D"/>
<path d="M140.488 157.336C139.097 159.196 137.932 161.213 136.91 163.3C136.257 164.649 135.433 166.239 135.873 167.787C136.583 170.343 139.835 171.138 141.951 169.931C142.576 169.562 142.292 168.582 141.582 168.582C140.346 168.568 138.898 168.966 137.918 167.915C136.725 166.651 137.904 164.365 138.429 163.087C139.21 161.213 140.162 159.409 140.9 157.521C140.999 157.251 140.63 157.151 140.488 157.336Z" fill="#C5796D"/>
<path d="M140.289 167.858C144.123 167.574 144.848 172.402 148.497 172.516C151.621 172.615 151.862 167.915 154.83 168.057C155.171 168.071 155.285 167.588 155.001 167.418C151.635 165.43 151.01 171.28 147.915 170.911C146.083 170.698 144.777 168 143.129 167.219C142.008 166.694 141.198 166.736 140.105 167.233C139.835 167.39 139.977 167.887 140.289 167.858Z" fill="#C5796D"/>
<path d="M153.779 170.045C156.307 170.613 159.246 169.832 159.843 167.02C160.141 165.615 159.672 164.223 158.934 163.03C157.741 161.085 156.193 159.438 155.057 157.421C154.873 157.08 154.39 157.251 154.376 157.606C154.234 159.864 155.909 161.426 157.102 163.172C158.21 164.777 159.161 166.992 157.301 168.582C156.449 169.307 154.83 169.179 153.779 169.378C153.439 169.449 153.453 169.974 153.779 170.045Z" fill="#C5796D"/>
<path d="M151.294 162.462C150.741 161.468 149.306 161.312 148.511 162.107C148.44 162.178 148.185 162.505 148.114 162.59C148.028 162.704 147.844 162.945 147.815 162.988C147.73 163.13 147.645 163.272 147.574 163.414L147.418 163.783C147.418 163.769 147.404 163.797 147.375 163.854C147.29 163.939 147.205 164.038 147.134 164.124C146.892 164.379 146.651 164.635 146.452 164.933C145.884 165.828 146.339 166.85 147.105 167.418C148.284 168.298 149.988 167.588 150.812 166.594C151.806 165.402 152.075 163.868 151.294 162.462Z" fill="#FBE5E2"/>
<path d="M156.236 74.55C156.236 74.55 154.958 96.844 130.818 100.82C112.642 103.802 91.3419 110.476 94.3239 130.072C94.3239 130.072 90.4899 129.362 88.2179 123.966C85.9459 118.57 81.4019 94.856 96.8799 76.822C112.358 58.788 132.096 51.404 156.946 57.51C156.946 57.51 179.24 57.51 194.718 78.81C210.196 100.11 210.622 126.522 201.534 135.61C201.534 135.61 206.362 117.86 185.63 108.914C166.46 100.82 153.68 90.312 156.236 74.55Z" fill="#BABCBE"/>
<path d="M158.224 63.616C158.224 63.616 156.946 84.348 168.59 93.436C180.234 102.524 195.428 107.92 199.972 112.18C204.516 116.44 204.8 122.262 204.8 122.262C204.8 122.262 207.072 115.446 201.96 109.624C196.848 103.802 175.406 96.56 168.59 88.608C161.774 80.94 160.212 71.994 158.224 63.616ZM161.206 64.752C161.206 64.752 166.46 77.674 173.56 84.49C180.66 91.306 192.446 96.844 196.564 99.4C200.682 101.956 204.09 107.21 204.09 107.21C204.09 107.21 203.38 103.234 195.712 95.85C188.044 88.466 178.53 84.916 170.72 77.106C162.91 69.296 161.206 64.752 161.206 64.752ZM160.496 59.356C160.496 59.356 175.406 62.196 186.056 72.42C196.706 82.786 200.966 93.578 202.954 99.684C202.954 99.684 193.298 83.212 183.216 73.698C173.134 64.184 160.496 59.356 160.496 59.356ZM92.194 124.534C92.194 124.534 90.916 113.174 100.288 106.074C109.66 98.974 127.268 100.536 137.492 93.72C147.574 86.904 152.686 76.822 154.674 67.45C154.674 67.45 147.858 87.898 115.766 96.56C83.674 105.222 92.194 124.534 92.194 124.534ZM88.502 112.18C88.502 112.18 89.496 98.548 103.98 93.294C118.322 88.04 133.8 83.496 142.604 76.538C151.408 69.58 153.538 62.338 153.538 62.338C153.538 62.338 143.598 75.26 118.038 83.354C92.478 91.448 90.774 98.832 88.502 112.18ZM95.46 85.91C95.46 85.91 102.986 69.438 120.452 63.19C137.918 56.942 150.272 59.64 150.272 59.64C150.272 59.64 115.198 59.356 95.46 85.91Z" fill="#CDCDCD"/>
<path opacity="0.28" d="M125.138 127.658C133.516 127.658 140.332 134.474 140.332 142.852C140.332 151.23 133.516 158.046 125.138 158.046C116.76 158.046 109.944 151.23 109.944 142.852C109.944 134.474 116.76 127.658 125.138 127.658Z" fill="white"/>
<path opacity="0.67" d="M116.192 149.384L116.05 149.1L133.942 133.48L134.084 133.764L116.192 149.384ZM121.73 155.916L121.446 155.632L135.362 143.562L135.646 143.846L121.73 155.916ZM112.5 143.988L112.358 143.704L126.274 131.634L126.416 131.918L112.5 143.988ZM117.328 143.278L117.044 142.994L131.102 130.924L131.244 131.208L117.328 143.278Z" fill="white"/>
<path opacity="0.28" d="M170.862 127.658C179.24 127.658 186.056 134.474 186.056 142.852C186.056 151.23 179.24 158.046 170.862 158.046C162.484 158.046 155.668 151.23 155.668 142.852C155.668 134.474 162.484 127.658 170.862 127.658Z" fill="white"/>
<path opacity="0.67" d="M179.808 149.384L179.95 149.1L162.058 133.48L161.916 133.764L179.808 149.384ZM174.27 155.916L174.554 155.632L160.638 143.562L160.354 143.846L174.27 155.916ZM183.5 143.988L183.642 143.704L169.726 131.634L169.584 131.918L183.5 143.988ZM178.672 143.278L178.956 142.994L164.898 130.924L164.756 131.208L178.672 143.278Z" fill="white"/>
<path d="M154.958 142.852C154.958 151.656 162.058 158.756 170.862 158.756C179.666 158.756 186.766 151.656 186.766 142.852C186.766 142.142 186.766 141.574 186.624 140.864L189.464 141.006L189.606 137.03C188.328 136.746 186.482 136.888 185.63 136.888C183.216 131.066 177.536 126.948 170.862 126.948C162.058 126.948 154.958 134.048 154.958 142.852ZM156.378 142.852C156.378 134.9 162.91 128.368 170.862 128.368C178.814 128.368 185.346 134.9 185.346 142.852C185.346 150.804 178.814 157.336 170.862 157.336C162.91 157.336 156.378 150.804 156.378 142.852ZM125.138 126.948C118.464 126.948 112.784 131.066 110.37 136.888C109.518 136.888 107.672 136.746 106.394 137.03L106.536 141.006L109.518 140.864C109.376 141.574 109.376 142.142 109.376 142.852C109.376 151.656 116.476 158.756 125.28 158.756C134.084 158.756 141.184 151.656 141.184 142.852C141.184 134.048 133.942 126.948 125.138 126.948ZM125.138 157.336C117.186 157.336 110.654 150.804 110.654 142.852C110.654 134.9 117.186 128.368 125.138 128.368C133.09 128.368 139.622 134.9 139.622 142.852C139.622 150.804 133.09 157.336 125.138 157.336Z" fill="#26120B"/>
<path d="M125.138 126.948C122.014 126.948 118.89 127.942 116.334 129.788C113.778 131.634 111.79 134.19 110.654 137.03L110.512 137.172H110.228C108.95 137.172 107.53 137.172 106.252 137.314L106.536 137.03L106.678 141.006L106.394 140.722H109.66V141.006C109.234 144.13 109.802 147.396 111.222 150.236C111.932 151.656 112.926 152.934 114.062 154.07C115.198 155.206 116.476 156.058 117.896 156.91C120.736 158.33 124.002 158.898 127.126 158.472C130.25 158.046 133.232 156.768 135.504 154.638C136.64 153.644 137.634 152.366 138.486 151.088C139.338 149.81 139.906 148.248 140.332 146.828C141.184 143.846 140.9 140.58 139.906 137.598C138.912 134.616 136.782 132.06 134.226 130.214C132.948 129.362 131.528 128.51 129.966 128.084C128.262 127.232 126.7 127.09 125.138 126.948ZM125.138 126.948C126.7 126.948 128.404 127.232 129.824 127.658C131.386 128.084 132.806 128.794 134.226 129.646C136.924 131.492 139.054 134.048 140.332 137.172C140.9 138.734 141.326 140.296 141.468 142C141.61 143.704 141.468 145.266 141.042 146.828C140.616 148.39 140.048 149.952 139.196 151.372C138.344 152.792 137.35 154.07 136.072 155.064C133.658 157.194 130.534 158.614 127.268 158.898C124.002 159.182 120.736 158.614 117.896 157.052C116.476 156.2 115.198 155.348 114.062 154.07C112.926 152.934 111.932 151.656 111.222 150.236C109.66 147.396 109.092 144.13 109.376 140.864L109.66 141.148L106.678 141.29H106.394V141.006L106.252 137.03V136.746H106.536C107.956 136.462 109.234 136.604 110.654 136.604L110.37 136.746C111.506 133.764 113.778 131.208 116.476 129.504C118.748 127.8 122.014 126.948 125.138 126.948ZM125.138 157.336C121.304 157.336 117.47 155.916 114.772 153.218C111.932 150.52 110.37 146.686 110.37 142.852C110.37 139.018 112.074 135.184 114.772 132.486C117.47 129.788 121.304 128.084 125.138 128.084C128.972 128.084 132.806 129.504 135.646 132.344C138.486 135.042 140.048 138.876 140.048 142.852C140.048 146.686 138.344 150.662 135.646 153.218C132.664 155.916 128.972 157.478 125.138 157.336ZM125.138 157.336C128.972 157.336 132.664 155.632 135.22 152.934C137.776 150.236 139.338 146.544 139.196 142.852C139.054 139.16 137.634 135.468 135.078 132.77C132.522 130.072 128.83 128.51 124.996 128.51C121.304 128.51 117.47 129.93 114.772 132.628C112.074 135.326 110.654 139.018 110.796 142.852C110.796 146.544 112.358 150.236 114.914 152.934C117.612 155.632 121.304 157.336 125.138 157.336ZM154.958 142.852C154.958 147.254 156.946 151.514 160.07 154.354C163.194 157.194 167.454 158.756 171.714 158.472C175.974 158.33 180.092 156.2 182.932 152.934C185.772 149.668 186.908 145.124 186.34 140.864V140.58H189.606L189.464 140.864V136.888L189.606 137.172C188.328 137.03 186.908 137.03 185.63 137.03H185.346L185.204 136.888C183.784 133.622 181.37 130.782 178.104 129.078C174.98 127.374 171.288 126.806 167.738 127.374C164.188 127.942 160.922 129.93 158.508 132.628C156.378 135.61 155.1 139.16 154.958 142.852ZM154.958 142.852C154.958 139.16 156.236 135.468 158.508 132.628C160.78 129.788 164.188 127.658 167.88 126.948C171.572 126.238 175.406 126.806 178.814 128.652C182.08 130.498 184.636 133.48 186.056 136.888L185.772 136.746C187.192 136.746 188.47 136.746 189.89 136.888H190.174V137.172L190.032 141.148V141.432H189.89L186.908 141.29L187.05 141.148C187.618 145.55 186.198 149.952 183.358 153.36C180.66 156.768 176.4 159.04 171.998 159.324C167.596 159.608 163.052 158.046 159.928 154.922C156.662 151.514 154.958 147.254 154.958 142.852ZM156.378 142.852C156.378 139.018 157.798 135.184 160.496 132.486C163.194 129.646 167.028 128.084 170.862 128.084C174.696 128.084 178.53 129.788 181.228 132.486C183.926 135.184 185.63 139.018 185.63 142.852C185.63 146.686 184.21 150.52 181.37 153.36C178.672 156.2 174.838 157.762 170.862 157.762C167.028 157.762 163.052 156.058 160.496 153.36C157.798 150.52 156.378 146.686 156.378 142.852ZM156.378 142.852C156.378 146.686 158.082 150.378 160.78 152.934C163.478 155.49 167.17 157.052 170.862 156.91C174.554 156.768 178.246 155.348 180.944 152.792C183.642 150.236 185.204 146.544 185.204 142.71C185.204 139.018 183.784 135.184 181.086 132.486C178.388 129.788 174.696 128.368 170.862 128.51C167.17 128.51 163.478 130.072 160.78 132.628C158.082 135.326 156.378 139.018 156.378 142.852Z" fill="#070201"/>
<path d="M138.77 141.29H157.372V143.278H138.77V141.29Z" fill="#070201"/>
</g>
<defs>
<clipPath id="clip0_2711_576">
<rect width="284" height="284" fill="white" transform="translate(6)"/>
</clipPath>
</defs>
</svg>
