<svg width="600" height="600" viewBox="0 0 600 600" fill="none" xmlns="http://www.w3.org/2000/svg">
<g clip-path="url(#clip0_2374_2)">
<path d="M505.5 658.5L500.4 594C500.4 594 502.5 567 474 548.1C445.5 529.2 403.8 517.8 385.5 505.5C367.2 493.2 357.9 492 358.5 454.8C359.1 417.6 361.2 333.9 361.2 333.9H238.8C238.8 333.9 240.9 417.6 241.5 454.8C242.1 492 232.8 493.2 214.5 505.5C196.2 517.8 154.5 529.2 126 548.1C97.5 567 99.6 594 99.6 594L94.8 658.5H505.5Z" fill="#875732"/>
<path opacity="0.65" d="M300 491.7C317.88 491.7 339.9 477.75 358.59 463.8C358.5 461.04 358.47 458.07 358.5 454.8C359.1 417.6 361.2 333.9 361.2 333.9H238.8C238.8 333.9 240.9 417.6 241.5 454.8C241.56 458.07 241.53 461.04 241.41 463.8C260.1 477.75 282.12 491.7 300 491.7Z" fill="#683712"/>
<path d="M221.4 527.7C236.7 536.4 256.8 543.3 274.2 544.8C275.4 544.8 275.4 543 274.5 542.7C266.1 539.4 256.8 537.6 248.1 534.9C239.4 532.2 230.7 528.9 221.7 526.8C221.4 526.5 220.8 527.4 221.4 527.7ZM327 546.3C342.9 544.5 360.9 537.3 374.7 528.9C375.6 528.3 375 527.1 374.1 527.4C366.3 530.1 358.5 533.4 350.7 536.1C342.9 538.8 334.5 540.6 326.7 543.6C325.2 543.9 325.2 546.3 327 546.3Z" fill="#683712"/>
<path d="M505.2 658.2L498.9 594C498.9 587.4 497.4 580.5 494.4 574.2C491.7 567.9 487.5 562.5 482.7 557.7C477.9 552.9 472.2 549.3 466.2 545.7C460.2 542.1 453.9 539.1 447.6 536.4C435 530.7 421.8 525.6 408.9 520.2C402.3 517.5 396 514.5 389.7 511.2C386.4 509.4 383.4 507.6 380.7 505.5C377.7 503.7 374.7 501.9 371.7 499.8C368.7 497.7 365.7 495.3 363.3 492C360.9 489 359.4 485.4 358.2 481.8C356.1 474.6 355.8 467.4 355.8 460.2C355.8 446.1 356.4 432 356.7 417.9C357.3 389.7 358.5 361.8 359.4 333.9L361.2 335.7L300 335.1L238.8 334.8L239.7 333.9L241.8 417.9C242.1 432 242.7 445.8 243 459.9C243 467.1 242.7 474 240.6 481.2C239.7 484.8 237.9 488.1 235.8 491.1C233.4 494.1 230.7 496.5 227.7 498.6C224.7 500.7 221.7 502.5 219 504.6C216.3 506.4 213.3 508.5 210 510.3C203.7 513.9 197.4 516.6 190.8 519.6C177.9 525.3 165 530.4 152.4 536.4C146.1 539.4 139.8 542.7 134.1 546C128.1 549.6 122.7 553.2 117.9 558C113.1 562.8 109.2 568.2 106.5 574.2C105.3 577.2 104.1 580.5 103.5 583.5C102.9 586.8 102.3 590.1 102.6 593.1V593.7L98.1 658.2L95.1 654.9L197.1 655.2C231 655.2 265.2 655.5 299.4 655.8L402 656.7L505.2 658.2ZM505.8 658.8L403.8 660L301.2 660.9C267 661.2 232.5 661.5 198 661.5L94.8 661.8H91.5L91.8 658.5L96.9 594V594.3C96.6 579 103.5 564.9 114 554.4C119.1 549.3 125.4 545.1 131.4 541.5C137.4 537.9 144 534.9 150.3 531.9C163.2 525.9 176.4 520.8 189.3 515.7C195.6 513 202.2 510.3 208.2 507C211.2 505.5 213.9 503.7 217.2 501.6C220.2 499.8 223.2 498 225.9 495.9C228.6 494.1 231.3 491.7 233.1 489.3C235.2 486.6 236.7 483.6 237.6 480.6C239.4 474.3 240 467.1 240 460.2C240 446.4 239.7 432.3 239.4 418.2L237.6 334.2V333.3H238.5L299.7 333L360.9 332.4H362.7V334.2C362.4 362.1 362.1 390.3 361.5 418.2C361.2 432.3 360.9 446.4 360.9 460.2C361.2 467.1 361.5 474 363.3 480.3C364.2 483.6 365.7 486.3 367.5 489C369.3 491.4 371.7 493.8 374.7 495.6C377.4 497.4 380.4 499.5 383.4 501.3C386.4 503.4 389.1 505.2 392.1 506.7C398.1 510 404.4 513 411 515.7C423.9 521.1 436.8 526.5 449.7 532.5C456 535.5 462.3 538.8 468.3 542.4C474.3 546 480.3 550.2 485.4 555.3C495.6 565.5 502.2 579.6 501.6 594.3V594L505.8 658.8ZM167.4 657.6L173.1 616.2L173.4 657.6H167.4ZM433.2 657.6L427.5 616.2L427.2 657.6H433.2Z" fill="#592A06"/>
<path d="M516 660C516 660 512.1 608.4 508.2 591.9C504.3 575.4 496.2 554.1 492.9 551.7C489.6 549 487.2 550.5 487.2 550.5C487.2 550.5 483.9 547.8 473.7 540.3C463.5 532.8 418.2 518.7 412.5 514.8C406.8 510.9 381.9 500.7 381.9 500.7L382.5 493.8C382.5 493.8 374.7 488.1 372.3 483.6C369.9 479.1 368.4 472.8 368.4 472.8L367.2 465.3C367.2 465.3 365.4 471.3 364.2 475.2C363 479.1 361.2 494.7 359.7 501.6C358.8 506.1 353.1 515.4 349.2 519.9C344.7 524.7 337.8 528.9 330.9 532.5C320.7 537.9 316.5 539.7 314.7 541.8C312.9 543.9 312 550.5 309 559.8L305.7 567.6C305.7 567.6 297 555.9 292.2 548.4C287.4 540.9 282.9 538.2 280.2 538.2C277.5 538.2 263.1 538.5 261.9 537.6C260.7 536.7 256.5 532.5 254.7 529.2C252.6 525.9 244.5 504.9 242.4 500.7C240.3 496.5 236.4 479.1 235.2 475.2C234.3 471.3 233.4 465.9 233.4 465.9L232.2 469.2C232.2 469.2 229.8 479.4 227.1 483.9C224.7 488.4 216.9 494.1 216.9 494.1L217.5 501C217.5 501 192.6 511.2 186.9 515.1C181.2 519 135.9 533.1 125.7 540.6C115.5 548.1 112.2 550.8 112.2 550.8C112.2 550.8 109.8 549.6 106.5 552C103.2 554.7 95.1 575.7 91.2 592.2C87.3 608.7 84 660 84 660" fill="#864025"/>
<path d="M491.7 557.1C491.4 555.9 489.3 556.5 489.6 557.7C498.3 585.9 501.9 615 506.7 644.1C506.7 644.7 507.9 644.4 507.9 643.8C509.7 613.8 502.2 585 491.7 557.1ZM482.4 553.8C475.5 568.2 471.6 584.4 470.7 600.3C470.7 600.9 471.6 600.9 471.6 600.3C474 584.1 477.9 569.4 483.3 553.8C483.3 553.8 482.7 553.5 482.4 553.8ZM303.6 591.3C303 591 302.4 590.7 303 590.1C303.9 589.2 302.7 588 301.8 588.3C298.8 589.5 301.5 594.6 303.9 592.5C304.2 592.2 303.9 591.6 303.6 591.3ZM302.4 640.5C302.4 639.9 301.8 639.6 301.2 640.2C299.4 641.7 301.2 645 303.3 644.1C303.6 644.1 303.6 643.5 303.3 643.5C303 642.3 302.4 641.7 302.4 640.5ZM323.1 546.9C322.2 546.9 321 546.6 321 545.4C321 544.8 319.8 544.5 319.8 545.1C319.5 546.3 319.8 547.2 320.7 547.8C321.6 548.4 322.8 548.4 323.4 547.8C324 547.5 323.7 546.9 323.1 546.9ZM254.4 536.4C247.5 540.6 241.2 546.6 235.2 552C229.5 557.7 222.9 563.4 219 570.6C218.7 571.2 219.3 571.5 219.9 571.2C226.2 565.8 231 559.2 237 553.5C243 547.8 249.6 543 255.6 537.3C255.9 537 255 536.1 254.4 536.4ZM117.9 553.2C120.9 575.4 129.3 597 132.9 619.5C132.9 619.8 133.2 619.8 133.2 619.5C132 597.9 130.2 572.1 119.1 553.2C118.8 552.3 117.6 552.6 117.9 553.2ZM109.8 555C97.7999 578.7 91.2 607.2 91.2 633.6C91.2 634.2 92.4 634.5 92.4 633.9C96.2999 606.6 102.3 582 111.3 555.9C111.9 554.7 110.4 554.1 109.8 555ZM390.3 567.9C382.8 543.3 378 520.8 377.4 495C377.4 494.1 376.2 494.1 375.9 495C373.8 518.1 377.4 543.9 387 565.5C379.5 556.2 371.1 547.2 362.7 539.1C356.7 533.4 350.1 526.8 341.1 530.4C340.2 530.7 340.5 532.2 341.7 532.2C352.2 529.8 361.8 545.4 368.4 551.7C375 558 381.3 564.9 388.2 570.6C389.1 571.2 390.6 570.3 390 569.4C390.3 568.8 390.6 568.5 390.3 567.9ZM351.9 525.6C362.1 516 369.6 498.9 366.3 484.5C366 483.9 365.1 483.9 365.1 484.8C364.2 492 364.2 499.2 361.5 506.1C359.1 513 355.2 519.3 351 525C350.7 525.3 351.6 525.9 351.9 525.6ZM389.1 513.9C414.9 528.3 444 538.2 471.6 548.4C472.5 548.7 473.1 547.2 472.2 546.9C447 532.5 418.8 517.8 390 511.2C388.8 510.9 387.6 513 389.1 513.9Z" fill="#955238"/>
<path d="M474.9 604.8C474.3 613.5 474 621.9 474 630.6V643.5C474.3 647.7 474.3 652.2 474.6 656.4C474.9 652.2 475.2 647.7 475.5 643.5L476.4 630.6L478.2 605.1C478.8 596.7 479.7 588.3 481.2 579.9C482.1 575.7 483 571.5 484.2 567.6C485.4 563.4 486.6 559.5 488.4 555.3C484.2 562.8 481.2 570.9 479.1 579.3C476.4 587.7 475.5 596.1 474.9 604.8ZM321.3 543.9C323.1 543.9 324.9 545.4 324.9 547.5C324.9 549.6 323.4 551.1 321.3 551.1C319.2 551.1 317.7 549.6 317.7 547.5C317.7 545.4 319.5 543.9 321.3 543.9ZM302.7 587.1C304.5 587.1 306.3 588.6 306.3 590.7C306.3 592.8 304.8 594.3 302.7 594.3C300.6 594.3 299.1 592.8 299.1 590.7C299.1 588.6 300.9 587.1 302.7 587.1ZM302.4 638.4C304.2 638.4 306 639.9 306 642C306 644.1 304.5 645.6 302.4 645.6C300.3 645.6 298.8 644.1 298.8 642C298.8 639.9 300.6 638.4 302.4 638.4ZM514.5 630.6C513.9 620.7 513 610.8 511.8 601.2C510.6 591.3 507.9 581.7 504.9 572.1C503.4 567.3 501.6 562.8 499.5 558C498.3 555.6 497.4 553.5 495.9 551.1C494.7 549.6 493.5 548.7 492 548.1C491.1 547.8 490.2 547.5 489.3 547.5H488.1L477.3 539.1C475.5 537.6 473.1 536.1 471 534.9C468.6 533.7 466.5 532.5 464.4 531.6C455.4 527.4 446.1 524.1 437.1 520.8L423.3 515.7C420.9 514.8 418.8 513.9 416.7 513C416.1 512.7 415.5 512.4 415.2 512.4C414.9 512.1 414.3 512.1 413.7 511.5C412.5 510.9 411.3 510.3 410.4 509.7C402 505.5 393.3 502.2 384.6 498.6L384.9 492.9C384.9 492.3 384.6 491.7 384.3 491.4C382.2 489.9 380.1 488.1 378 486.3C377.1 485.4 376.2 484.5 375.3 483.3C374.4 482.4 373.8 481.2 373.2 480C372 477.6 371.1 474.9 370.5 472.2C369.9 469.5 369.6 466.8 369 464.1C369 463.8 368.7 463.5 368.4 463.2C365.4 460.8 361.8 460.5 361.8 460.5C361.2 465.9 362.7 474.6 363 476.7C363 477.3 362.7 477.9 362.7 478.5L360.6 493.2C360.3 495.6 360 498 359.4 500.4C358.8 502.5 357.9 504.9 356.7 507C354.3 511.2 351.9 515.4 348.6 519C341.7 525.9 332.7 529.8 324 534.3C321.9 535.5 319.5 536.4 317.4 537.9C316.2 538.5 315 539.4 314.4 540.6C313.5 541.8 313.2 543 312.9 544.2C311.4 549 310.2 553.8 308.7 558.3L306.6 563.4L298.8 551.7C295.5 547.2 293.1 541.8 288 537.9C286.8 537 285.3 536.1 283.5 535.5C282.6 535.2 281.4 535.2 280.8 535.2H278.7L270.3 534.9C268.8 534.9 267.6 534.9 266.1 534.6C265.5 534.6 264.9 534.6 264.3 534.3C264 534.3 264 534 263.7 533.7C261.9 531.9 260.1 529.8 258.6 527.4C257.4 525.6 256.2 522.6 255.3 520.2L252 512.4L245.7 496.8C243.9 491.7 242.7 486 241.2 480.6L239.7 475.8L239.4 474.9C239.7 474.3 240 473.1 240.3 471.6C240.6 468.6 240.9 459.6 240.9 459.6C240.9 459.6 234.9 460.8 233.4 462C232.8 462.3 231.9 462.9 231.6 463.8L230.4 467.1V467.4C229.8 469.8 229.2 472.2 228.3 474.3C227.7 476.7 226.8 478.8 225.6 480.9C224.7 482.7 223.2 484.2 221.4 486C219.6 487.5 217.8 489.3 216 490.5C215.1 491.1 214.8 492.3 214.8 493.2L215.4 498C207 501.6 198.9 504.9 190.5 509.1C189.3 509.7 188.4 510.3 187.2 510.9L186.3 511.5L185.7 511.8C185.4 512.1 184.8 512.1 184.2 512.4C182.1 513.3 179.7 514.2 177.6 515.1L163.8 520.2C154.5 523.5 145.5 527.1 136.5 531C134.1 531.9 132 533.1 129.9 534.3C127.8 535.5 125.1 537 123.3 538.5L112.8 546.9H111.6C110.7 546.9 109.8 547.2 108.9 547.5C107.4 548.1 105.9 549 105 550.5C103.2 552.9 102.3 555.3 101.4 557.4C99.3 561.9 97.5 566.7 96 571.5C93 580.8 90.3 590.7 89.1 600.6C87.9 610.5 87 620.4 86.4 630C85.8 639.9 85.2 649.8 84.6 659.4H85.2C86.1 649.5 87.3 639.9 88.5 630C89.7 620.4 90.9 610.5 92.4 600.9C93.9 591.3 96.9 582 100.2 572.7L105.6 559.2C106.5 557.1 107.7 554.7 108.9 553.2C109.2 552.6 110.1 552 110.7 552C111 552 111.3 551.7 111.6 551.7H112.2L114 551.4C115.2 555 116.4 558.6 117.6 562.5C118.8 567 120 571.2 120.9 575.7C123 584.7 124.5 593.7 125.7 602.7C126.9 611.7 128.1 621 129 630C129.6 634.5 129.9 639.3 130.5 643.8C131.1 648.3 131.4 653.1 131.7 657.6C132.3 648.3 132 639 131.4 630C130.8 620.7 129.9 611.7 128.7 602.4C127.5 593.1 125.7 584.1 123.3 575.1C120.9 567 118.2 558.9 114.3 551.1H114.9L126.6 542.4C128.7 540.9 130.2 539.7 132.3 538.8C134.4 537.6 136.5 536.7 138.9 535.8C147.9 532.2 156.9 528.9 166.2 525.3L180 520.2C182.4 519.3 184.5 518.4 186.9 517.5L188.7 516.6L189.6 516L190.2 515.7C191.1 515.1 192.3 514.5 193.2 514.2C201.3 510.3 210 506.7 218.4 503.1C218.7 507.3 219 511.5 218.7 515.4C218.7 519.3 218.4 522.9 218.1 526.8C217.5 530.4 216.9 534 216 537.9C214.5 545.4 213.3 553.2 211.8 560.7C210.3 568.2 209.4 576 207.9 583.5C207.9 584.4 207.9 585.3 208.5 585.9C209.4 587.1 211.5 587.1 212.7 586.2C217.2 582.3 221.4 578.1 225.6 573.9C229.8 569.7 234 565.5 237.9 561.3C240 559.2 241.8 556.8 243.6 554.4L246.3 550.8C246.9 549.6 247.8 548.4 248.7 547.5L250.2 546C257.1 550.2 264.6 552.9 272.4 554.7C275.1 555.3 278.1 555.9 280.8 556.2C282.6 561.6 285 566.4 287.7 571.2L289.5 574.8C290.1 576 290.4 577.5 291.3 578.7C292.2 580.8 293.4 582.9 294.6 585.3C294.3 586.2 294 586.8 293.7 588C293.1 592.2 293.4 596.4 293.4 600.3L294 612.3C294.3 616.2 294 620.1 294 624.3C294 628.2 294 632.4 294.3 636.3L294.6 648.3C294.9 652.2 294.9 656.4 295.2 660.3C295.5 656.4 295.8 652.2 296.1 648.3L296.7 636.3C297 628.2 297.3 620.4 297 612C296.7 607.8 296.4 603.9 296.4 600C296.1 596.1 295.8 591.9 296.1 588.3C296.1 586.8 297.3 584.7 298.2 582.9L300.9 577.5C302.4 574.2 304.2 571.2 305.4 568.2C306.3 568.5 307.2 568.2 307.5 567.3L310.5 559.5C310.8 558.6 310.8 558 311.1 557.1C314.4 557.4 317.4 557.1 320.7 556.5C323.4 556.2 326.1 555.3 328.8 554.7C324.6 562.5 320.4 570.3 316.5 578.1C314.4 582.3 311.7 585.9 309.3 590.1C308.1 592.2 306.9 594.6 306.9 597.3C306.9 599.7 306.9 602.1 307.2 604.5C307.8 613.8 308.7 623.1 309.3 632.4C309.6 636.9 309.6 641.7 309.6 646.2C309.9 651 309.9 655.5 310.2 660.3C310.8 651 311.4 641.7 311.4 632.1C311.1 622.8 310.5 613.5 309.9 604.2C309.6 601.8 309.6 599.4 309.6 597.3C309.6 595.2 310.5 593.4 311.4 591.3C313.5 587.4 316.2 583.2 318 579C321.6 570.9 325.2 562.8 328.5 554.4C329.4 554.1 330.3 553.8 330.9 553.8C334.5 552.6 337.8 551.1 340.8 549C343.8 547.2 346.5 544.8 349.2 542.4C345.9 543.9 343.2 545.7 339.9 546.9C336.6 548.4 333.3 549.9 330 551.1C323.7 553.5 317.4 555 310.8 556.5C311.7 552.6 312.9 548.7 313.8 545.1C314.1 543.9 314.4 542.7 315 542.1C315.6 541.2 316.5 540.6 317.4 540L323.7 536.4C325.8 535.5 327.6 534.3 329.7 533.4C332.4 533.1 335.1 533.1 337.8 533.7C339.6 534 341.1 534.6 342.3 535.8C343.8 537 345 538.2 346.2 539.4L349.2 542.4C353.1 546.6 356.7 551.4 360.6 555.9C365.7 561.9 371.7 566.1 377.7 570.6C383.7 575.1 390 579 396.3 582.9C396.9 583.2 397.8 583.5 398.4 583.2C399.9 582.9 401.1 581.4 400.5 579.6C399 573 397.2 566.4 395.7 559.8C394.2 553.2 392.4 546.6 390.6 540C388.8 533.4 387 526.8 385.5 520.2C384.3 514.5 383.1 508.8 382.5 503.1C390.6 506.7 399 510.3 406.5 514.5C407.7 515.1 408.6 515.7 409.5 516.3C409.8 516.6 410.4 516.9 411.3 517.2C412.2 517.5 412.5 517.8 413.1 518.1C415.5 519.3 417.6 519.9 420 520.8L433.8 525.9L447.6 531C452.1 532.8 456.6 534.3 461.1 536.4C463.2 537.3 465.6 538.2 467.4 539.4C469.5 540.6 471.3 541.5 473.1 543L484.8 551.7L487.5 552H488.1C488.4 552 488.7 552 489.3 552.3C489.9 552.6 490.8 553.2 491.1 553.5C492.3 555 493.5 557.4 494.4 559.5C496.5 564 498 568.5 499.8 573C503.1 582.3 506.1 591.6 507.6 601.2C509.1 610.8 510.3 620.7 511.5 630.3L514.8 659.7H515.4C516 650.1 515.4 640.2 514.5 630.6ZM246.9 546.3C245.7 547.5 244.8 548.4 243.9 549.6C243 550.8 242.1 551.7 241.2 552.9C239.1 555 237 557.1 234.9 558.9C230.7 563.1 226.2 566.7 222 570.6L215.1 576.9C216 572.1 216.9 567.3 217.5 562.2C218.7 554.7 219.9 546.9 221.1 539.4C221.7 535.8 222.3 531.6 222.6 527.7C222.9 523.8 222.9 519.9 222.6 516C222.3 511.2 221.7 506.7 220.8 502.2C221.4 501.6 221.7 500.7 221.4 499.8L220.8 494.4C222.3 493.2 223.8 491.7 225.3 490.5C227.1 488.7 229.2 486.6 230.7 483.9C231.9 481.5 232.8 479.1 233.4 477L234.9 482.4C236.4 487.8 237.6 493.5 239.7 498.9L246.3 514.8L249.6 522.6L251.4 526.5L252.3 528.6C252.6 529.2 253.2 530.1 253.5 530.7C255.3 533.4 257.1 535.5 259.5 537.6L259.8 537.9C255.3 540.3 250.8 542.7 246.9 546.3ZM273.3 552.3C265.8 550.5 258.3 548.7 250.5 546.6C253.2 543.6 256.8 540.9 260.1 538.8L260.4 539.1C260.7 539.4 260.7 539.4 261.3 539.7C261.9 540 262.5 540 262.5 540C263.4 540.3 264.3 540.3 264.9 540.3H281.1C282 540.6 283.2 541.2 284.1 541.8C288 544.8 291 549.9 294.3 554.4L295.8 556.2C292.2 555.6 288.6 555.3 284.7 554.7C281.1 553.8 277.2 553.2 273.3 552.3ZM299.4 577.2C298.5 579 297.3 580.5 296.4 582.3C295.8 583.2 295.5 584.1 294.9 584.7C294.6 582.6 294 580.2 293.4 578.1C293.1 576.6 292.5 575.4 292.2 573.9C291.6 572.4 291 571.2 290.4 569.7C287.7 564.9 284.7 560.1 281.1 555.9C282.3 555.9 283.5 556.2 284.7 556.2C288.6 556.5 292.5 556.2 296.1 555.6L304.5 567.3C304.5 567.6 304.8 567.6 305.1 567.6L299.4 577.2ZM384.3 531.3L386.4 541.2C387.9 547.8 389.4 554.4 390.9 561.3C392.1 565.5 393 570 393.9 574.2C389.7 571.5 385.5 568.8 381.6 566.1L372.6 559.8C369.6 557.7 366.9 555.3 364.5 552.9C359.4 547.5 354.3 542.1 348.6 537.3C347.1 536.1 345.6 534.9 344.1 534C342.3 532.8 340.5 532.2 338.4 532.2C336 531.9 333.9 532.2 331.8 532.8C338.1 529.5 344.4 525.9 349.5 520.8C353.1 517.2 355.5 512.7 357.9 508.5C359.1 506.4 360.3 504 360.9 501.6C361.5 499.2 361.8 496.8 362.4 494.4L364.8 479.7C365.1 478.5 365.1 477.3 365.4 476.1L366.3 472.5L366.9 470.7C367.2 471.6 367.2 472.5 367.5 473.7C368.1 476.4 369 479.4 370.2 482.1C370.8 483.3 371.4 484.8 372.3 486C373.2 487.2 374.1 488.4 375.3 489.3C377.1 491.1 378.9 492.9 381 494.4L380.4 500.4C380.4 501 380.7 501.9 381.3 502.2C381.3 508.5 381.9 514.8 382.8 521.1C383.1 524.7 383.7 528 384.3 531.3Z" fill="#672208"/>
<path d="M192.6 288.9C192 288 183.3 276.9 176.1 270C168.6 263.1 166.5 263.4 162.9 267.6C159.3 271.8 154.8 293.1 156 302.7C157.2 312.3 165.9 327.3 170.7 335.7C175.5 344.1 180 354.6 185.1 353.7C190.5 352.8 197.7 340.8 201 331.8C204.6 322.8 202.8 300.9 192.6 288.9Z" fill="#875732"/>
<path d="M203.7 314.4C204 316.8 204.3 319.2 204.3 321.6C204.3 324 204.3 326.4 203.7 328.8L202.8 332.4C202.5 333.6 201.9 334.5 201.6 335.4C200.7 337.5 199.8 339.3 198.9 341.4C196.8 345 194.7 348.6 191.7 351.6C190.2 353.1 188.7 354.6 186.6 355.2C185.7 355.5 184.2 355.5 183 355.2C181.8 354.6 180.9 354 180 353.1C176.4 349.5 174.6 345.3 172.5 341.1C170.4 336.9 168.3 333 166.2 328.8C164.1 324.6 162 320.4 160.2 316.2C159.3 314.1 158.4 312 157.5 309.6C156.6 307.5 156 305.1 155.7 302.7C155.1 297.9 155.7 293.1 156 288.6C156.6 284.1 157.2 279.6 158.4 275.1C159 273 159.6 270.6 160.5 268.5C160.8 267.9 161.1 267.6 161.4 267C161.7 266.4 162 265.8 162.3 265.5C162.9 264.6 163.8 264 164.7 263.4C165.6 262.8 166.8 262.5 168 262.5C169.2 262.8 170.1 263.1 171.3 263.7C173.1 264.9 174.6 266.4 176.4 267.9C182.4 274.2 187.5 281.4 193.2 288.3C198.6 295.8 201.9 305.1 203.7 314.4ZM174.9 270.6C171.9 268.2 168.3 265.5 166.2 267C165.6 267.3 165 267.9 164.4 268.8C164.1 269.1 163.8 269.4 163.8 269.7C163.5 270 163.5 270.6 163.2 270.9C162.3 272.7 161.7 274.5 161.1 276.6C159.9 280.5 158.7 285 157.8 289.2C156.9 293.4 156.3 298.2 156.6 302.4C156.9 304.5 157.5 306.9 158.1 309L160.8 315.3C162.6 319.5 165 323.4 167.4 327.3C169.8 331.2 172.2 335.1 174.3 339C175.5 341.1 176.4 342.9 177.6 344.7C178.8 346.5 180 348.3 181.2 349.5C182.4 350.7 183.6 351.3 184.8 350.7C186 350.1 187.5 349.2 188.7 347.7C191.1 345 193.2 341.7 195.3 338.1L198 332.7C198.3 331.8 198.9 330.9 199.2 330L199.8 328.8C199.8 328.2 200.1 327.9 200.1 327.3C201 323.4 201 318.9 201 314.4C200.7 309.9 200.1 305.4 198.6 300.9C197.1 296.4 195 292.2 192.3 288.9C187.2 282.3 181.2 275.7 174.9 270.6Z" fill="#784620"/>
<path d="M162.3 307.2C161.7 300.9 161.1 285 164.7 280.2C170.7 272.1 181.5 298.5 184.2 306.6C184.2 306.9 184.5 307.2 184.5 307.2C184.8 308.1 184.2 309.3 183.3 309C182.1 308.4 180.9 307.2 179.7 306.6C176.4 305.1 175.2 307.8 176.1 311.7C177.3 316.8 180 319.8 182.4 323.7C182.7 324.3 182.4 324.9 181.8 324.6C177.3 321.9 171.9 312 173.1 306C174 300.6 178.5 300.9 181.8 303.6C179.7 298.8 177.6 294.3 174.9 290.1C173.1 287.4 171.6 284.4 168.9 284.1C165.6 283.5 166.2 285 165.6 289.2C163.2 303 164.7 318.3 172.8 330.3C173.1 330.6 172.8 330.9 172.5 330.6C166.5 324 163.2 316.5 162.3 307.2Z" fill="#683712"/>
<path d="M407.4 288.9C408 288 416.7 276.9 423.9 270C431.4 263.1 433.5 263.4 437.1 267.6C440.7 271.8 445.2 293.1 444 302.7C442.8 312.3 434.1 327.3 429.3 335.7C424.5 344.1 420 354.6 414.9 353.7C409.5 352.8 402.3 340.8 399 331.8C395.4 322.8 397.2 300.9 407.4 288.9Z" fill="#875732"/>
<path d="M407.1 288.9C412.5 282 417.6 274.8 423.9 268.5C425.4 267 426.9 265.5 429 264.3C429.9 263.7 431.1 263.1 432.3 263.1C433.5 262.8 434.7 263.4 435.6 264C436.5 264.6 437.4 265.5 438 266.1C438.3 266.4 438.6 267 438.9 267.6C439.2 268.2 439.5 268.5 439.8 269.1C440.7 271.2 441.3 273.3 441.9 275.7C443.1 280.2 443.7 284.7 444.3 289.2C444.6 293.7 445.2 298.5 444.6 303.3C444.3 305.7 443.7 308.1 442.8 310.2C441.9 312.6 441 314.7 440.1 316.8C438.3 321 436.2 325.2 434.1 329.4C432 333.6 429.9 337.5 427.8 341.7C425.7 345.9 423.6 350.1 420.3 353.7C419.4 354.6 418.5 355.5 417.3 355.8C416.1 356.1 414.6 356.4 413.7 355.8C411.6 355.2 410.1 353.7 408.6 352.2C405.6 349.2 403.5 345.6 401.4 342C400.5 340.2 399.6 338.1 398.7 336C398.4 335.1 397.8 333.9 397.5 333L396.6 329.4C396.3 327 396 324.6 396 322.2C396 319.8 396.3 317.4 396.6 315C398.1 305.1 401.4 295.8 407.1 288.9ZM407.4 289.2C404.7 292.5 402.6 296.7 401.1 301.2C399.6 305.7 399 310.2 398.7 314.7C398.4 319.2 398.7 323.7 399.6 327.6C399.6 328.2 399.9 328.5 399.9 329.1L400.5 330.3C400.8 331.2 401.4 332.1 401.7 333L404.4 338.4C406.2 342 408.6 345.3 411 348C412.2 349.2 413.7 350.4 414.9 351C416.1 351.6 417.3 351 418.5 349.8C419.7 348.6 420.9 346.8 422.1 345C423.3 343.2 424.5 341.1 425.4 339.3C427.5 335.4 430.2 331.5 432.3 327.6C434.7 323.7 436.8 319.8 438.9 315.6L441.6 309.3C442.5 307.2 443.1 304.8 443.1 302.7C443.4 298.2 442.8 293.7 441.9 289.5C441 285.3 440.1 280.8 438.6 276.9C438 274.8 437.1 273 436.5 271.2C436.2 270.9 436.2 270.3 435.9 270C435.6 269.7 435.6 269.4 435.3 269.1L433.5 267.3C431.4 265.5 428.1 268.5 424.8 270.9C418.8 275.7 412.8 282.3 407.4 289.2Z" fill="#784620"/>
<path d="M437.7 307.2C438.3 300.9 438.9 285 435.3 280.2C429.3 272.1 418.5 298.5 415.8 306.6C415.8 306.9 415.5 307.2 415.5 307.2C415.2 308.1 415.8 309.3 416.7 309C417.9 308.4 419.1 307.2 420.3 306.6C423.6 305.1 424.8 307.8 423.9 311.7C422.7 316.8 420 319.8 417.6 323.7C417.3 324.3 417.6 324.9 418.2 324.6C422.7 321.9 428.1 312 426.9 306C426 300.6 421.5 300.9 418.2 303.6C420.3 298.8 422.4 294.3 425.1 290.1C426.9 287.4 428.4 284.4 431.1 284.1C434.4 283.5 433.8 285 434.4 289.2C436.8 303 435.3 318.3 427.2 330.3C426.9 330.6 427.2 330.9 427.5 330.6C433.5 324 436.8 316.5 437.7 307.2Z" fill="#683712"/>
<path d="M300.03 124.08C235.83 124.08 180.6 170.7 177 256.2C177 256.2 177.6 318.6 185.4 360.6C189.9 384.6 197.4 395.7 216.9 411.6C236.4 427.8 272.97 458.52 299.97 458.52C326.97 458.52 363.6 427.8 383.1 411.6C402.6 395.4 410.1 384.6 414.6 360.6C422.4 318.6 423 256.2 423 256.2C419.4 171 364.23 124.08 300.03 124.08Z" fill="#875732"/>
<path d="M300 123.9C235.8 123.9 180.6 170.7 177 256.2C177 256.2 177.6 318.6 185.4 360.6C189.9 384.6 197.4 395.7 216.9 411.6C236.4 427.8 273 459 300 459C327 459 363.6 427.8 383.1 411.6C402.6 395.4 410.1 384.6 414.6 360.6C422.4 318.6 423 256.2 423 256.2C419.4 171 364.2 123.9 300 123.9ZM406.5 203.7C407.1 205.8 408 208.2 408.6 210.3L409.5 213.6C409.8 214.8 410.1 216 410.4 216.9L411.3 220.2L411.9 223.5L412.5 226.8L413.1 230.1L413.7 233.4L414 237L414.3 240.6C414.3 241.8 414.6 243 414.6 244.2C414.9 246.6 414.9 249 415.2 251.1L415.5 254.4V258C415.2 267.6 414.9 277.2 414.3 286.8C413.4 306 411.9 325.2 409.5 344.1L408.6 351.3L407.4 358.2C406.5 362.7 405.6 367.2 404.4 371.4C403.2 375.6 401.7 379.5 399.6 383.4C397.5 387 395.1 390.6 392.1 393.9C389.1 397.2 385.8 400.5 382.2 403.5C378.6 406.5 375 409.8 371.4 412.8C364.2 419.1 356.7 425.1 349.2 430.8C345.3 433.8 341.7 436.5 337.5 438.9C333.6 441.6 329.7 444 325.5 446.1C321.3 448.2 317.1 450.3 312.9 451.8C308.7 453.3 304.2 454.2 300 454.5C295.8 454.5 291.3 453.9 286.8 452.7C282.3 451.5 278.1 449.7 273.6 447.6C269.4 445.5 265.2 443.4 261 441C256.8 438.6 252.9 435.9 249 433.2C245.1 430.5 241.2 427.5 237.3 424.8C233.4 421.8 229.8 418.8 225.9 415.8C218.4 409.5 210.9 403.8 204.6 396.6C201.6 393 198.6 389.4 196.5 385.2C194.4 381 192.6 376.8 191.4 372.3C190.2 367.8 189.3 363 188.7 358.5L187.8 351.3L187.2 344.1C185.4 324.9 184.8 305.7 184.2 286.5L183.9 272.1L183.6 257.7V254.1L183.9 250.8C183.9 248.4 184.2 246.3 184.5 243.9C184.5 242.7 184.8 241.5 184.8 240.3L185.4 236.7L186 233.1L186.6 229.8L187.2 226.5L187.8 223.2L188.4 219.9L189.3 216.6C189.6 215.4 189.9 214.2 190.2 213.3L191.1 210C191.7 207.9 192.6 205.5 193.2 203.4C196.2 194.7 200.1 186 204.9 178.2C209.7 170.1 215.4 162.6 222 156C228.6 149.4 236.1 143.4 244.5 138.6C248.7 136.2 252.9 134.1 257.4 132.3C259.5 131.4 261.9 130.5 264 129.9C265.2 129.6 266.4 129.3 267.3 129L270.9 128.1L274.5 127.2L276.3 126.9L278.1 126.6L282 126C283.2 125.7 284.4 125.7 285.6 125.4C295.163 124.204 304.837 124.204 314.4 125.4C315.6 125.7 316.8 125.7 318 126L321.6 126.6L323.4 126.9L325.2 127.2L328.8 128.1L332.4 129C333.6 129.3 334.8 129.6 335.7 129.9C338.1 130.8 340.2 131.4 342.3 132.3C346.8 134.1 351 136.2 355.2 138.6C363.6 143.4 371.1 149.1 377.7 156C384.3 162.6 390 170.1 394.8 178.2C399.6 186.6 403.5 195 406.5 203.7Z" fill="#592A06"/>
<path d="M264 396C264 396 264.9 392.1 272.1 386.7C279.3 381.3 294 378 306.6 378.9C319.2 379.8 331.2 387.9 336 394.8C336 394.8 336.9 396.9 334.5 400.8C332.1 405 325.8 413.4 308.4 413.7C291 414 281.1 413.4 273.6 408.9C265.8 404.4 263.7 396.6 264 396Z" fill="#904539"/>
<path d="M342 391.8C328.8 397.2 316.2 392.7 302.7 392.1C296.7 391.8 290.7 392.4 284.7 393.6C276.6 395.4 267 399 260.7 391.5C258.9 389.4 255.3 393 257.4 394.8C261.9 398.4 267 399 272.7 398.4C281.4 397.2 289.5 394.5 298.5 394.5C312.9 394.5 329.7 402.6 343.5 395.1C345.6 394.5 344.1 391.2 342 391.8Z" fill="#813326"/>
<path d="M269.1 393.6C273.9 389.4 279 387.3 284.7 384.6C285.3 384.3 284.7 383.7 284.4 383.7C278.4 384.9 271.5 387.3 268.5 393C268.2 393.6 268.8 393.9 269.1 393.6Z" fill="#9F5A4F"/>
<path d="M330 401.7C324.9 404.4 320.1 407.1 314.7 408.6C309.3 410.1 303.6 410.1 297.9 410.4C297.3 410.4 297.3 411.3 297.9 411.3C308.7 413.4 322.5 410.4 330.9 402.9C331.5 402.3 330.6 401.4 330 401.7Z" fill="#9F5A4F"/>
<path d="M274.8 293.7C274.8 293.7 271.5 288.3 268.8 285.6C266.1 282.9 258.9 276.3 246.3 277.8C233.7 279.3 215.4 296.1 215.4 296.1C215.4 296.1 223.5 304.8 232.5 306.6C241.5 308.4 250.5 308.4 259.5 303.9C268.5 299.7 274.2 294.3 274.2 294.3L274.8 293.7Z" fill="white"/>
<path d="M246 273C255 273 262.2 280.2 262.2 289.2C262.2 298.2 255 305.4 246 305.4C237 305.4 229.8 298.2 229.8 289.2C229.8 280.2 237 273 246 273Z" fill="#3E4442"/>
<path d="M246 273.9C254.4 273.9 261.6 280.8 261.6 289.5C261.6 298.2 254.7 305.1 246 305.1C237.3 305.1 230.4 298.2 230.4 289.5C230.4 280.8 237.3 273.9 246 273.9ZM246 272.4C236.7 272.4 228.9 280.2 228.9 289.5C228.9 298.8 236.7 306.6 246 306.6C255.3 306.6 263.1 298.8 263.1 289.5C263.1 279.9 255.3 272.4 246 272.4Z" fill="#1B2522"/>
<path d="M237.3 294C237.3 297.9 238.8 301.5 241.5 304.2C243 304.8 244.5 304.8 246 304.8C254.4 304.8 261.6 297.9 261.6 289.2C261.6 285.9 260.7 283.2 258.9 280.8C256.8 279.6 254.4 279 252 279C243.9 279 237.3 285.6 237.3 294Z" fill="#535353"/>
<path d="M246 280.8C250.5 280.8 254.4 284.7 254.4 289.2C254.4 293.7 250.5 297.6 246 297.6C241.5 297.6 237.6 293.7 237.6 289.2C237.6 284.7 241.5 280.8 246 280.8Z" fill="black"/>
<path d="M242.1 280.8C243.6 280.8 245.1 282 245.1 283.8C245.1 285.6 243.9 286.8 242.1 286.8C240.3 286.8 239.1 285.6 239.1 283.8C239.1 282 240.6 280.8 242.1 280.8ZM251.7 294C252.3 294 252.9 294.6 252.9 295.2C252.9 295.8 252.3 296.4 251.7 296.4C251.1 296.4 250.5 295.8 250.5 295.2C250.5 294.6 251.1 294 251.7 294Z" fill="white"/>
<path d="M246 304.8C246.9 304.8 247.5 304.8 248.4 304.5C247.8 304.5 247.5 303.9 247.2 303.3C246.9 304.2 246.3 304.5 246 304.8C245.1 304.8 244.5 304.2 244.5 303.6C244.2 304.2 243.3 304.5 242.7 304.2C242.1 303.9 241.5 303.3 241.5 302.7C240.9 303.3 240.3 303.3 239.7 303C239.1 302.7 238.8 302.1 238.8 301.5C238.2 302.1 237.3 301.8 236.7 301.5C236.1 301.2 236.1 300 236.4 299.4C235.8 300 234.9 299.7 234.3 299.4C233.7 298.8 233.7 297.9 234.3 297.3C233.4 297.6 232.8 297 232.2 296.4C234.6 301.5 240 304.8 246 304.8ZM258.9 297.9C258.6 298.2 258 298.5 257.4 298.5C257.7 299.7 256.5 300.9 255 300.9C255.3 301.5 255 302.1 254.4 302.7C253.8 303 253.2 303 252.6 302.7C252.6 303.3 252.3 303.9 251.7 304.2C251.1 304.5 250.2 304.2 249.9 303.6C249.9 304.2 249.6 304.8 249.3 305.1C253.2 303.6 256.8 301.2 258.9 297.9ZM253.2 276.3C254.1 276 255 276.9 254.7 277.8C255.6 277.2 257.1 278.7 256.5 279.6C257.1 279.3 257.7 279.6 257.7 280.2C258 280.8 258 281.4 257.4 281.7C258 281.7 258.9 282 259.2 282.6C259.5 283.2 259.5 284.1 258.9 284.7C259.5 284.7 260.1 285.3 260.4 285.9C260.7 286.5 260.4 287.4 259.8 287.7C260.4 288 260.7 288.6 260.7 289.2C260.7 289.8 260.4 290.4 259.8 290.7C260.4 291 260.7 291.6 260.7 292.2C260.7 292.8 260.1 293.4 259.5 293.4C260.4 294 259.8 295.8 258.9 295.8C259.2 296.1 259.2 296.7 259.2 297.3C260.7 294.9 261.3 292.2 261.3 289.5C261.3 283.2 257.7 278.1 252.6 275.4C252.9 275.4 253.2 276 253.2 276.3ZM251.4 275.4C251.7 275.1 252 275.1 252.3 275.4C250.8 274.8 249.3 274.2 247.8 274.2V274.5C249 273.9 250.5 274.5 251.4 275.4ZM234.6 296.7C235.2 296.7 235.5 296.4 235.8 296.1C236.4 295.8 236.7 295.5 237.3 295.2V294.9C236.7 295.2 236.4 295.2 236.1 295.5C235.5 296.1 234.9 296.4 234.6 296.7ZM231 292.2C231.3 292.2 231.9 292.2 232.2 291.9C232.8 291.9 233.1 291.6 233.7 291.6C234 291.6 233.7 291.3 233.7 291.3C233.1 291.3 232.8 291.3 232.2 291.6C231.9 291.6 231.3 291.6 231 292.2ZM232.5 284.7C233.7 285.3 234.9 285.6 236.1 285.9C236.1 285.9 236.4 285.9 236.1 285.6C235.2 285 233.7 284.7 232.5 284.7ZM233.1 282.3C233.7 282.9 234.3 283.2 235.2 283.5C235.2 283.5 235.5 283.5 235.2 283.2C234.6 282.9 233.7 282.6 233.1 282.3C233.1 282 232.8 282.3 233.1 282.3ZM244.5 302.4C244.8 301.5 245.1 300.3 245.1 299.4C245.1 299.4 244.8 299.1 244.8 299.4C244.5 300.3 244.5 301.5 244.5 302.4ZM255 290.1C255.9 290.4 257.1 290.4 258.3 290.7V290.4C257.4 290.4 256.2 290.1 255 290.1ZM255.9 288C256.8 288 258 288.3 258.9 288V287.7C257.7 287.7 256.8 287.7 255.9 288ZM256.2 279.9C255.3 280.5 254.1 281.4 253.5 282.3C254.4 281.4 255.6 280.8 256.2 279.9C256.5 279.9 256.5 279.6 256.2 279.9ZM247.5 276C247.2 276.9 246.9 277.5 246.9 278.4C246.9 278.7 247.2 278.7 247.2 278.4C247.5 277.5 247.8 276.9 247.5 276C247.8 275.7 247.8 275.7 247.5 276ZM238.8 276.9C239.1 277.5 239.4 278.4 239.7 279H240C239.7 278.1 239.4 277.5 238.8 276.9C238.8 276.6 238.8 276.6 238.8 276.9Z" fill="#1B2522"/>
<path d="M212.19 294.09C212.19 314.79 226.98 331.59 245.25 331.59C263.52 331.59 278.31 314.79 278.31 294.09C278.31 273.39 263.52 256.59 245.25 256.59C226.98 256.59 212.19 273.36 212.19 294.09ZM215.61 295.89C215.61 295.89 234.06 279.18 246.48 277.71C258.9 276.24 266.25 282.96 268.92 285.63C271.59 288.3 274.8 293.76 274.8 293.76L274.32 294.24C274.32 294.24 268.71 299.49 259.65 303.78C250.59 308.07 241.56 308.19 232.65 306.39C223.74 304.59 215.61 295.89 215.61 295.89Z" fill="#875732"/>
<path d="M274.5 299.25C269.49 308.7 259.2 315.93 248.46 316.89C247.98 316.92 247.86 316.14 248.34 316.02C259.35 313.47 267.66 308.37 274.35 299.16C274.44 299.07 274.56 299.13 274.5 299.25Z" fill="#784620"/>
<path d="M272.19 285.12C255.6 261.57 221.97 267.54 212.34 293.82C212.16 294.3 211.44 294.12 211.59 293.61C219.51 265.47 256.95 261.24 272.73 284.79C272.97 285.15 272.43 285.45 272.19 285.12Z" fill="#784620"/>
<path d="M204.87 302.37C208.71 301.38 212.13 299.64 215.37 297.48C217.5 299.79 219.93 301.71 222.54 303.3C221.25 303.69 220.11 304.44 219.51 305.64C219.27 306.12 219.75 306.54 220.2 306.33C221.58 305.7 222.78 304.83 224.16 304.23C225.42 304.89 226.71 305.49 228.03 306.03C226.56 306.51 225.18 307.35 224.55 308.64C224.34 309.09 224.7 309.84 225.3 309.6C226.26 309.24 227.04 308.52 227.94 308.01C228.78 307.53 229.71 307.2 230.64 306.9C231.96 307.29 233.28 307.65 234.63 307.89C233.52 308.94 232.8 310.53 232.68 311.97C232.65 312.3 233.1 312.48 233.34 312.24C233.94 311.58 234.51 310.92 235.05 310.2C235.53 309.57 236.13 308.94 236.61 308.25C250.29 310.23 265.26 305.25 274.32 294.75C274.38 294.87 274.44 294.96 274.47 295.08C274.77 295.8 276.03 295.26 275.76 294.54C271.38 283.26 259.8 274.8 247.44 275.58C239.91 276.06 232.77 279.33 226.05 283.65C224.13 284.1 222.21 284.52 220.2 284.61C217.89 284.73 215.61 284.16 213.33 284.52C212.13 284.73 212.22 286.29 213.03 286.86C214.74 288.06 217.02 288.42 219.36 288.27C217.35 289.02 215.34 289.65 213.21 290.1C210.45 290.64 207.57 290.4 204.87 291.15C203.43 291.54 203.64 293.37 204.87 293.88C206.94 294.69 209.28 294.75 211.65 294.33C209.04 296.43 206.49 298.47 204.06 300.33C203.13 301.11 203.64 302.7 204.87 302.37ZM217.5 296.07C223.98 291.39 229.86 285.51 236.88 281.85C251.01 274.47 267.24 279.93 273.99 294.15C265.2 300.57 256.5 306.21 245.25 306.87C234.27 307.47 225.24 303.36 217.5 296.07Z" fill="#582311"/>
<path d="M325.2 293.7C325.2 293.7 328.5 288.3 331.2 285.6C333.9 282.9 341.1 276.3 353.7 277.8C366.3 279.3 384.6 296.1 384.6 296.1C384.6 296.1 376.5 304.8 367.5 306.6C358.5 308.4 349.5 308.4 340.5 303.9C331.5 299.7 325.8 294.3 325.8 294.3L325.2 293.7Z" fill="white"/>
<path d="M354 273C363 273 370.2 280.2 370.2 289.2C370.2 298.2 363 305.4 354 305.4C345 305.4 337.8 298.2 337.8 289.2C337.8 280.2 345 273 354 273Z" fill="#3E4442"/>
<path d="M354 273.9C362.4 273.9 369.6 280.8 369.6 289.5C369.6 298.2 362.7 305.1 354 305.1C345.3 305.1 338.4 298.2 338.4 289.5C338.4 280.8 345.6 273.9 354 273.9ZM354 272.4C344.7 272.4 336.9 280.2 336.9 289.5C336.9 298.8 344.7 306.6 354 306.6C363.3 306.6 371.1 298.8 371.1 289.5C371.1 279.9 363.6 272.4 354 272.4Z" fill="#1B2522"/>
<path d="M345.3 294C345.3 297.9 346.8 301.5 349.5 304.2C351 304.8 352.5 304.8 354 304.8C362.4 304.8 369.6 297.9 369.6 289.2C369.6 285.9 368.7 283.2 366.9 280.8C364.8 279.9 362.7 279 360 279C351.9 279 345.3 285.6 345.3 294Z" fill="#535353"/>
<path d="M354 280.8C358.5 280.8 362.4 284.7 362.4 289.2C362.4 293.7 358.5 297.6 354 297.6C349.5 297.6 345.6 293.7 345.6 289.2C345.6 284.7 349.5 280.8 354 280.8Z" fill="black"/>
<path d="M350.4 280.8C351.9 280.8 353.4 282 353.4 283.8C353.4 285.6 352.2 286.8 350.4 286.8C348.6 286.8 347.4 285.6 347.4 283.8C347.4 282 348.6 280.8 350.4 280.8ZM360 294C360.6 294 361.2 294.6 361.2 295.2C361.2 295.8 360.6 296.4 360 296.4C359.4 296.4 358.8 295.8 358.8 295.2C358.8 294.6 359.4 294 360 294Z" fill="white"/>
<path d="M354 304.8C354.9 304.8 355.5 304.8 356.4 304.5C355.8 304.5 355.5 303.9 355.2 303.3C355.2 304.2 354.6 304.5 354 304.8C353.1 304.8 352.5 304.2 352.5 303.6C352.2 304.2 351.3 304.5 350.7 304.2C350.1 303.9 349.5 303.3 349.5 302.7C348.9 303.3 348.3 303.3 347.7 303C347.1 302.7 346.8 302.1 346.8 301.5C346.2 302.1 345.3 301.8 344.7 301.5C344.1 301.2 344.1 300 344.4 299.4C343.8 300 342.9 299.7 342.3 299.4C341.7 298.8 341.7 297.9 342.3 297.3C341.7 297.3 340.8 297 340.2 296.4C342.9 301.5 348 304.8 354 304.8ZM366.9 297.9C366.6 298.2 366 298.5 365.4 298.5C365.7 299.7 364.5 300.9 363 300.9C363.3 301.5 363 302.1 362.4 302.7C361.8 303 361.2 303 360.6 302.7C360.6 303.3 360.3 303.9 359.7 304.2C359.1 304.5 358.2 304.2 357.9 303.6C357.9 304.2 357.6 304.8 357.3 305.1C361.5 303.6 364.8 301.2 366.9 297.9ZM361.2 276.3C362.1 276 363 276.9 362.7 277.8C363.6 277.2 365.1 278.7 364.5 279.6C365.1 279.3 365.7 279.6 365.7 280.2C366 280.8 366 281.4 365.4 281.7C366 281.7 366.9 282 367.2 282.6C367.5 283.2 367.5 284.1 366.9 284.7C367.5 284.7 368.1 285.3 368.4 285.9C368.7 286.5 368.4 287.4 367.8 287.7C368.4 288 368.7 288.6 368.7 289.2C368.7 289.8 368.4 290.4 367.8 290.7C368.4 291 368.7 291.6 368.7 292.2C368.7 292.8 368.1 293.4 367.5 293.4C368.4 294 367.8 295.8 366.9 295.8C367.2 296.1 367.2 296.7 367.2 297.3C368.7 294.9 369.3 292.2 369.3 289.5C369.3 283.2 365.7 278.1 360.6 275.4C361.2 275.4 361.2 276 361.2 276.3ZM359.7 275.4C360 275.1 360.3 275.1 360.6 275.4C359.1 274.8 357.6 274.2 356.1 274.2V274.5C357.3 273.9 358.8 274.5 359.7 275.4ZM342.9 296.7C343.5 296.7 343.8 296.4 344.1 296.1C344.7 295.8 345 295.5 345.6 295.2V294.9C345 295.2 344.7 295.2 344.4 295.5C343.8 296.1 343.2 296.4 342.9 296.7ZM339.3 292.2C339.6 292.2 340.2 292.2 340.5 291.9C341.1 291.9 341.4 291.6 342 291.6C342.3 291.6 342 291.3 342 291.3C341.4 291.3 341.1 291.3 340.5 291.6C339.9 291.6 339.6 291.6 339.3 292.2C339 292.2 339 291.9 339.3 292.2ZM340.8 284.7C342 285.3 343.2 285.6 344.4 285.9C344.4 285.9 344.7 285.9 344.4 285.6C343.2 285 342 284.7 340.8 284.7C340.8 284.4 340.5 284.7 340.8 284.7ZM341.1 282.3C341.7 282.9 342.3 283.2 343.2 283.5C343.2 283.5 343.5 283.5 343.2 283.2C342.9 282.9 342 282.6 341.1 282.3ZM352.5 302.4C352.8 301.5 353.1 300.3 353.1 299.4C353.1 299.4 352.8 299.1 352.8 299.4C352.8 300.3 352.5 301.5 352.5 302.4ZM363.3 290.1C364.2 290.4 365.4 290.4 366.6 290.7V290.4C365.4 290.4 364.2 290.1 363.3 290.1ZM363.9 288C364.8 288 366 288.3 366.9 288V287.7C366 287.7 365.1 287.7 363.9 288ZM364.5 279.9C363.6 280.5 362.4 281.4 361.8 282.3C362.7 281.4 363.6 280.8 364.5 279.9C364.8 279.9 364.5 279.6 364.5 279.9ZM355.8 276C355.5 276.9 355.2 277.5 355.2 278.4C355.2 278.7 355.5 278.7 355.5 278.4C355.8 277.5 355.8 276.9 355.8 276C356.1 275.7 355.8 275.7 355.8 276ZM347.1 276.9C347.4 277.5 347.7 278.4 348 279H348.3C348 278.1 347.4 277.5 347.1 276.9C347.1 276.6 347.1 276.6 347.1 276.9Z" fill="#1B2522"/>
<path d="M354.78 256.59C336.54 256.59 321.72 273.39 321.72 294.09C321.72 314.79 336.51 331.59 354.78 331.59C373.05 331.59 387.84 314.79 387.84 294.09C387.84 273.39 373.02 256.59 354.78 256.59ZM367.35 306.42C358.44 308.25 349.38 308.1 340.35 303.81C331.29 299.52 325.68 294.27 325.68 294.27L325.2 293.79C325.2 293.79 328.44 288.33 331.08 285.66C333.75 282.99 341.1 276.27 353.52 277.74C365.94 279.21 384.39 295.92 384.39 295.92C384.39 295.92 376.26 304.59 367.35 306.42Z" fill="#875732"/>
<path d="M325.5 299.25C330.51 308.7 340.8 315.93 351.54 316.89C352.02 316.92 352.14 316.14 351.66 316.02C340.65 313.47 332.34 308.37 325.65 299.16C325.56 299.07 325.44 299.13 325.5 299.25Z" fill="#784620"/>
<path d="M327.81 285.12C344.4 261.57 378.03 267.54 387.66 293.82C387.84 294.3 388.56 294.12 388.41 293.61C380.49 265.47 343.05 261.24 327.27 284.79C327.03 285.15 327.57 285.45 327.81 285.12Z" fill="#784620"/>
<path d="M395.94 300.42C393.48 298.56 390.96 296.52 388.35 294.42C390.72 294.84 393.06 294.78 395.13 293.97C396.36 293.49 396.57 291.66 395.13 291.24C392.43 290.49 389.55 290.76 386.79 290.19C384.66 289.77 382.65 289.14 380.64 288.36C382.98 288.51 385.26 288.15 386.97 286.95C387.78 286.38 387.84 284.82 386.67 284.61C384.39 284.22 382.11 284.82 379.8 284.7C377.82 284.58 375.9 284.16 373.95 283.74C367.23 279.42 360.09 276.12 352.56 275.67C340.2 274.89 328.62 283.35 324.24 294.63C323.97 295.35 325.2 295.89 325.53 295.17C325.59 295.05 325.65 294.96 325.68 294.84C334.74 305.37 349.71 310.32 363.39 308.34C363.87 309.03 364.44 309.63 364.95 310.29C365.49 310.98 366.06 311.67 366.66 312.33C366.87 312.57 367.32 312.39 367.32 312.06C367.23 310.62 366.48 309.03 365.37 307.98C366.72 307.71 368.04 307.38 369.36 306.99C370.29 307.29 371.22 307.62 372.06 308.1C372.96 308.61 373.74 309.3 374.7 309.69C375.27 309.9 375.66 309.18 375.45 308.73C374.82 307.44 373.44 306.63 371.97 306.12C373.29 305.61 374.58 305.01 375.84 304.32C377.19 304.92 378.42 305.79 379.8 306.42C380.25 306.63 380.73 306.21 380.49 305.73C379.89 304.5 378.72 303.78 377.46 303.39C380.07 301.8 382.47 299.88 384.63 297.57C387.87 299.7 391.32 301.47 395.13 302.46C396.36 302.7 396.87 301.11 395.94 300.42ZM354.78 306.84C343.5 306.21 334.83 300.54 326.04 294.12C332.76 279.9 349.02 274.44 363.15 281.82C370.17 285.48 376.05 291.36 382.53 296.04C374.76 303.36 365.73 307.47 354.78 306.84Z" fill="#582311"/>
<path d="M206.7 253.5C206.4 252.6 206.4 251.7 207 251.1V250.8C206.7 250.2 206.7 249.3 207.6 249C208.5 248.7 209.7 248.4 210.6 248.4C211.5 248.1 212.4 247.8 213.3 247.8C214.2 247.2 215.4 247.2 216.6 247.2C218.1 246.6 219.9 246.3 221.1 246C223.5 245.4 225.9 245.1 228.3 245.4C229.2 245.1 230.1 245.1 230.7 244.8C231 244.8 231.3 244.8 231.3 245.1C234.6 244.5 237.6 244.2 240.9 244.8C244.2 244.5 247.5 244.2 250.8 244.8H251.1C252.6 244.5 254.4 244.5 255.9 244.5C259.2 244.2 262.5 243.9 265.5 244.5C265.8 244.2 266.1 244.2 266.4 244.2C267.3 244.5 267.9 245.1 268.8 246C268.8 245.7 268.8 245.4 269.1 244.8C269.1 244.5 269.4 244.5 269.7 244.8C270 246.3 270 247.5 270 249C270.3 249.9 270.6 250.8 270.3 251.7C270.3 252.9 270.3 254.1 270 255.3C269.7 255.9 269.4 256.8 269.1 257.4V257.7C269.1 258 269.1 258.3 268.8 258.3C268.5 258.6 268.5 258.6 268.2 258.6H267.9C267 258.9 266.1 259.2 265.2 259.2C264.3 259.2 263.1 259.5 262.5 258.6C261.6 258.9 260.4 258.9 259.5 258.6H259.2C257.4 259.2 255.3 259.2 253.5 258.9C253.5 258.9 253.2 259.2 252.9 259.2C248.4 260.1 243.6 260.1 238.8 259.2C235.5 259.8 230.7 259.8 226.8 258.9H226.5C223.8 259.2 220.2 259.2 217.2 258.3C214.8 258.9 211.5 259.5 209.4 257.7C209.1 258 208.8 258 208.5 257.7H207.6C207 257.7 206.4 257.4 206.4 257.1C206.4 256.8 206.4 256.5 206.7 256.2V255C207 254.7 206.7 254.1 206.7 253.5Z" fill="#504543"/>
<path d="M264.3 258.9C266.1 257.4 267.9 256.2 268.5 253.8C269.4 251.4 269.1 249 268.8 246.3C268.8 246 269.4 245.7 269.7 246.3C270.9 250.5 270.3 258.3 264.6 259.2C264.3 259.5 264 259.2 264.3 258.9ZM261.6 245.1C261.3 244.8 261.6 244.2 262.2 244.5C267.6 246 265.8 255.3 263.4 258.3C263.1 258.6 262.8 258.3 262.8 258C264 255.9 264.3 253.8 264 251.4C264.3 248.4 263.7 246.9 261.6 245.1ZM247.2 243.9C253.5 245.4 260.7 253.5 259.8 259.5C259.8 259.8 259.5 259.8 259.2 259.5C257.7 256.8 257.1 253.8 255.3 251.4C252.9 248.4 249.9 246.6 246.9 244.5C246.6 244.2 246.9 243.6 247.2 243.9ZM231.9 245.4C240 246 248.7 252.3 252.3 258.9C252.6 259.2 252 259.5 251.7 259.2C249 255.9 246.3 252.9 242.7 250.5C239.4 248.4 235.5 247.2 231.6 246C231.3 246 231.3 245.4 231.9 245.4ZM211.8 248.4C220.8 246.9 230.1 253.8 235.8 259.2C236.1 259.5 235.5 259.8 235.2 259.5C231.9 256.8 228.3 254.1 224.4 252.3C220.2 250.2 216.3 249.9 211.8 249C211.2 248.7 211.2 248.4 211.8 248.4ZM206.4 252.9C213.6 252.9 221.1 255 226.8 258.9C227.1 259.2 226.8 259.5 226.5 259.2C219.6 256.2 213.6 254.7 206.1 253.8C205.5 253.5 205.8 252.9 206.4 252.9Z" fill="#5F5A59"/>
<path d="M268.8 258.9C269.1 258.9 269.1 258.9 269.4 258.6C271.5 255.6 273 249.6 272.1 246C272.1 245.7 271.5 245.7 271.2 246C270.9 246.6 270.9 247.2 270.9 248.1C270.6 246.6 270 245.1 269.4 243.9C269.1 243.3 268.5 243.9 268.5 244.2C268.8 245.4 269.1 246.6 269.4 248.1C269.7 249.6 269.7 250.8 270 252C270 252.3 270.3 252.3 270.3 252.3V252.6C269.7 254.7 269.1 256.5 268.5 258.6C266.4 258.6 264.3 258.6 262.2 258.9C262.5 254.7 261.3 250.5 258.6 247.2C258.3 246.9 257.7 246.9 257.7 247.5C259.2 251.4 260.4 255 261.3 258.9C260.1 258.9 259.2 258.9 258 259.2C257.4 253.8 253.8 248.4 249.3 245.1C255 245.1 260.4 245.1 265.8 244.5C266.1 244.5 266.1 243.9 265.8 243.9C255 243.6 243.9 243.6 233.1 243.9C224.1 244.2 214.2 245.1 206.1 249C205.8 249.3 205.8 249.6 206.1 249.9C205.2 252.6 205.2 255.6 206.7 258H207C206.7 258.3 206.7 258.9 207 258.9C216.9 260.7 227.7 261 237.9 261C248.1 261 258.9 260.7 268.8 258.9ZM238.2 259.5H234C229.2 254.4 222.6 250.5 215.7 248.7C215.4 248.7 215.1 249 215.4 249.3C222 252 227.7 255.3 233.1 259.8C224.7 259.5 216 258.3 207.6 258C207.6 258 207.9 257.7 207.6 257.7C207.3 255 207 252.6 207.3 249.9C215.4 247.5 222.9 246 231.3 245.4V245.7C234.6 247.8 237.9 249.9 240.9 252.3C243.6 254.7 246 257.1 248.1 259.8C244.8 259.5 241.5 259.8 238.2 259.5ZM258 258.9C256.8 258.9 255.9 258.9 254.7 259.2C253.8 254.1 250.5 249.3 246.3 246C246 245.7 246 246 246 246.3C249.6 250.5 251.7 254.4 253.8 259.2C252.3 259.2 250.8 259.5 249 259.5C245.4 253.5 239.1 247.8 231.9 245.1C233.4 245.1 234.6 244.8 236.1 244.8H249.3V245.1C253.5 249.3 255.9 253.5 258 258.9ZM265.8 244.8C268.2 248.4 268.8 255.6 264.3 258C264 258 263.7 258 264 257.7C264.6 255.6 266.1 253.8 266.1 251.4C266.4 249.3 265.8 246.9 264.9 244.8C264.9 244.8 265.5 244.5 265.8 244.8Z" fill="#413230"/>
<path d="M393.3 253.5C393.6 252.6 393.6 251.7 393 251.1V250.8C393.3 250.2 393.3 249.3 392.4 249C391.2 248.7 390.3 248.4 389.4 248.4C388.5 248.1 387.6 247.8 386.7 247.8C385.5 247.2 384.6 247.2 383.4 247.2C381.9 246.6 380.1 246.3 378.9 246C376.5 245.4 374.1 245.1 371.7 245.4C370.8 245.1 369.9 245.1 369.3 244.8C369 244.8 368.7 244.8 368.7 245.1C365.4 244.5 362.4 244.2 359.1 244.8C355.8 244.5 352.5 244.2 349.2 244.8H348.9C347.4 244.5 345.6 244.5 344.1 244.5C340.8 244.2 337.5 243.9 334.5 244.5C334.2 244.2 333.9 244.2 333.6 244.2C332.7 244.5 332.1 245.1 331.2 246C331.2 245.7 331.2 245.4 330.9 244.8C330.9 244.5 330.6 244.5 330.3 244.8C329.7 246 329.4 247.5 329.4 249C329.1 249.9 328.8 250.8 329.1 251.7C329.1 252.9 329.1 254.1 329.4 255.3C329.7 255.9 330 256.8 330.3 257.4V257.7C330.3 258 330.3 258.3 330.6 258.3C330.9 258.6 330.9 258.6 331.2 258.6H331.5C332.4 258.9 333.3 259.2 334.2 259.2C335.1 259.2 336.3 259.5 336.9 258.6C337.8 258.9 339 258.9 339.9 258.6H340.2C342 259.2 344.1 259.2 345.9 258.9C345.9 258.9 346.2 259.2 346.5 259.2C351 260.1 355.8 260.1 360.6 259.2C363.9 259.8 368.7 259.8 372.6 258.9H372.9C375.6 259.2 379.2 259.2 382.2 258.3C384.6 258.9 388.2 259.5 390 257.7C390.3 258 390.6 258 390.9 257.7H391.5C392.1 257.7 392.7 257.4 392.7 257.1C392.7 256.8 392.7 256.5 392.4 256.2V255C393 254.7 393.3 254.1 393.3 253.5Z" fill="#504543"/>
<path d="M335.7 258.9C333.9 257.4 332.1 256.2 331.5 253.8C330.6 251.4 330.9 249 331.2 246.3C331.2 246 330.6 245.7 330.3 246.3C329.1 250.5 329.7 258.3 335.4 259.2C335.7 259.5 336 259.2 335.7 258.9ZM338.4 245.1C338.7 244.8 338.4 244.2 337.8 244.5C332.4 246 334.2 255.3 336.6 258.3C336.9 258.6 337.2 258.3 337.2 258C336 255.9 335.7 253.8 336 251.4C335.7 248.4 336.3 246.9 338.4 245.1ZM352.8 243.9C346.5 245.4 339.3 253.5 340.2 259.5C340.2 259.8 340.5 259.8 340.8 259.5C342.3 256.8 342.9 253.8 344.7 251.4C347.1 248.4 350.1 246.6 353.1 244.5C353.4 244.2 353.1 243.6 352.8 243.9ZM368.1 245.4C360 246 351.3 252.3 347.7 258.9C347.4 259.2 348 259.5 348.3 259.2C351 255.9 353.7 252.9 357.3 250.5C360.6 248.4 364.5 247.2 368.4 246C368.7 246 368.7 245.4 368.1 245.4ZM388.2 248.4C379.2 246.9 369.9 253.8 364.2 259.2C363.9 259.5 364.5 259.8 364.8 259.5C368.1 256.8 371.7 254.1 375.6 252.3C379.8 250.2 383.7 249.9 388.2 249C388.8 248.7 388.8 248.4 388.2 248.4ZM393.6 252.9C386.4 252.9 378.9 255 373.2 258.9C372.9 259.2 373.2 259.5 373.5 259.2C380.4 256.2 386.4 254.7 393.9 253.8C394.5 253.5 394.2 252.9 393.6 252.9Z" fill="#5F5A59"/>
<path d="M361.8 260.7C372 260.7 382.8 260.4 392.7 258.6C393.3 258.6 393.3 258 392.7 257.7H393C394.5 255.3 394.5 252.3 393.3 249.6C393.6 249.3 393.6 249 393.3 248.7C385.2 245.1 375.3 244.2 366.3 243.6C355.5 243.3 344.4 243.3 333.6 243.6C333.3 243.6 333 244.2 333.6 244.2C339 244.8 344.7 244.8 350.1 244.8C345.3 248.1 342 253.5 341.4 258.9C340.2 258.9 339.3 258.9 338.1 258.6C339 254.7 340.2 250.8 341.7 247.2C342 246.6 341.1 246.6 340.8 246.9C338.1 250.2 337.2 254.7 337.2 258.6C335.1 258.6 333 258.3 330.9 258.3C330.3 256.2 329.4 254.4 329.1 252.3V252C329.4 252 329.4 252 329.4 251.7C329.7 250.5 329.7 249 330 247.8C330.3 246.6 330.6 245.4 330.9 243.9C330.9 243.3 330.3 243 330 243.6C329.4 244.8 328.8 246.3 328.5 247.8C328.5 247.2 328.5 246.6 328.2 245.7C328.2 245.4 327.6 245.4 327.3 245.7C326.4 249.3 327.6 255.3 330 258.3C330 258.6 330.3 258.6 330.6 258.6C341.1 260.7 351.9 261 361.8 260.7ZM351.9 259.5C354 256.8 356.4 254.4 359.1 252C362.1 249.6 365.4 247.5 368.7 245.4C368.7 245.4 369 245.1 368.7 245.1C376.8 245.7 384.6 247.2 392.7 249.6C392.7 252.3 392.4 254.7 392.4 257.4V257.7C384 258 375.3 259.2 366.9 259.5C372.3 255 378 251.7 384.6 249C384.9 249 384.6 248.4 384.3 248.4C377.4 250.2 370.8 254.4 366 259.2H361.8C358.5 259.8 355.2 259.5 351.9 259.5ZM350.7 245.1C355.2 244.8 359.4 244.8 363.9 244.8C365.4 244.8 366.6 244.8 368.1 245.1C360.9 247.5 354.9 253.5 351 259.5C349.5 259.5 348 259.2 346.2 259.2C348 254.4 350.4 250.2 354 246.3C354.3 246 354 246 353.7 246C349.5 249.3 346.5 254.1 345.3 259.2C344.1 259.2 343.2 259.2 342 258.9C344.1 253.5 346.5 249.3 350.7 245.1ZM334.2 244.8C331.8 248.4 331.2 255.6 335.7 258C336 258 336.3 258 336 257.7C335.4 255.6 333.9 253.8 333.9 251.4C333.6 249.3 334.2 246.9 335.1 244.8C335.1 244.8 334.5 244.5 334.2 244.8Z" fill="#413230"/>
<path d="M293.4 282.75C291.3 290.58 291.33 299.37 290.52 307.41C289.65 315.99 287.82 325.05 288.15 333.66C288.18 334.38 289.29 334.59 289.47 333.84C291.33 325.89 291.3 317.22 292.08 309.09C292.89 300.57 294.75 291.39 294.18 282.84C294.12 282.45 293.52 282.33 293.4 282.75Z" fill="#592A06"/>
<path d="M289.02 350.55C290.97 356.07 295.05 362.76 301.95 361.71C307.68 360.84 311.46 354.15 311.49 348.78C311.49 348.3 310.83 348.15 310.59 348.54C308.16 352.35 307.65 357.84 302.64 359.43C296.52 361.38 292.41 354.48 289.86 350.19C289.59 349.8 288.84 350.07 289.02 350.55Z" fill="#592A06"/>
<path d="M288.48 330.24C279.06 326.22 276.72 346.41 276.21 351.78C275.85 355.32 275.73 360.27 279.84 361.74C283.89 363.18 287.73 360 289.74 356.82C289.98 356.43 289.47 355.89 289.08 356.16C288.27 356.73 287.85 357.09 287.04 357.72L285.3 359.01C283.74 360.36 282.21 360.21 280.74 358.5C277.86 356.94 277.8 356.64 277.89 353.7C277.92 352.32 278.13 350.94 278.28 349.59C278.73 345.6 280.83 328.68 288.06 331.2C288.63 331.38 289.05 330.48 288.48 330.24Z" fill="#592A06"/>
<path d="M284.64 354.12C285.48 353.43 286.02 352.5 286.98 351.96C287.88 351.45 288.96 351.3 289.83 350.73C290.19 350.52 290.34 349.95 289.98 349.62C287.64 347.67 282.84 350.52 283.08 353.49C283.17 354.3 284.01 354.63 284.64 354.12Z" fill="#592A06"/>
<path d="M310.8 351.06C311.73 351.27 312.6 351.57 313.23 352.29C313.53 352.62 313.71 352.98 313.92 353.37C314.22 353.85 314.31 353.97 314.73 354.24C315.03 354.45 315.42 354.27 315.6 354C315.69 353.88 315.72 353.79 315.78 353.67C315.96 353.22 315.75 353.73 315.84 353.43C315.93 353.07 315.898 352.69 315.75 352.35C315.51 351.69 315.06 351.12 314.52 350.67C313.5 349.8 312.09 349.26 310.77 349.65C310.14 349.86 310.08 350.91 310.8 351.06Z" fill="#592A06"/>
<path d="M313.17 331.59C316.74 330.93 319.59 342.27 320.4 344.85C321.15 347.22 322.14 349.89 322.2 352.38C322.29 356.19 317.97 361.56 314.88 356.43C314.49 355.8 313.65 356.25 313.74 356.91C314.13 359.55 316.83 360.93 319.35 360.27C322.74 359.37 324.15 355.59 323.97 352.38C323.7 347.28 321.09 341.82 319.11 337.2C318 334.59 316.65 329.31 312.93 331.05C312.63 331.2 312.87 331.65 313.17 331.59Z" fill="#592A06"/>
<path d="M313.59 331.35C313.83 327.24 312.54 322.98 312.15 318.87C311.79 315.21 311.82 311.52 311.28 307.86C311.22 307.56 310.8 307.68 310.77 307.92C310.17 312.33 310.68 316.98 311.28 321.36C311.7 324.69 311.97 328.32 313.53 331.35C313.53 331.41 313.59 331.38 313.59 331.35Z" fill="#592A06"/>
<path d="M310.02 336.45C309.93 332.19 308.88 328.08 307.8 324C306.75 319.98 306.15 315.51 304.05 311.91C303.57 311.07 302.07 311.16 301.86 312.18C300.66 318.54 302.55 325.8 302.88 332.25C303.06 335.52 303.18 338.88 302.43 342.09C301.74 345.06 300.09 347.67 299.19 350.58C298.71 352.08 300.3 353.79 301.83 353.22C308.37 350.85 310.17 342.72 310.02 336.45Z" fill="#8F603C"/>
<path d="M231.3 146.4C231.3 146.4 212.7 141 216 104.4C219.3 67.8 266.1 54 304.2 54C342.3 54 375 68.7 383.7 95.4C392.4 122.1 385.2 143.7 372.9 147C360.6 150.3 231.3 146.4 231.3 146.4Z" fill="#413230"/>
<path d="M404.1 164.7C371.4 110.1 300 114.3 300 114.3C300 114.3 225.9 111.6 192.9 165.9C162.3 216.9 171.3 264 171.3 264C171.3 264 177.9 270.6 181.8 294.6C182.1 297 186.3 296.7 186.9 294C188.4 286.2 187.5 269.4 192.6 247.2C201 211.8 229.2 181.5 259.5 172.8C275.7 168 327 170.1 343.2 174.6C373.5 183.6 397.5 210.9 405.9 246.3C411 268.2 411 286.2 412.5 294C413.1 296.4 417 297 417.6 294.6C421.8 270.6 428.4 265.2 428.4 265.2C428.4 265.2 435 215.4 404.1 164.7ZM387 108C386.4 104.1 385.5 99.6 384 95.4C375.3 68.7 342.6 54 304.5 54C294.3 54 283.2 54.9 272.7 57.3C264 62.4 256.8 69.6 258 79.5C261.3 103.5 283.2 104.7 315 107.4C340.8 109.5 377.4 128.7 387 108Z" fill="#504543"/>
<path d="M192.3 193.8C193.2 179.1 197.4 165.3 203.4 152.1C199.8 156.3 196.2 160.8 193.2 165.9C176.4 193.5 171.6 220.2 170.4 238.8C171.9 256.5 177 275.4 187.8 288C188.1 283.5 188.4 277.8 189 270.9C183.6 255.9 177.9 241.8 177.6 224.1C177.3 207.3 181.2 192.3 187.2 177.9C181.5 199.8 182.1 224.4 193.8 240.9C193.8 241.2 194.1 241.2 194.4 241.5C195.3 238.5 196.5 235.5 197.7 232.5C195 219.6 191.4 207.3 192.3 193.8ZM212.1 143.7C209.4 146.1 206.7 148.5 204.3 151.2C197.1 173.1 194.1 199.5 203.7 219.6C204.9 217.2 206.4 215.1 207.9 212.7C207.3 202.2 205.5 192 205.8 181.2C206.1 168.6 208.5 156 212.1 143.7ZM216.6 177C216.6 163.2 219 149.7 222 136.2C220.2 137.4 218.7 138.6 216.9 139.8C209.1 160.2 206.4 185.1 212.4 206.4C214.5 204 216.3 201.6 218.4 199.2C217.5 191.7 216.6 184.5 216.6 177ZM236.4 128.1C233.7 129.3 231 130.8 228.6 132C219.3 151.2 214.8 177 220.2 197.7C222.9 195 225.3 192.6 228.3 190.2C227.1 183.6 226.2 177 226.5 170.1C226.8 155.1 231 141.6 236.4 128.1ZM250.5 122.4C248.1 123.3 245.4 124.2 243 125.1C234 142.2 230.1 165 237.3 183C239.4 181.5 241.5 180.3 243.6 179.1C241.2 159 241.2 141.9 250.5 122.4ZM255.6 120.9C251.7 138.6 249.3 157.2 253.2 174.9C254.4 174.6 255.3 174 256.5 173.7C256.5 156.3 255.6 139.2 258.6 121.8C258.6 121.2 258.3 120.6 258 120.3C257.1 120.3 256.5 120.6 255.6 120.9ZM274.2 116.4C272.7 116.7 271.2 117 269.4 117.3C266.1 134.7 266.4 153.6 270 171C271.5 171 273.3 170.7 274.8 170.7C274.5 152.4 273.9 134.7 274.2 116.4ZM288.3 115.5C288.3 115.2 288.3 114.9 288 114.9C287.1 114.9 286.5 114.9 285.6 115.2V115.8C284.1 133.8 284.1 152.7 288.6 170.4H291.6C290.4 151.8 288.3 133.8 288.3 115.5ZM311.7 140.1C312.3 150.3 312.3 160.5 313.2 170.7C314.1 170.7 315.3 170.7 316.2 171C318 151.8 313.2 133.5 313.2 114.9C312.3 114.9 311.4 114.9 310.5 114.6C309.6 123 311.1 131.7 311.7 140.1ZM335.4 123.3C336.6 140.1 335.4 156.3 333 172.8C334.5 173.1 335.7 173.4 337.2 173.4C339.9 156.9 339.9 140.1 338.1 123.3C338.1 121.5 335.4 121.5 335.4 123.3ZM368.4 147C368.7 159.9 366.3 171.3 360.9 182.4C362.1 183 363.3 183.9 364.5 184.8C371.4 173.4 373.8 159.9 370.8 146.7C370.8 145.2 368.4 145.5 368.4 147ZM388.2 146.1C387.9 144.3 385.5 144.9 385.5 146.4C384.3 163.2 382.5 179.1 377.7 195L380.4 197.7C387.6 182.1 391.5 163.8 388.2 146.1ZM384.3 202.5C385.2 203.7 386.4 204.9 387.3 206.4C396.9 194.7 403.2 180 404.4 165V164.7C402.6 162 401.1 159.3 399 156.9C396.9 173.4 392.7 188.1 384.3 202.5ZM404.4 165C403.8 173.4 403.5 181.5 401.1 189.6C399 196.2 395.7 205.2 390.6 211.2C391.5 212.7 392.7 214.5 393.6 216C399 211.5 402.6 203.4 405.3 197.7C408.3 191.1 410.1 183.6 410.7 176.1C408.6 172.2 406.5 168.6 404.4 165ZM410.7 179.7C407.7 192.3 405.6 210 396.3 220.8C397.2 222.3 397.8 224.1 398.7 225.6C403.8 221.1 407.1 214.2 409.5 208.5C412.8 201 414.9 193.2 414.6 185.1C413.7 183 412.8 180.6 411.6 178.5C411.3 178.5 410.7 179.1 410.7 179.7ZM409.8 270.6C418.8 252.3 422.4 230.7 423.3 210.3C421.5 203.7 419.4 196.8 416.7 189.6C414.6 207 412.5 223.2 403.5 238.5C404.1 240.6 404.7 243 405.3 245.1C409.2 240 412.2 234.6 414.9 228.9C412.8 237.6 410.1 246 407.4 254.7C408.6 260.4 409.2 265.8 409.8 270.6ZM417.3 294.6C421.5 270.6 428.1 265.2 428.1 265.2C428.1 265.2 429.3 257.1 428.4 244.5H428.1C428.1 243.9 428.4 243 428.4 242.1C428.1 236.4 427.2 229.8 426 222.6C423.3 234 421.5 245.7 417.9 257.1C415.8 264 413.1 270.3 410.4 276.9C411 282.3 411.3 286.8 411.6 290.4C412.5 288.9 413.4 287.7 414 286.2C413.4 288.3 412.5 290.7 411.9 292.8C411.9 293.1 411.9 293.4 412.2 294C412.5 296.1 415.5 296.7 416.7 295.5C416.7 295.2 417 295.2 417 294.9C417.3 294.9 417.3 294.6 417.3 294.6ZM269.1 78.3C269.7 69.6 273 62.1 278.7 56.1L274.2 57C269.1 63.3 266.4 72 266.1 80.1C265.8 84.6 266.4 91.8 268.5 98.1C269.7 99 271.2 99.6 272.7 100.2C269.4 93.3 268.8 84 269.1 78.3ZM341.7 112.8C351.6 102.3 361.5 81.6 358.5 66.3C357.3 65.7 356.1 64.8 354.9 64.2C360.3 78.9 349.2 99.6 339.6 111.9C340.5 112.5 341.1 112.8 341.7 112.8ZM377.4 83.1C379.8 89.1 379.5 95.4 374.1 101.7C367.5 108.9 358.5 113.7 348.9 114.9C351.3 115.5 353.7 115.8 355.8 116.4C366.3 114.3 377.1 105.9 380.7 96.9C381.3 95.1 381.9 93 381.9 91.2C381 88.2 379.2 85.5 377.4 83.1ZM293.1 54.3C292.2 54.3 291.3 54.3 290.1 54.6C285.3 70.8 287.7 91.2 295.2 105.6C296.1 105.6 296.7 105.9 297.6 105.9C290.7 90.6 288.6 71.1 293.1 54.3ZM328.8 109.8C339 94.5 343.2 74.4 336 57.6L332.4 56.7C339.6 74.4 336 91.8 326.7 109.2C327.3 109.5 328.2 109.5 328.8 109.8ZM314.7 107.4H315.3C316.5 92.7 317.4 69.6 310.2 54H306.6C314.4 69.3 313.2 91.2 313.2 107.4H314.7Z" fill="#413230"/>
<path d="M359.7 129.6C359.7 129 358.2 129 358.5 129.9C360 142.2 358.8 153.6 357 165.9C357 166.8 358.2 167.1 358.5 166.2C362.1 154.5 361.5 141.6 359.7 129.6ZM356.7 132C356.7 131.4 355.8 131.4 355.8 132C355.2 143.4 354 154.5 353.1 165.6C353.1 166.5 354.3 166.5 354.3 165.9C357 154.8 357.6 142.8 356.7 132ZM352.2 132C352.2 131.4 351 131.1 351 132C351 141.9 349.8 151.5 348.9 161.4C348.9 162.3 350.1 162.3 350.4 161.7C352.8 152.1 352.8 141.6 352.2 132ZM346.2 132.9C346.2 132.3 345.3 132.3 345.3 132.9C345.6 141.3 344.7 149.4 344.7 157.8C344.7 158.7 345.9 159 346.2 158.1C347.4 149.7 347.1 141 346.2 132.9ZM340.2 130.2C340.2 129.9 339.6 129.9 339.6 130.2C340.5 137.1 340.5 143.7 340.5 150.6C340.5 151.2 341.1 151.2 341.1 150.6C341.7 144 341.1 137.1 340.2 130.2ZM330.6 125.7C330.6 124.5 328.5 124.5 328.5 125.7C328.5 139.5 327 153.3 326.7 166.8C326.7 167.7 328.2 168 328.5 167.1C331.8 153.6 331.8 139.5 330.6 125.7ZM324.3 126.3C324.3 125.7 323.1 125.7 323.1 126.3C323.1 138.6 322.2 150.6 322.2 162.9C322.2 163.5 323.4 163.8 323.4 163.2C325.2 150.9 324.9 138.6 324.3 126.3ZM318 128.7C318 128.1 316.8 128.1 316.8 128.7C316.5 139.8 315.6 150.6 316.2 161.7C316.2 162.6 317.4 162.6 317.4 161.7C318.6 150.9 318 139.8 318 128.7ZM304.5 126.3C304.5 125.4 303.3 125.4 303.3 126.3C302.4 138.3 302.1 150.9 303.6 162.9C303.6 164.1 305.4 164.1 305.4 162.9C305.7 150.6 304.8 138.3 304.5 126.3ZM299.1 129.3C299.1 128.4 297.9 128.4 297.9 129.3C297.6 139.8 296.7 150.9 298.2 161.7C298.2 162.6 299.7 162.3 299.7 161.4C300 150.6 298.8 140.1 299.1 129.3ZM293.1 129.9C293.1 128.7 291.6 129 291.3 129.9C290.1 139.5 289.5 149.7 291.3 159C291.6 159.9 293.1 159.6 293.1 158.7C293.1 149.1 292.5 139.5 293.1 129.9ZM280.5 130.8C279 141.9 278.1 153.3 279.6 164.4C279.6 165.3 281.1 165.3 281.1 164.4C281.1 153.3 280.8 141.9 281.7 130.8C281.7 130.2 280.5 129.9 280.5 130.8ZM261.9 128.7C260.7 140.1 259.8 151.8 261.3 163.2C261.3 163.8 262.5 164.1 262.5 163.2C262.8 151.8 262.8 140.1 263.1 128.7C263.1 127.8 261.9 128.1 261.9 128.7ZM252 131.7C249.9 142.8 248.7 154.8 249.6 165.9C249.6 167.1 251.4 167.1 251.4 165.9C252 154.5 252.3 143.1 253.2 131.7C253.2 131.1 252 131.1 252 131.7ZM246.9 137.7C244.5 147.6 243 158.4 244.2 168.3C244.2 169.2 245.4 169.2 245.7 168.3C246.3 158.1 246.9 148.2 248.1 138C248.1 137.4 247.2 137.1 246.9 137.7ZM233.4 137.1C233.7 136.2 232.5 135.9 232.2 136.8C227.7 149.1 226.2 162 228.6 174.9C228.9 175.5 229.8 175.5 229.8 174.6C229.5 161.7 230.4 149.4 233.4 137.1ZM365.7 141.6C365.7 140.4 363.9 140.4 363.9 141.6C363.6 153 362.1 164.4 361.5 175.8C361.5 176.7 363 177 363 176.1C366 164.7 366.3 152.7 365.7 141.6ZM377.4 142.2C377.4 141.6 376.2 141.6 376.2 142.5C376.8 154.8 375.9 166.2 373.8 178.5C373.5 179.4 375 179.7 375.3 178.8C378.9 167.1 379.5 154.5 377.4 142.2ZM380.7 155.1C380.7 154.5 379.8 154.5 379.8 155.1C379.5 165.9 377.7 176.4 375.6 186.9C375.6 187.5 376.5 187.8 376.5 187.2C380.1 177 381.3 166.2 380.7 155.1ZM394.2 155.7C394.2 154.8 393 154.8 393 155.7C391.8 168 389.1 179.1 385.8 191.1C385.5 192 386.7 192.3 387 191.7C393 181.2 395.1 167.7 394.2 155.7ZM400.8 177.9C399.3 186 396.9 193.8 393.9 201.3C393.6 201.9 394.5 202.2 395.1 201.9C399.3 194.7 401.4 186.6 402.6 178.2C402.6 177 400.8 177 400.8 177.9ZM402.9 196.8C402 198.6 401.1 200.4 400.5 202.5C400.5 202.8 401.1 203.1 401.1 202.8L403.8 197.4C404.4 196.5 403.2 195.9 402.9 196.8ZM411.6 196.8C409.5 207 406.5 216.3 403.8 226.2C403.5 227.1 404.7 227.4 405 226.8C410.1 218.1 412.5 207 412.8 196.8C413.1 196.2 411.9 195.9 411.6 196.8ZM414.9 209.4C411.6 217.8 407.7 226.2 405.3 234.9C405 235.8 406.5 236.7 407.1 235.5C411 227.4 413.7 218.4 416.7 209.7C417 208.8 415.2 208.2 414.9 209.4ZM414.6 231.3C413.7 234 412.2 236.7 411.9 239.7C411.9 240.3 412.8 240.9 413.1 240.3C414.6 237.9 415.5 234.9 416.7 232.2C417.3 230.4 415.2 230.1 414.6 231.3ZM371.4 80.3999C369 86.6999 366.3 92.6999 362.4 98.0999C358.5 103.5 353.1 107.4 348.6 112.5C348 113.1 348.6 113.7 349.5 113.4C361.5 108.3 370.5 92.9999 372.9 80.6999C373.2 79.7999 371.7 79.1999 371.4 80.3999ZM365.7 82.1999C361.8 91.4999 356.4 98.9999 351 107.4C350.4 108.3 351.6 109.2 352.5 108.6C359.4 101.7 364.2 92.0999 366.9 82.7999C366.6 82.1999 366 81.5999 365.7 82.1999ZM346.2 69.3C345.6 80.0999 342.9 89.6999 339.6 99.8999C339.3 100.8 340.8 101.4 341.1 100.5C346.5 91.1999 348.3 79.7999 348 68.9999C348.3 68.0999 346.5 68.1 346.2 69.3ZM340.5 74.9999C340.2 82.4999 338.1 88.7999 335.7 95.6999C335.4 96.5999 336.6 97.1999 337.2 96.2999C340.8 89.9999 342 82.1999 342 74.9999C342 73.7999 340.5 73.7999 340.5 74.9999ZM327.9 65.6999C327.3 65.3999 326.7 66.2999 327.3 66.8999C329.7 69.2999 327.9 79.4999 327.6 82.4999C327 87.8999 325.8 93.5999 324.9 98.9999C324.6 99.8999 325.8 100.2 326.4 99.2999C329.1 91.7999 330.3 84.2999 330.6 76.4999C330.6 73.4999 331.8 66.8999 327.9 65.6999ZM321.6 71.1C321.3 70.2 320.4 70.7999 320.4 71.3999C321.9 82.4999 320.4 92.6999 318.3 103.5C318 104.4 319.5 104.7 319.8 103.8C323.7 93.5999 323.7 82.2 321.6 71.1ZM308.7 66.6C308.7 65.7 307.2 65.4 307.2 66.3C305.4 78.2999 304.8 90.8999 307.8 102.9C308.1 103.5 309 103.5 309 102.6C308.4 90.5999 307.5 78.9 308.7 66.6ZM302.4 64.8C302.4 63.9 301.2 64.2 301.2 64.8C300 75.5999 299.7 87.5999 302.7 98.0999C303 98.6999 303.9 98.6999 303.9 97.7999C303.6 86.6999 301.8 75.9 302.4 64.8ZM296.1 66.6C296.1 65.7 294.9 65.7 294.6 66.6C293.4 77.1 293.4 87.8999 296.7 98.3999C297 99.2999 298.2 98.9999 298.2 98.0999C296.4 87.5999 295.2 77.4 296.1 66.6ZM283.2 68.9999C283.5 68.0999 282 67.4999 281.7 68.6999C279.3 77.9999 279.3 88.4999 282.6 97.4999C282.9 98.3999 284.4 98.1 284.1 97.2C282.6 87.3 281.7 78.5999 283.2 68.9999ZM275.7 70.1999C275.7 69.5999 274.8 69.5999 274.5 70.1999C273.3 80.3999 274.2 89.9999 278.4 99.5999C278.7 100.2 279.6 99.5999 279.3 99.2999C276.6 89.6999 275.4 80.0999 275.7 70.1999ZM260.7 69.8999C255.9 78.8999 254.7 89.6999 259.5 99.2999C259.8 100.2 261.3 99.6 261 98.7C258.3 89.4 257.7 80.0999 262.2 70.8C262.8 69.6 261.3 68.6999 260.7 69.8999ZM254.1 73.1999C254.1 72.2999 252.9 72.2999 252.9 73.1999C252 82.7999 252.6 92.7 256.5 101.7C256.8 102.6 258 102 257.7 101.1C255.3 91.7999 253.5 82.7999 254.1 73.1999Z" fill="#5F5A59"/>
<path d="M240.9 249.6C265.5 249.6 285.6 269.7 285.6 294.3C285.6 318.9 265.5 339 240.9 339C216.3 339 196.2 318.9 196.2 294.3C196.2 269.7 216.3 249.6 240.9 249.6Z" fill="url(#paint0_linear_2374_2)"/>
<path d="M359.1 249.6C383.7 249.6 403.8 269.7 403.8 294.3C403.8 318.9 383.7 339 359.1 339C334.5 339 314.4 318.9 314.4 294.3C314.4 269.7 334.2 249.6 359.1 249.6Z" fill="url(#paint1_linear_2374_2)"/>
<path d="M412.5 288H404.7C401.4 265.5 382.2 248.4 359.1 248.4C338.4 248.4 320.7 262.2 315 280.8C314.7 280.5 314.7 280.2 314.4 279.9C312.9 278.1 310.8 277.2 307.8 276.9H292.5C289.5 276.9 287.4 278.1 285.9 279.9C285.6 280.2 285.3 280.5 285.3 280.8C279.3 261.9 261.9 248.4 241.2 248.4C217.8 248.4 198.6 265.8 195.6 288H187.8V294H195V294.6C195 320.1 215.7 340.8 241.2 340.8C266.7 340.8 287.4 320.1 287.4 294.6C287.4 291.9 287.1 289.5 286.8 286.8C286.8 286.8 286.5 283.8 288 281.7C288.9 280.5 290.4 279.9 292.5 279.9H307.8C309.9 279.9 311.4 280.5 312.3 281.7C314.1 283.8 313.5 286.8 313.5 286.8C313.2 289.2 312.9 291.9 312.9 294.6C312.9 320.1 333.6 340.8 359.1 340.8C384.6 340.8 405.3 320.1 405.3 294.6V294H412.5V288ZM240.9 337.8C217.2 337.8 197.7 318.3 197.7 294.6C197.7 270.9 217.2 251.4 240.9 251.4C264.6 251.4 284.1 270.9 284.1 294.6C284.1 318.3 264.9 337.8 240.9 337.8ZM359.1 337.8C335.4 337.8 315.9 318.3 315.9 294.6C315.9 270.9 335.4 251.4 359.1 251.4C382.8 251.4 402.3 270.9 402.3 294.6C402.3 318.3 382.8 337.8 359.1 337.8Z" fill="#210D34"/>
</g>
<defs>
<linearGradient id="paint0_linear_2374_2" x1="240.93" y1="249.69" x2="240.93" y2="339.21" gradientUnits="userSpaceOnUse">
<stop stop-color="#211810"/>
<stop offset="0.4752" stop-color="#231910" stop-opacity="0.5248"/>
<stop offset="0.6464" stop-color="#2A1D12" stop-opacity="0.3536"/>
<stop offset="0.7685" stop-color="#352315" stop-opacity="0.2315"/>
<stop offset="0.8671" stop-color="#462D18" stop-opacity="0.1329"/>
<stop offset="0.9506" stop-color="#5C391D" stop-opacity="0.0494"/>
<stop offset="1" stop-color="#6D4221" stop-opacity="0"/>
</linearGradient>
<linearGradient id="paint1_linear_2374_2" x1="359.07" y1="249.69" x2="359.07" y2="339.21" gradientUnits="userSpaceOnUse">
<stop stop-color="#211810"/>
<stop offset="0.4752" stop-color="#231910" stop-opacity="0.5248"/>
<stop offset="0.6464" stop-color="#2A1D12" stop-opacity="0.3536"/>
<stop offset="0.7685" stop-color="#352315" stop-opacity="0.2315"/>
<stop offset="0.8671" stop-color="#462D18" stop-opacity="0.1329"/>
<stop offset="0.9506" stop-color="#5C391D" stop-opacity="0.0494"/>
<stop offset="1" stop-color="#6D4221" stop-opacity="0"/>
</linearGradient>
<clipPath id="clip0_2374_2">
<rect width="600" height="600" fill="white"/>
</clipPath>
</defs>
</svg>
