<svg width="280" height="408" viewBox="0 0 280 408" fill="none" xmlns="http://www.w3.org/2000/svg">
<rect width="280" height="408" fill="#202124"/>
<circle cx="172" cy="324" r="24" fill="#F4B5FB"/>
<g clip-path="url(#clip0_2317_2)">
<g clip-path="url(#clip1_2317_2)">
<path d="M182.667 313.333H161.333C159.867 313.333 158.68 314.533 158.68 316L158.667 332C158.667 333.467 159.867 334.667 161.333 334.667H182.667C184.133 334.667 185.333 333.467 185.333 332V316C185.333 314.533 184.133 313.333 182.667 313.333ZM182.667 318.667L172 325.333L161.333 318.667V316L172 322.667L182.667 316V318.667Z" fill="#202124"/>
</g>
</g>
<path d="M159.208 380V371.003H163.517V371.98H160.282V374.934H163.077V375.911H160.282V379.023H163.517V380H159.208ZM164.884 380V373.408H165.897V374.153H166.068L165.75 374.543C165.844 374.194 166.039 373.901 166.336 373.665C166.633 373.429 166.992 373.311 167.411 373.311C167.773 373.311 168.096 373.431 168.381 373.671C168.666 373.911 168.871 374.226 168.998 374.617L168.607 374.25H169.083L168.705 374.617C168.823 374.226 169.052 373.911 169.394 373.671C169.74 373.431 170.133 373.311 170.572 373.311C171.13 373.311 171.575 373.52 171.909 373.939C172.247 374.358 172.416 374.91 172.416 375.593V380H171.39V375.569C171.39 375.17 171.286 374.849 171.079 374.604C170.875 374.36 170.609 374.238 170.279 374.238C169.938 374.238 169.665 374.362 169.461 374.611C169.258 374.859 169.156 375.178 169.156 375.569V380H168.131V375.569C168.131 375.17 168.029 374.849 167.826 374.604C167.626 374.36 167.358 374.238 167.02 374.238C166.69 374.238 166.422 374.366 166.214 374.623C166.011 374.875 165.909 375.203 165.909 375.605V380H164.884ZM175.577 380.098C175.211 380.098 174.885 380.012 174.601 379.841C174.316 379.67 174.092 379.436 173.929 379.139C173.766 378.842 173.685 378.507 173.685 378.132C173.685 377.489 173.911 376.989 174.363 376.631C174.818 376.273 175.418 376.094 176.163 376.094H177.323V376.924H176.2C175.72 376.924 175.343 377.028 175.071 377.235C174.798 377.443 174.662 377.729 174.662 378.096C174.662 378.429 174.761 378.7 174.961 378.907C175.16 379.115 175.418 379.219 175.736 379.219C175.992 379.219 176.228 379.152 176.444 379.017C176.66 378.879 176.83 378.692 176.957 378.456C177.087 378.216 177.152 377.941 177.152 377.632V376.887L177.127 376.533V375.374C177.127 375.032 177.014 374.761 176.786 374.562C176.558 374.362 176.273 374.263 175.931 374.263C175.663 374.263 175.382 374.32 175.089 374.434C174.796 374.543 174.552 374.69 174.356 374.873L173.966 373.97C174.243 373.762 174.57 373.601 174.948 373.488C175.327 373.37 175.683 373.311 176.017 373.311C176.639 373.311 177.142 373.49 177.524 373.848C177.911 374.202 178.104 374.678 178.104 375.276V378.352C178.104 378.56 178.137 378.722 178.202 378.84C178.267 378.958 178.36 379.052 178.482 379.121L178.592 379.182L178.202 380.098L178.055 380.024C177.811 379.902 177.618 379.738 177.475 379.53C177.337 379.323 177.262 379.133 177.25 378.962L177.433 379.158H177.066L177.384 378.926C177.221 379.28 176.983 379.565 176.67 379.78C176.356 379.992 175.992 380.098 175.577 380.098ZM179.862 380V373.408H180.887V380H179.862ZM180.375 372.493C180.151 372.493 179.962 372.417 179.807 372.267C179.656 372.112 179.581 371.923 179.581 371.699C179.581 371.475 179.656 371.288 179.807 371.138C179.962 370.983 180.151 370.906 180.375 370.906C180.598 370.906 180.785 370.983 180.936 371.138C181.091 371.288 181.168 371.475 181.168 371.699C181.168 371.923 181.091 372.112 180.936 372.267C180.785 372.417 180.598 372.493 180.375 372.493ZM183.805 380.098C183.516 380.098 183.28 380.033 183.097 379.902C182.918 379.772 182.785 379.587 182.7 379.347C182.615 379.103 182.572 378.812 182.572 378.474V370.601H183.597V378.499C183.597 378.56 183.603 378.641 183.615 378.743C183.632 378.844 183.672 378.938 183.738 379.023C183.803 379.105 183.915 379.146 184.073 379.146C184.179 379.146 184.273 379.129 184.354 379.097V380.024C184.277 380.049 184.187 380.067 184.085 380.079C183.984 380.092 183.89 380.098 183.805 380.098Z" fill="white"/>
<circle cx="235" cy="324" r="24" fill="#137356"/>
<path d="M223 333H239V330H223V333ZM223 315V318H247V315H223ZM223 325.5H247V322.5H223V325.5Z" fill="#202124"/>
<path d="M221.042 380V371.003H221.811L225.192 376.521L225.925 377.742H225.973L225.949 375.41V371.003H227.023V380H226.266L222.873 374.482L222.14 373.262H222.092L222.116 375.593V380H221.042ZM231.039 380.098C230.502 380.098 230.034 379.955 229.635 379.67C229.241 379.386 228.934 378.987 228.714 378.474C228.498 377.957 228.39 377.355 228.39 376.667C228.39 375.992 228.498 375.404 228.714 374.904C228.934 374.399 229.241 374.008 229.635 373.732C230.034 373.451 230.502 373.311 231.039 373.311C231.572 373.311 232.036 373.451 232.431 373.732C232.826 374.008 233.131 374.399 233.346 374.904C233.566 375.404 233.676 375.992 233.676 376.667C233.676 377.359 233.566 377.963 233.346 378.48C233.131 378.993 232.826 379.392 232.431 379.677C232.036 379.957 231.572 380.098 231.039 380.098ZM231.039 379.146C231.528 379.146 231.918 378.922 232.211 378.474C232.504 378.027 232.651 377.424 232.651 376.667C232.651 375.939 232.504 375.357 232.211 374.922C231.918 374.482 231.528 374.263 231.039 374.263C230.547 374.263 230.152 374.482 229.855 374.922C229.562 375.357 229.416 375.939 229.416 376.667C229.416 377.416 229.562 378.016 229.855 378.468C230.152 378.92 230.547 379.146 231.039 379.146ZM237.045 380.098C236.496 380.098 236.075 379.921 235.782 379.567C235.493 379.213 235.348 378.755 235.348 378.193V371.443H236.374V378.096C236.374 378.425 236.443 378.684 236.581 378.871C236.724 379.054 236.899 379.146 237.106 379.146C237.179 379.146 237.255 379.131 237.332 379.103C237.409 379.074 237.481 379.04 237.546 378.999L237.924 379.902C237.822 379.943 237.698 379.986 237.552 380.031C237.405 380.075 237.236 380.098 237.045 380.098ZM234.335 374.36V373.408H237.765V374.36H234.335ZM241.232 380.098C240.695 380.098 240.225 379.955 239.822 379.67C239.424 379.386 239.112 378.985 238.888 378.468C238.669 377.951 238.559 377.343 238.559 376.643C238.559 375.984 238.659 375.404 238.858 374.904C239.061 374.403 239.35 374.012 239.725 373.732C240.099 373.451 240.545 373.311 241.061 373.311C241.545 373.311 241.967 373.437 242.325 373.689C242.687 373.941 242.968 374.295 243.167 374.751C243.366 375.207 243.466 375.74 243.466 376.35C243.466 376.497 243.46 376.635 243.448 376.765C243.44 376.891 243.429 377.009 243.417 377.119H239.34V376.265H242.465C242.465 375.667 242.341 375.184 242.093 374.818C241.845 374.448 241.501 374.263 241.061 374.263C240.74 374.263 240.467 374.364 240.243 374.568C240.02 374.771 239.849 375.054 239.731 375.416C239.617 375.778 239.56 376.2 239.56 376.68C239.56 377.18 239.627 377.616 239.761 377.986C239.896 378.352 240.089 378.637 240.341 378.84C240.593 379.044 240.894 379.146 241.244 379.146C241.472 379.146 241.716 379.097 241.977 378.999C242.237 378.901 242.473 378.759 242.685 378.572L243.063 379.5C242.807 379.687 242.516 379.833 242.19 379.939C241.869 380.045 241.55 380.098 241.232 380.098ZM246.469 380.098C246.091 380.098 245.706 380.01 245.315 379.835C244.929 379.656 244.597 379.414 244.321 379.109L244.736 378.181C244.98 378.486 245.254 378.728 245.56 378.907C245.865 379.082 246.152 379.17 246.42 379.17C246.709 379.17 246.947 379.076 247.134 378.889C247.326 378.698 247.421 378.466 247.421 378.193C247.421 377.913 247.319 377.677 247.116 377.485C246.913 377.29 246.599 377.123 246.176 376.985C245.859 376.879 245.574 376.733 245.322 376.545C245.073 376.358 244.876 376.136 244.729 375.88C244.587 375.624 244.516 375.337 244.516 375.02C244.516 374.678 244.599 374.379 244.766 374.122C244.933 373.866 245.157 373.667 245.438 373.524C245.722 373.382 246.042 373.311 246.396 373.311C246.733 373.311 247.065 373.376 247.391 373.506C247.716 373.636 247.983 373.815 248.19 374.043L247.812 374.946C247.629 374.727 247.411 374.554 247.159 374.427C246.91 374.301 246.664 374.238 246.42 374.238C246.16 374.238 245.944 374.316 245.773 374.47C245.602 374.625 245.517 374.824 245.517 375.068C245.517 375.329 245.617 375.553 245.816 375.74C246.019 375.923 246.331 376.086 246.75 376.228C247.067 376.334 247.352 376.476 247.604 376.655C247.857 376.83 248.056 377.046 248.202 377.302C248.349 377.559 248.422 377.86 248.422 378.206C248.422 378.572 248.337 378.897 248.166 379.182C247.995 379.467 247.761 379.691 247.464 379.854C247.171 380.016 246.839 380.098 246.469 380.098Z" fill="white"/>
<circle cx="109" cy="324" r="24" fill="#3C4043"/>
<g clip-path="url(#clip2_2317_2)">
<path d="M108.262 329.506L106.985 332.43C106.495 333.554 104.939 333.554 104.449 332.43L103.172 329.506C102.036 326.904 99.9912 324.833 97.4405 323.701L93.9267 322.141C92.8096 321.645 92.8096 320.02 93.9267 319.524L97.3308 318.013C99.947 316.852 102.029 314.704 103.145 312.013L104.438 308.897C104.918 307.741 106.516 307.741 106.996 308.897L108.289 312.013C109.405 314.704 111.487 316.852 114.103 318.013L117.507 319.524C118.624 320.02 118.624 321.645 117.507 322.141L113.993 323.701C111.443 324.833 109.398 326.904 108.262 329.506Z" fill="url(#paint0_radial_2317_2)"/>
<path d="M120.126 338.726L119.766 339.548C119.504 340.151 118.67 340.151 118.407 339.548L118.048 338.726C117.408 337.258 116.255 336.09 114.817 335.451L113.711 334.96C113.113 334.694 113.113 333.825 113.711 333.559L114.755 333.095C116.23 332.44 117.404 331.228 118.033 329.711L118.401 328.822C118.658 328.202 119.515 328.202 119.772 328.822L120.141 329.711C120.77 331.228 121.943 332.44 123.418 333.095L124.463 333.559C125.061 333.825 125.061 334.694 124.463 334.96L123.356 335.451C121.918 336.09 120.765 337.258 120.126 338.726Z" fill="url(#paint1_radial_2317_2)"/>
</g>
<path d="M92.7712 380.098C92.0022 380.098 91.3328 379.908 90.7632 379.53C90.1935 379.152 89.75 378.619 89.4326 377.931C89.1193 377.239 88.9626 376.427 88.9626 375.496C88.9626 374.568 89.1213 373.76 89.4387 373.073C89.7561 372.385 90.2037 371.852 90.7815 371.473C91.3593 371.095 92.0388 370.906 92.8201 370.906C93.2432 370.906 93.6766 370.981 94.1201 371.132C94.5636 371.282 94.9319 371.479 95.2249 371.724L94.8098 372.725C94.5901 372.472 94.3053 372.269 93.9553 372.114C93.6095 371.96 93.2595 371.882 92.9055 371.882C92.3236 371.882 91.8171 372.033 91.3857 372.334C90.9585 372.631 90.6269 373.05 90.3909 373.591C90.1549 374.132 90.0369 374.767 90.0369 375.496C90.0369 376.224 90.1508 376.861 90.3787 377.406C90.6106 377.947 90.9361 378.368 91.3552 378.669C91.7784 378.971 92.2748 379.121 92.8445 379.121C93.2229 379.121 93.5891 379.032 93.9431 378.853C94.2971 378.669 94.586 378.438 94.8098 378.157L95.2371 379.17C94.9197 379.455 94.5372 379.681 94.0896 379.847C93.6461 380.014 93.2066 380.098 92.7712 380.098ZM96.4456 380V370.601H97.4709V374.116H97.7029L97.2756 374.531C97.3977 374.153 97.6276 373.856 97.9653 373.64C98.3071 373.42 98.6917 373.311 99.1189 373.311C99.7008 373.311 100.165 373.508 100.51 373.903C100.86 374.293 101.035 374.816 101.035 375.471V380H100.01V375.593C100.01 375.182 99.8961 374.855 99.6682 374.611C99.4444 374.362 99.1555 374.238 98.8015 374.238C98.537 374.238 98.3051 374.295 98.1057 374.409C97.9063 374.523 97.7497 374.684 97.6357 374.891C97.5259 375.095 97.4709 375.333 97.4709 375.605V380H96.4456ZM104.197 380.098C103.831 380.098 103.505 380.012 103.22 379.841C102.936 379.67 102.712 379.436 102.549 379.139C102.386 378.842 102.305 378.507 102.305 378.132C102.305 377.489 102.531 376.989 102.982 376.631C103.438 376.273 104.038 376.094 104.783 376.094H105.943V376.924H104.82C104.339 376.924 103.963 377.028 103.69 377.235C103.418 377.443 103.281 377.729 103.281 378.096C103.281 378.429 103.381 378.7 103.581 378.907C103.78 379.115 104.038 379.219 104.356 379.219C104.612 379.219 104.848 379.152 105.064 379.017C105.279 378.879 105.45 378.692 105.576 378.456C105.707 378.216 105.772 377.941 105.772 377.632V376.887L105.747 376.533V375.374C105.747 375.032 105.633 374.761 105.406 374.562C105.178 374.362 104.893 374.263 104.551 374.263C104.282 374.263 104.002 374.32 103.709 374.434C103.416 374.543 103.172 374.69 102.976 374.873L102.586 373.97C102.862 373.762 103.19 373.601 103.568 373.488C103.947 373.37 104.303 373.311 104.636 373.311C105.259 373.311 105.762 373.49 106.144 373.848C106.531 374.202 106.724 374.678 106.724 375.276V378.352C106.724 378.56 106.756 378.722 106.822 378.84C106.887 378.958 106.98 379.052 107.102 379.121L107.212 379.182L106.822 380.098L106.675 380.024C106.431 379.902 106.238 379.738 106.095 379.53C105.957 379.323 105.882 379.133 105.869 378.962L106.052 379.158H105.686L106.004 378.926C105.841 379.28 105.603 379.565 105.29 379.78C104.976 379.992 104.612 380.098 104.197 380.098ZM110.508 380.098C109.959 380.098 109.538 379.921 109.245 379.567C108.956 379.213 108.811 378.755 108.811 378.193V371.443H109.837V378.096C109.837 378.425 109.906 378.684 110.044 378.871C110.187 379.054 110.362 379.146 110.569 379.146C110.642 379.146 110.718 379.131 110.795 379.103C110.872 379.074 110.943 379.04 111.009 378.999L111.387 379.902C111.285 379.943 111.161 379.986 111.015 380.031C110.868 380.075 110.699 380.098 110.508 380.098ZM107.798 374.36V373.408H111.228V374.36H107.798ZM112.51 380V370.601H113.535V374.141H113.633L113.413 375.081V378.499L113.694 379.243H113.535V380H112.51ZM115.244 380.098C114.5 380.098 113.924 379.797 113.517 379.194C113.114 378.588 112.913 377.754 112.913 376.692C112.913 375.642 113.112 374.816 113.511 374.214C113.914 373.612 114.488 373.311 115.232 373.311C116.009 373.311 116.614 373.612 117.045 374.214C117.48 374.816 117.698 375.642 117.698 376.692C117.698 377.746 117.48 378.578 117.045 379.188C116.614 379.795 116.013 380.098 115.244 380.098ZM115.037 379.146C115.545 379.146 115.944 378.926 116.233 378.486C116.526 378.047 116.673 377.449 116.673 376.692C116.673 375.935 116.524 375.341 116.227 374.91C115.934 374.478 115.537 374.263 115.037 374.263C114.532 374.263 114.14 374.478 113.859 374.91C113.578 375.341 113.438 375.935 113.438 376.692C113.438 377.461 113.578 378.063 113.859 378.499C114.14 378.93 114.532 379.146 115.037 379.146ZM121.323 380.098C120.786 380.098 120.318 379.955 119.92 379.67C119.525 379.386 119.218 378.987 118.998 378.474C118.782 377.957 118.675 377.355 118.675 376.667C118.675 375.992 118.782 375.404 118.998 374.904C119.218 374.399 119.525 374.008 119.92 373.732C120.318 373.451 120.786 373.311 121.323 373.311C121.857 373.311 122.32 373.451 122.715 373.732C123.11 374.008 123.415 374.399 123.631 374.904C123.85 375.404 123.96 375.992 123.96 376.667C123.96 377.359 123.85 377.963 123.631 378.48C123.415 378.993 123.11 379.392 122.715 379.677C122.32 379.957 121.857 380.098 121.323 380.098ZM121.323 379.146C121.812 379.146 122.202 378.922 122.495 378.474C122.788 378.027 122.935 377.424 122.935 376.667C122.935 375.939 122.788 375.357 122.495 374.922C122.202 374.482 121.812 374.263 121.323 374.263C120.831 374.263 120.436 374.482 120.139 374.922C119.846 375.357 119.7 375.939 119.7 376.667C119.7 377.416 119.846 378.016 120.139 378.468C120.436 378.92 120.831 379.146 121.323 379.146ZM127.329 380.098C126.78 380.098 126.359 379.921 126.066 379.567C125.777 379.213 125.633 378.755 125.633 378.193V371.443H126.658V378.096C126.658 378.425 126.727 378.684 126.865 378.871C127.008 379.054 127.183 379.146 127.39 379.146C127.464 379.146 127.539 379.131 127.616 379.103C127.694 379.074 127.765 379.04 127.83 378.999L128.208 379.902C128.107 379.943 127.982 379.986 127.836 380.031C127.689 380.075 127.521 380.098 127.329 380.098ZM124.619 374.36V373.408H128.05V374.36H124.619Z" fill="white"/>
<circle cx="46" cy="324" r="24" fill="#E37400"/>
<g clip-path="url(#clip3_2317_2)">
<path d="M35.3335 322C34.2268 322 33.3335 322.893 33.3335 324C33.3335 325.107 34.2268 326 35.3335 326C36.4402 326 37.3335 325.107 37.3335 324C37.3335 322.893 36.4402 322 35.3335 322ZM35.3335 314C34.2268 314 33.3335 314.893 33.3335 316C33.3335 317.107 34.2268 318 35.3335 318C36.4402 318 37.3335 317.107 37.3335 316C37.3335 314.893 36.4402 314 35.3335 314ZM35.3335 330C34.2268 330 33.3335 330.907 33.3335 332C33.3335 333.093 34.2402 334 35.3335 334C36.4268 334 37.3335 333.093 37.3335 332C37.3335 330.907 36.4402 330 35.3335 330ZM39.3335 333.333H58.0002V330.667H39.3335V333.333ZM39.3335 325.333H58.0002V322.667H39.3335V325.333ZM39.3335 314.667V317.333H58.0002V314.667H39.3335Z" fill="#202124"/>
</g>
<path d="M32.3103 372V363.772H33.3845V372H32.3103ZM30.2961 363.98V363.003H35.3987V363.98H30.2961ZM38.0232 372.098C37.4861 372.098 37.0181 371.955 36.6194 371.67C36.2247 371.386 35.9175 370.987 35.6978 370.474C35.4821 369.957 35.3743 369.355 35.3743 368.667C35.3743 367.992 35.4821 367.404 35.6978 366.904C35.9175 366.399 36.2247 366.008 36.6194 365.732C37.0181 365.451 37.4861 365.311 38.0232 365.311C38.5562 365.311 39.0201 365.451 39.4148 365.732C39.8095 366.008 40.1147 366.399 40.3303 366.904C40.55 367.404 40.6599 367.992 40.6599 368.667C40.6599 369.359 40.55 369.963 40.3303 370.48C40.1147 370.993 39.8095 371.392 39.4148 371.677C39.0201 371.957 38.5562 372.098 38.0232 372.098ZM38.0232 371.146C38.5115 371.146 38.9021 370.922 39.1951 370.474C39.488 370.027 39.6345 369.424 39.6345 368.667C39.6345 367.939 39.488 367.357 39.1951 366.922C38.9021 366.482 38.5115 366.263 38.0232 366.263C37.5308 366.263 37.1361 366.482 36.8391 366.922C36.5461 367.357 36.3997 367.939 36.3997 368.667C36.3997 369.416 36.5461 370.016 36.8391 370.468C37.1361 370.92 37.5308 371.146 38.0232 371.146ZM41.8074 369.119V368.204H44.8225V369.119H41.8074ZM51.2556 372.098C51.0318 371.976 50.8507 371.851 50.7124 371.725C50.5741 371.599 50.4703 371.463 50.4011 371.316C50.336 371.166 50.2994 370.995 50.2913 370.804L50.4744 370.975H49.9983L50.2668 370.23V366.983L50.0105 366.263H50.1326V362.601H51.158V370.401C51.158 370.608 51.2007 370.765 51.2861 370.871C51.3716 370.977 51.4957 371.076 51.6584 371.17L51.2556 372.098ZM48.4236 372.098C47.6545 372.098 47.0523 371.795 46.6169 371.188C46.1856 370.578 45.97 369.746 45.97 368.692C45.97 367.642 46.1877 366.816 46.623 366.214C47.0584 365.612 47.6627 365.311 48.4358 365.311C49.1804 365.311 49.7521 365.612 50.1509 366.214C50.5537 366.816 50.7551 367.642 50.7551 368.692C50.7551 369.754 50.5517 370.588 50.1448 371.194C49.7419 371.797 49.1682 372.098 48.4236 372.098ZM48.6311 371.146C49.1397 371.146 49.5324 370.93 49.8091 370.499C50.0898 370.063 50.2302 369.461 50.2302 368.692C50.2302 367.935 50.0898 367.341 49.8091 366.91C49.5324 366.478 49.1397 366.263 48.6311 366.263C48.1306 366.263 47.7319 366.478 47.4348 366.91C47.1418 367.341 46.9954 367.935 46.9954 368.692C46.9954 369.449 47.1418 370.047 47.4348 370.486C47.7278 370.926 48.1265 371.146 48.6311 371.146ZM55.2351 372.098C54.698 372.098 54.2301 371.955 53.8313 371.67C53.4366 371.386 53.1294 370.987 52.9097 370.474C52.694 369.957 52.5862 369.355 52.5862 368.667C52.5862 367.992 52.694 367.404 52.9097 366.904C53.1294 366.399 53.4366 366.008 53.8313 365.732C54.2301 365.451 54.698 365.311 55.2351 365.311C55.7681 365.311 56.232 365.451 56.6267 365.732C57.0214 366.008 57.3266 366.399 57.5422 366.904C57.762 367.404 57.8718 367.992 57.8718 368.667C57.8718 369.359 57.762 369.963 57.5422 370.48C57.3266 370.993 57.0214 371.392 56.6267 371.677C56.232 371.957 55.7681 372.098 55.2351 372.098ZM55.2351 371.146C55.7234 371.146 56.114 370.922 56.407 370.474C56.7 370.027 56.8464 369.424 56.8464 368.667C56.8464 367.939 56.7 367.357 56.407 366.922C56.114 366.482 55.7234 366.263 55.2351 366.263C54.7428 366.263 54.3481 366.482 54.051 366.922C53.7581 367.357 53.6116 367.939 53.6116 368.667C53.6116 369.416 53.7581 370.016 54.051 370.468C54.3481 370.92 54.7428 371.146 55.2351 371.146ZM40.1167 388.098C39.8278 388.098 39.5918 388.033 39.4087 387.902C39.2297 387.772 39.0974 387.587 39.012 387.347C38.9265 387.103 38.8838 386.812 38.8838 386.474V378.601H39.9092V386.499C39.9092 386.56 39.9153 386.641 39.9275 386.743C39.9438 386.844 39.9845 386.938 40.0496 387.023C40.1147 387.105 40.2266 387.146 40.3853 387.146C40.491 387.146 40.5846 387.129 40.666 387.097V388.024C40.5887 388.049 40.4992 388.067 40.3975 388.079C40.2957 388.092 40.2021 388.098 40.1167 388.098ZM41.96 388V381.408H42.9854V388H41.96ZM42.4727 380.493C42.2489 380.493 42.0597 380.417 41.905 380.267C41.7545 380.112 41.6792 379.923 41.6792 379.699C41.6792 379.475 41.7545 379.288 41.905 379.138C42.0597 378.983 42.2489 378.906 42.4727 378.906C42.6965 378.906 42.8836 378.983 43.0342 379.138C43.1888 379.288 43.2661 379.475 43.2661 379.699C43.2661 379.923 43.1888 380.112 43.0342 380.267C42.8836 380.417 42.6965 380.493 42.4727 380.493ZM46.3545 388.098C45.9761 388.098 45.5916 388.01 45.2009 387.835C44.8144 387.656 44.4827 387.414 44.2061 387.109L44.6211 386.181C44.8652 386.486 45.1399 386.728 45.4451 386.907C45.7502 387.082 46.0371 387.17 46.3057 387.17C46.5946 387.17 46.8326 387.076 47.0198 386.889C47.211 386.698 47.3066 386.466 47.3066 386.193C47.3066 385.913 47.2049 385.677 47.0015 385.485C46.798 385.29 46.4847 385.123 46.0615 384.985C45.7441 384.879 45.4593 384.733 45.207 384.545C44.9588 384.358 44.7615 384.136 44.615 383.88C44.4726 383.624 44.4014 383.337 44.4014 383.02C44.4014 382.678 44.4848 382.379 44.6516 382.122C44.8184 381.866 45.0422 381.667 45.323 381.524C45.6078 381.382 45.9272 381.311 46.2812 381.311C46.619 381.311 46.9506 381.376 47.2761 381.506C47.6016 381.636 47.8682 381.815 48.0757 382.043L47.6973 382.946C47.5142 382.727 47.2965 382.554 47.0442 382.427C46.796 382.301 46.5498 382.238 46.3057 382.238C46.0452 382.238 45.8296 382.316 45.6587 382.47C45.4878 382.625 45.4023 382.824 45.4023 383.068C45.4023 383.329 45.502 383.553 45.7014 383.74C45.9049 383.923 46.2161 384.086 46.6353 384.228C46.9526 384.334 47.2375 384.476 47.4897 384.655C47.742 384.83 47.9414 385.046 48.0879 385.302C48.2344 385.559 48.3076 385.86 48.3076 386.206C48.3076 386.572 48.2222 386.897 48.0513 387.182C47.8804 387.467 47.6464 387.691 47.3494 387.854C47.0564 388.016 46.7248 388.098 46.3545 388.098ZM51.7012 388.098C51.1519 388.098 50.7307 387.921 50.4377 387.567C50.1488 387.213 50.0044 386.755 50.0044 386.193V379.443H51.0298V386.096C51.0298 386.425 51.099 386.684 51.2373 386.871C51.3797 387.054 51.5547 387.146 51.7622 387.146C51.8354 387.146 51.9107 387.131 51.988 387.103C52.0653 387.074 52.1366 387.04 52.2017 386.999L52.5801 387.902C52.4784 387.943 52.3542 387.986 52.2078 388.031C52.0613 388.075 51.8924 388.098 51.7012 388.098ZM48.9912 382.36V381.408H52.4214V382.36H48.9912Z" fill="white"/>
<rect x="85" y="194" width="48" height="48" rx="24" fill="#FDD663"/>
<g clip-path="url(#clip4_2317_2)">
<path d="M110.333 206C103.707 206 98.3335 211.373 98.3335 218H94.3335L99.5202 223.187L99.6135 223.373L105 218H101C101 212.84 105.173 208.667 110.333 208.667C115.493 208.667 119.667 212.84 119.667 218C119.667 223.16 115.493 227.333 110.333 227.333C107.76 227.333 105.427 226.28 103.747 224.587L101.853 226.48C104.027 228.653 107.013 230 110.333 230C116.96 230 122.333 224.627 122.333 218C122.333 211.373 116.96 206 110.333 206ZM109 212.667V219.333L114.707 222.72L115.667 221.107L111 218.333V212.667H109Z" fill="black"/>
</g>
<path d="M87.7725 266.098C87.0034 266.098 86.3341 265.908 85.7644 265.53C85.1947 265.152 84.7512 264.619 84.4338 263.931C84.1205 263.239 83.9639 262.427 83.9639 261.496C83.9639 260.568 84.1226 259.76 84.4399 259.073C84.7573 258.385 85.2049 257.852 85.7827 257.473C86.3605 257.095 87.04 256.906 87.8213 256.906C88.2445 256.906 88.6778 256.981 89.1213 257.132C89.5649 257.282 89.9331 257.479 90.2261 257.724L89.811 258.725C89.5913 258.472 89.3065 258.269 88.9565 258.114C88.6107 257.96 88.2607 257.882 87.9067 257.882C87.3249 257.882 86.8183 258.033 86.387 258.334C85.9597 258.631 85.6281 259.05 85.3921 259.591C85.1561 260.132 85.0381 260.767 85.0381 261.496C85.0381 262.224 85.152 262.861 85.3799 263.406C85.6118 263.947 85.9373 264.368 86.3564 264.669C86.7796 264.971 87.276 265.121 87.8457 265.121C88.2241 265.121 88.5903 265.032 88.9443 264.853C89.2983 264.669 89.5872 264.438 89.811 264.157L90.2383 265.17C89.9209 265.455 89.5384 265.681 89.0908 265.847C88.6473 266.014 88.2078 266.098 87.7725 266.098ZM93.6074 266.098C93.0703 266.098 92.6024 265.955 92.2036 265.67C91.8089 265.386 91.5017 264.987 91.282 264.474C91.0663 263.957 90.9585 263.355 90.9585 262.667C90.9585 261.992 91.0663 261.404 91.282 260.904C91.5017 260.399 91.8089 260.008 92.2036 259.732C92.6024 259.451 93.0703 259.311 93.6074 259.311C94.1405 259.311 94.6043 259.451 94.999 259.732C95.3937 260.008 95.6989 260.399 95.9146 260.904C96.1343 261.404 96.2441 261.992 96.2441 262.667C96.2441 263.359 96.1343 263.963 95.9146 264.48C95.6989 264.993 95.3937 265.392 94.999 265.677C94.6043 265.957 94.1405 266.098 93.6074 266.098ZM93.6074 265.146C94.0957 265.146 94.4863 264.922 94.7793 264.474C95.0723 264.027 95.2188 263.424 95.2188 262.667C95.2188 261.939 95.0723 261.357 94.7793 260.922C94.4863 260.482 94.0957 260.263 93.6074 260.263C93.1151 260.263 92.7204 260.482 92.4233 260.922C92.1304 261.357 91.9839 261.939 91.9839 262.667C91.9839 263.416 92.1304 264.016 92.4233 264.468C92.7204 264.92 93.1151 265.146 93.6074 265.146ZM97.5381 266V259.408H98.5513V260.153H98.7222L98.4048 260.543C98.4984 260.194 98.6937 259.901 98.9907 259.665C99.2878 259.429 99.6458 259.311 100.065 259.311C100.427 259.311 100.751 259.431 101.035 259.671C101.32 259.911 101.526 260.226 101.652 260.617L101.261 260.25H101.737L101.359 260.617C101.477 260.226 101.707 259.911 102.049 259.671C102.394 259.431 102.787 259.311 103.227 259.311C103.784 259.311 104.23 259.52 104.563 259.939C104.901 260.358 105.07 260.91 105.07 261.593V266H104.044V261.569C104.044 261.17 103.941 260.849 103.733 260.604C103.53 260.36 103.263 260.238 102.934 260.238C102.592 260.238 102.319 260.362 102.116 260.611C101.912 260.859 101.811 261.178 101.811 261.569V266H100.785V261.569C100.785 261.17 100.683 260.849 100.48 260.604C100.281 260.36 100.012 260.238 99.6743 260.238C99.3447 260.238 99.0762 260.366 98.8687 260.623C98.6652 260.875 98.5635 261.203 98.5635 261.605V266H97.5381ZM106.608 266V259.408H107.621V260.153H107.792L107.475 260.543C107.568 260.194 107.764 259.901 108.061 259.665C108.358 259.429 108.716 259.311 109.135 259.311C109.497 259.311 109.82 259.431 110.105 259.671C110.39 259.911 110.596 260.226 110.722 260.617L110.331 260.25H110.807L110.429 260.617C110.547 260.226 110.777 259.911 111.118 259.671C111.464 259.431 111.857 259.311 112.296 259.311C112.854 259.311 113.299 259.52 113.633 259.939C113.971 260.358 114.14 260.91 114.14 261.593V266H113.114V261.569C113.114 261.17 113.01 260.849 112.803 260.604C112.6 260.36 112.333 260.238 112.003 260.238C111.662 260.238 111.389 260.362 111.186 260.611C110.982 260.859 110.88 261.178 110.88 261.569V266H109.855V261.569C109.855 261.17 109.753 260.849 109.55 260.604C109.35 260.36 109.082 260.238 108.744 260.238C108.415 260.238 108.146 260.366 107.938 260.623C107.735 260.875 107.633 261.203 107.633 261.605V266H106.608ZM117.301 266.098C116.935 266.098 116.61 266.012 116.325 265.841C116.04 265.67 115.816 265.436 115.653 265.139C115.491 264.842 115.409 264.507 115.409 264.132C115.409 263.489 115.635 262.989 116.087 262.631C116.542 262.273 117.143 262.094 117.887 262.094H119.047V262.924H117.924C117.444 262.924 117.067 263.028 116.795 263.235C116.522 263.443 116.386 263.729 116.386 264.096C116.386 264.429 116.485 264.7 116.685 264.907C116.884 265.115 117.143 265.219 117.46 265.219C117.716 265.219 117.952 265.152 118.168 265.017C118.384 264.879 118.555 264.692 118.681 264.456C118.811 264.216 118.876 263.941 118.876 263.632V262.887L118.852 262.533V261.374C118.852 261.032 118.738 260.761 118.51 260.562C118.282 260.362 117.997 260.263 117.655 260.263C117.387 260.263 117.106 260.32 116.813 260.434C116.52 260.543 116.276 260.69 116.081 260.873L115.69 259.97C115.967 259.762 116.294 259.601 116.673 259.488C117.051 259.37 117.407 259.311 117.741 259.311C118.363 259.311 118.866 259.49 119.248 259.848C119.635 260.202 119.828 260.678 119.828 261.276V264.352C119.828 264.56 119.861 264.722 119.926 264.84C119.991 264.958 120.084 265.052 120.207 265.121L120.316 265.182L119.926 266.098L119.779 266.024C119.535 265.902 119.342 265.738 119.199 265.53C119.061 265.323 118.986 265.133 118.974 264.962L119.157 265.158H118.791L119.108 264.926C118.945 265.28 118.707 265.565 118.394 265.78C118.08 265.992 117.716 266.098 117.301 266.098ZM121.537 266V259.408H122.562V260.141H122.794L122.379 260.556C122.51 260.157 122.746 259.85 123.087 259.634C123.429 259.418 123.808 259.311 124.223 259.311C124.796 259.311 125.256 259.514 125.602 259.921C125.952 260.324 126.127 260.853 126.127 261.508V266H125.102V261.63C125.102 261.215 124.99 260.879 124.766 260.623C124.546 260.366 124.255 260.238 123.893 260.238C123.633 260.238 123.403 260.297 123.203 260.415C123.004 260.533 122.847 260.698 122.733 260.91C122.619 261.117 122.562 261.361 122.562 261.642V266H121.537ZM132.682 266.098C132.458 265.976 132.277 265.851 132.139 265.725C132.001 265.599 131.897 265.463 131.828 265.316C131.763 265.166 131.726 264.995 131.718 264.804L131.901 264.975H131.425L131.693 264.23V260.983L131.437 260.263H131.559V256.601H132.584V264.401C132.584 264.608 132.627 264.765 132.713 264.871C132.798 264.977 132.922 265.076 133.085 265.17L132.682 266.098ZM129.85 266.098C129.081 266.098 128.479 265.795 128.043 265.188C127.612 264.578 127.396 263.746 127.396 262.692C127.396 261.642 127.614 260.816 128.05 260.214C128.485 259.612 129.089 259.311 129.862 259.311C130.607 259.311 131.179 259.612 131.577 260.214C131.98 260.816 132.182 261.642 132.182 262.692C132.182 263.754 131.978 264.588 131.571 265.194C131.168 265.797 130.595 266.098 129.85 266.098ZM130.058 265.146C130.566 265.146 130.959 264.93 131.236 264.499C131.516 264.063 131.657 263.461 131.657 262.692C131.657 261.935 131.516 261.341 131.236 260.91C130.959 260.478 130.566 260.263 130.058 260.263C129.557 260.263 129.158 260.478 128.861 260.91C128.568 261.341 128.422 261.935 128.422 262.692C128.422 263.449 128.568 264.047 128.861 264.486C129.154 264.926 129.553 265.146 130.058 265.146ZM91.5505 282V273.003H92.6248V276.91H96.4089V273.003H97.4832V282H96.4089V277.886H92.6248V282H91.5505ZM99.2654 282V275.408H100.291V282H99.2654ZM99.7781 274.493C99.5543 274.493 99.3651 274.417 99.2104 274.267C99.0599 274.112 98.9846 273.923 98.9846 273.699C98.9846 273.475 99.0599 273.288 99.2104 273.138C99.3651 272.983 99.5543 272.906 99.7781 272.906C100.002 272.906 100.189 272.983 100.34 273.138C100.494 273.288 100.572 273.475 100.572 273.699C100.572 273.923 100.494 274.112 100.34 274.267C100.189 274.417 100.002 274.493 99.7781 274.493ZM103.66 282.098C103.281 282.098 102.897 282.01 102.506 281.835C102.12 281.656 101.788 281.414 101.511 281.109L101.927 280.181C102.171 280.486 102.445 280.728 102.75 280.907C103.056 281.082 103.343 281.17 103.611 281.17C103.9 281.17 104.138 281.076 104.325 280.889C104.516 280.698 104.612 280.466 104.612 280.193C104.612 279.913 104.51 279.677 104.307 279.485C104.103 279.29 103.79 279.123 103.367 278.985C103.05 278.879 102.765 278.733 102.512 278.545C102.264 278.358 102.067 278.136 101.92 277.88C101.778 277.624 101.707 277.337 101.707 277.02C101.707 276.678 101.79 276.379 101.957 276.122C102.124 275.866 102.348 275.667 102.628 275.524C102.913 275.382 103.233 275.311 103.587 275.311C103.924 275.311 104.256 275.376 104.582 275.506C104.907 275.636 105.174 275.815 105.381 276.043L105.003 276.946C104.82 276.727 104.602 276.554 104.35 276.427C104.101 276.301 103.855 276.238 103.611 276.238C103.351 276.238 103.135 276.316 102.964 276.47C102.793 276.625 102.708 276.824 102.708 277.068C102.708 277.329 102.807 277.553 103.007 277.74C103.21 277.923 103.522 278.086 103.941 278.228C104.258 278.334 104.543 278.476 104.795 278.655C105.047 278.83 105.247 279.046 105.393 279.302C105.54 279.559 105.613 279.86 105.613 280.206C105.613 280.572 105.528 280.897 105.357 281.182C105.186 281.467 104.952 281.691 104.655 281.854C104.362 282.016 104.03 282.098 103.66 282.098ZM109.007 282.098C108.457 282.098 108.036 281.921 107.743 281.567C107.454 281.213 107.31 280.755 107.31 280.193V273.443H108.335V280.096C108.335 280.425 108.404 280.684 108.543 280.871C108.685 281.054 108.86 281.146 109.068 281.146C109.141 281.146 109.216 281.131 109.293 281.103C109.371 281.074 109.442 281.04 109.507 280.999L109.885 281.902C109.784 281.943 109.66 281.986 109.513 282.031C109.367 282.075 109.198 282.098 109.007 282.098ZM106.297 276.36V275.408H109.727V276.36H106.297ZM113.169 282.098C112.632 282.098 112.164 281.955 111.765 281.67C111.371 281.386 111.063 280.987 110.844 280.474C110.628 279.957 110.52 279.355 110.52 278.667C110.52 277.992 110.628 277.404 110.844 276.904C111.063 276.399 111.371 276.008 111.765 275.732C112.164 275.451 112.632 275.311 113.169 275.311C113.702 275.311 114.166 275.451 114.561 275.732C114.955 276.008 115.261 276.399 115.476 276.904C115.696 277.404 115.806 277.992 115.806 278.667C115.806 279.359 115.696 279.963 115.476 280.48C115.261 280.993 114.955 281.392 114.561 281.677C114.166 281.957 113.702 282.098 113.169 282.098ZM113.169 281.146C113.657 281.146 114.048 280.922 114.341 280.474C114.634 280.027 114.781 279.424 114.781 278.667C114.781 277.939 114.634 277.357 114.341 276.922C114.048 276.482 113.657 276.263 113.169 276.263C112.677 276.263 112.282 276.482 111.985 276.922C111.692 277.357 111.546 277.939 111.546 278.667C111.546 279.416 111.692 280.016 111.985 280.468C112.282 280.92 112.677 281.146 113.169 281.146ZM117.1 282V275.408H118.125V276.299H118.296L117.979 276.702C118.064 276.438 118.19 276.202 118.357 275.994C118.524 275.783 118.727 275.616 118.968 275.494C119.212 275.372 119.492 275.311 119.81 275.311C119.92 275.311 120.034 275.321 120.152 275.341C120.274 275.357 120.355 275.376 120.396 275.396L119.969 276.421C119.94 276.409 119.885 276.399 119.804 276.391C119.726 276.379 119.647 276.373 119.566 276.373C119.362 276.373 119.149 276.436 118.925 276.562C118.701 276.684 118.512 276.881 118.357 277.154C118.203 277.426 118.125 277.785 118.125 278.228V282H117.1ZM121.909 284.661C121.71 284.661 121.517 284.635 121.33 284.582C121.142 284.529 121.002 284.478 120.908 284.429L121.287 283.501C121.38 283.562 121.486 283.613 121.604 283.654C121.722 283.699 121.824 283.721 121.909 283.721C122.109 283.721 122.272 283.658 122.398 283.532C122.524 283.406 122.624 283.257 122.697 283.086C122.77 282.916 122.825 282.765 122.862 282.635L123.179 281.475V282.269L120.738 275.408H121.861L123.118 279.375L123.509 280.608H123.557L123.911 279.375L125.034 275.408H126.133L123.765 282.891C123.716 283.046 123.649 283.223 123.563 283.422C123.482 283.626 123.37 283.821 123.228 284.008C123.089 284.195 122.912 284.35 122.697 284.472C122.485 284.598 122.223 284.661 121.909 284.661Z" fill="white"/>
<rect x="22" y="194" width="48" height="48" rx="24" fill="#AECBFA"/>
<g clip-path="url(#clip5_2317_2)">
<path d="M55.3333 204.667H49.76C49.2 203.12 47.7333 202 46 202C44.2667 202 42.8 203.12 42.24 204.667H36.6667C35.2 204.667 34 205.867 34 207.333V228.667C34 230.133 35.2 231.333 36.6667 231.333H55.3333C56.8 231.333 58 230.133 58 228.667V207.333C58 205.867 56.8 204.667 55.3333 204.667ZM46 204.667C46.7333 204.667 47.3333 205.267 47.3333 206C47.3333 206.733 46.7333 207.333 46 207.333C45.2667 207.333 44.6667 206.733 44.6667 206C44.6667 205.267 45.2667 204.667 46 204.667ZM55.3333 228.667H36.6667V207.333H39.3333V211.333H52.6667V207.333H55.3333V228.667Z" fill="#202124"/>
</g>
<path d="M38.0476 266.098C37.2786 266.098 36.6092 265.908 36.0396 265.53C35.4699 265.152 35.0264 264.619 34.709 263.931C34.3957 263.239 34.239 262.427 34.239 261.496C34.239 260.568 34.3977 259.76 34.7151 259.073C35.0325 258.385 35.4801 257.852 36.0579 257.473C36.6357 257.095 37.3152 256.906 38.0964 256.906C38.5196 256.906 38.953 256.981 39.3965 257.132C39.84 257.282 40.2083 257.479 40.5012 257.724L40.0862 258.725C39.8665 258.472 39.5816 258.269 39.2317 258.114C38.8858 257.96 38.5359 257.882 38.1819 257.882C37.6 257.882 37.0934 258.033 36.6621 258.334C36.2349 258.631 35.9032 259.05 35.6672 259.591C35.4312 260.132 35.3132 260.767 35.3132 261.496C35.3132 262.224 35.4272 262.861 35.655 263.406C35.887 263.947 36.2125 264.368 36.6316 264.669C37.0548 264.971 37.5512 265.121 38.1208 265.121C38.4993 265.121 38.8655 265.032 39.2195 264.853C39.5735 264.669 39.8624 264.438 40.0862 264.157L40.5134 265.17C40.196 265.455 39.8136 265.681 39.366 265.847C38.9224 266.014 38.483 266.098 38.0476 266.098ZM42.9792 266.098C42.6903 266.098 42.4543 266.033 42.2712 265.902C42.0922 265.772 41.96 265.587 41.8745 265.347C41.7891 265.103 41.7463 264.812 41.7463 264.474V256.601H42.7717V264.499C42.7717 264.56 42.7778 264.641 42.79 264.743C42.8063 264.844 42.847 264.938 42.9121 265.023C42.9772 265.105 43.0891 265.146 43.2478 265.146C43.3536 265.146 43.4472 265.129 43.5286 265.097V266.024C43.4513 266.049 43.3617 266.067 43.26 266.079C43.1583 266.092 43.0647 266.098 42.9792 266.098ZM44.8225 266V259.408H45.8479V266H44.8225ZM45.3352 258.493C45.1114 258.493 44.9222 258.417 44.7676 258.267C44.617 258.112 44.5417 257.923 44.5417 257.699C44.5417 257.475 44.617 257.288 44.7676 257.138C44.9222 256.983 45.1114 256.906 45.3352 256.906C45.559 256.906 45.7462 256.983 45.8967 257.138C46.0514 257.288 46.1287 257.475 46.1287 257.699C46.1287 257.923 46.0514 258.112 45.8967 258.267C45.7462 258.417 45.559 258.493 45.3352 258.493ZM47.4592 268.563V259.408H48.4846V260.141H48.6189L48.3503 261.007V264.364L48.6677 265.243H48.4846V268.563H47.4592ZM50.1936 266.098C49.449 266.098 48.8732 265.797 48.4663 265.194C48.0635 264.588 47.8621 263.754 47.8621 262.692C47.8621 261.642 48.0614 260.816 48.4602 260.214C48.863 259.612 49.4368 259.311 50.1814 259.311C50.9586 259.311 51.5628 259.612 51.9941 260.214C52.4295 260.816 52.6472 261.642 52.6472 262.692C52.6472 263.746 52.4295 264.578 51.9941 265.188C51.5628 265.795 50.9626 266.098 50.1936 266.098ZM49.9861 265.146C50.4947 265.146 50.8935 264.926 51.1824 264.486C51.4753 264.047 51.6218 263.449 51.6218 262.692C51.6218 261.935 51.4733 261.341 51.1763 260.91C50.8833 260.478 50.4866 260.263 49.9861 260.263C49.4815 260.263 49.0889 260.478 48.8081 260.91C48.5273 261.341 48.387 261.935 48.387 262.692C48.387 263.461 48.5273 264.063 48.8081 264.499C49.0889 264.93 49.4815 265.146 49.9861 265.146ZM53.7947 263.119V262.204H56.8098V263.119H53.7947ZM32.7864 282V281.023H34.3977C34.8697 281.023 35.2461 280.879 35.5269 280.59C35.8076 280.301 35.948 279.925 35.948 279.461C35.948 278.985 35.7934 278.606 35.4841 278.326C35.179 278.041 34.7761 277.898 34.2756 277.898H32.6765V276.946H34.0315C34.4587 276.946 34.8005 276.808 35.0569 276.531C35.3173 276.255 35.4475 275.896 35.4475 275.457C35.4475 274.993 35.3092 274.631 35.0325 274.371C34.7598 274.11 34.3977 273.98 33.946 273.98H32.6765V273.003H33.9216C34.4384 273.003 34.8901 273.097 35.2766 273.284C35.6632 273.467 35.9622 273.73 36.1738 274.072C36.3895 274.413 36.4973 274.818 36.4973 275.286C36.4973 275.612 36.4465 275.919 36.3447 276.208C36.243 276.493 36.1006 276.741 35.9175 276.952C35.7344 277.164 35.5208 277.321 35.2766 277.422V277.154C35.8259 277.304 36.2491 277.595 36.5461 278.027C36.8472 278.454 36.9978 278.965 36.9978 279.559C36.9978 280.043 36.8879 280.468 36.6682 280.834C36.4526 281.2 36.1474 281.487 35.7527 281.695C35.358 281.898 34.8941 282 34.3611 282H32.7864ZM31.822 282V273.003H32.8718V282H31.822ZM40.7454 282.098C40.2083 282.098 39.7403 281.955 39.3416 281.67C38.9469 281.386 38.6396 280.987 38.4199 280.474C38.2043 279.957 38.0964 279.355 38.0964 278.667C38.0964 277.992 38.2043 277.404 38.4199 276.904C38.6396 276.399 38.9469 276.008 39.3416 275.732C39.7403 275.451 40.2083 275.311 40.7454 275.311C41.2784 275.311 41.7423 275.451 42.137 275.732C42.5317 276.008 42.8368 276.399 43.0525 276.904C43.2722 277.404 43.3821 277.992 43.3821 278.667C43.3821 279.359 43.2722 279.963 43.0525 280.48C42.8368 280.993 42.5317 281.392 42.137 281.677C41.7423 281.957 41.2784 282.098 40.7454 282.098ZM40.7454 281.146C41.2336 281.146 41.6243 280.922 41.9172 280.474C42.2102 280.027 42.3567 279.424 42.3567 278.667C42.3567 277.939 42.2102 277.357 41.9172 276.922C41.6243 276.482 41.2336 276.263 40.7454 276.263C40.253 276.263 39.8583 276.482 39.5613 276.922C39.2683 277.357 39.1218 277.939 39.1218 278.667C39.1218 279.416 39.2683 280.016 39.5613 280.468C39.8583 280.92 40.253 281.146 40.7454 281.146ZM46.2507 282.098C45.8845 282.098 45.559 282.012 45.2742 281.841C44.9893 281.67 44.7655 281.436 44.6028 281.139C44.44 280.842 44.3586 280.507 44.3586 280.132C44.3586 279.489 44.5845 278.989 45.0361 278.631C45.4919 278.273 46.092 278.094 46.8367 278.094H47.9963V278.924H46.8733C46.3931 278.924 46.0168 279.028 45.7441 279.235C45.4715 279.443 45.3352 279.729 45.3352 280.096C45.3352 280.429 45.4349 280.7 45.6343 280.907C45.8337 281.115 46.092 281.219 46.4094 281.219C46.6658 281.219 46.9018 281.152 47.1174 281.017C47.3331 280.879 47.504 280.692 47.6301 280.456C47.7603 280.216 47.8254 279.941 47.8254 279.632V278.887L47.801 278.533V277.374C47.801 277.032 47.6871 276.761 47.4592 276.562C47.2314 276.362 46.9465 276.263 46.6047 276.263C46.3362 276.263 46.0554 276.32 45.7625 276.434C45.4695 276.543 45.2253 276.69 45.03 276.873L44.6394 275.97C44.9161 275.762 45.2437 275.601 45.6221 275.488C46.0005 275.37 46.3565 275.311 46.6902 275.311C47.3127 275.311 47.8153 275.49 48.1978 275.848C48.5843 276.202 48.7776 276.678 48.7776 277.276V280.352C48.7776 280.56 48.8101 280.722 48.8752 280.84C48.9403 280.958 49.0339 281.052 49.156 281.121L49.2659 281.182L48.8752 282.098L48.7288 282.024C48.4846 281.902 48.2913 281.738 48.1489 281.53C48.0106 281.323 47.9353 281.133 47.9231 280.962L48.1062 281.158H47.74L48.0574 280.926C47.8946 281.28 47.6566 281.565 47.3433 281.78C47.0299 281.992 46.6658 282.098 46.2507 282.098ZM50.4866 282V275.408H51.512V276.299H51.6829L51.3655 276.702C51.4509 276.438 51.5771 276.202 51.7439 275.994C51.9107 275.783 52.1142 275.616 52.3542 275.494C52.5984 275.372 52.8792 275.311 53.1965 275.311C53.3064 275.311 53.4203 275.321 53.5383 275.341C53.6604 275.357 53.7418 275.376 53.7825 275.396L53.3552 276.421C53.3267 276.409 53.2718 276.399 53.1904 276.391C53.1131 276.379 53.0338 276.373 52.9524 276.373C52.7489 276.373 52.5353 276.436 52.3115 276.562C52.0877 276.684 51.8985 276.881 51.7439 277.154C51.5893 277.426 51.512 277.785 51.512 278.228V282H50.4866ZM59.2634 282.098C59.0396 281.976 58.8586 281.851 58.7202 281.725C58.5819 281.599 58.4781 281.463 58.4089 281.316C58.3438 281.166 58.3072 280.995 58.2991 280.804L58.4822 280.975H58.0061L58.2747 280.23V276.983L58.0183 276.263H58.1404V272.601H59.1658V280.401C59.1658 280.608 59.2085 280.765 59.2939 280.871C59.3794 280.977 59.5035 281.076 59.6663 281.17L59.2634 282.098ZM56.4314 282.098C55.6624 282.098 55.0601 281.795 54.6248 281.188C54.1934 280.578 53.9778 279.746 53.9778 278.692C53.9778 277.642 54.1955 276.816 54.6309 276.214C55.0662 275.612 55.6705 275.311 56.4436 275.311C57.1882 275.311 57.7599 275.612 58.1587 276.214C58.5615 276.816 58.7629 277.642 58.7629 278.692C58.7629 279.754 58.5595 280.588 58.1526 281.194C57.7498 281.797 57.176 282.098 56.4314 282.098ZM56.6389 281.146C57.1475 281.146 57.5402 280.93 57.8169 280.499C58.0977 280.063 58.238 279.461 58.238 278.692C58.238 277.935 58.0977 277.341 57.8169 276.91C57.5402 276.478 57.1475 276.263 56.6389 276.263C56.1384 276.263 55.7397 276.478 55.4426 276.91C55.1497 277.341 55.0032 277.935 55.0032 278.692C55.0032 279.449 55.1497 280.047 55.4426 280.486C55.7356 280.926 56.1344 281.146 56.6389 281.146Z" fill="white"/>
<rect x="148" y="194" width="48" height="48" rx="24" fill="#F28B82"/>
<g clip-path="url(#clip6_2317_2)">
<path d="M181.333 206H162.667C161.2 206 160 207.2 160 208.667V227.333C160 228.8 161.2 230 162.667 230H181.333C182.8 230 184 228.8 184 227.333V208.667C184 207.2 182.8 206 181.333 206ZM173.373 211.413L174.787 210L176.667 211.88L178.547 210L179.96 211.413L178.08 213.293L179.96 215.173L178.547 216.587L176.667 214.72L174.787 216.6L173.373 215.187L175.253 213.307L173.373 211.413ZM164.333 212.293H171V214.293H164.333V212.293ZM171.333 223.333H168.667V226H166.667V223.333H164V221.333H166.667V218.667H168.667V221.333H171.333V223.333ZM180 225H173.333V223H180V225ZM180 221.667H173.333V219.667H180V221.667Z" fill="#202124"/>
</g>
<path d="M150.553 274.098C149.784 274.098 149.114 273.908 148.545 273.53C147.975 273.152 147.531 272.619 147.214 271.931C146.901 271.239 146.744 270.427 146.744 269.496C146.744 268.568 146.903 267.76 147.22 267.073C147.538 266.385 147.985 265.852 148.563 265.473C149.141 265.095 149.82 264.906 150.602 264.906C151.025 264.906 151.458 264.981 151.902 265.132C152.345 265.282 152.713 265.479 153.006 265.724L152.591 266.725C152.372 266.472 152.087 266.269 151.737 266.114C151.391 265.96 151.041 265.882 150.687 265.882C150.105 265.882 149.599 266.033 149.167 266.334C148.74 266.631 148.408 267.05 148.172 267.591C147.936 268.132 147.818 268.767 147.818 269.496C147.818 270.224 147.932 270.861 148.16 271.406C148.392 271.947 148.718 272.368 149.137 272.669C149.56 272.971 150.056 273.121 150.626 273.121C151.004 273.121 151.371 273.032 151.725 272.853C152.079 272.669 152.368 272.438 152.591 272.157L153.019 273.17C152.701 273.455 152.319 273.681 151.871 273.847C151.428 274.014 150.988 274.098 150.553 274.098ZM155.68 274.098C155.313 274.098 154.988 274.012 154.703 273.841C154.418 273.67 154.194 273.436 154.032 273.139C153.869 272.842 153.788 272.507 153.788 272.132C153.788 271.489 154.013 270.989 154.465 270.631C154.921 270.273 155.521 270.094 156.266 270.094H157.425V270.924H156.302C155.822 270.924 155.446 271.028 155.173 271.235C154.9 271.443 154.764 271.729 154.764 272.096C154.764 272.429 154.864 272.7 155.063 272.907C155.263 273.115 155.521 273.219 155.838 273.219C156.095 273.219 156.331 273.152 156.546 273.017C156.762 272.879 156.933 272.692 157.059 272.456C157.189 272.216 157.254 271.941 157.254 271.632V270.887L157.23 270.533V269.374C157.23 269.032 157.116 268.761 156.888 268.562C156.66 268.362 156.375 268.263 156.034 268.263C155.765 268.263 155.484 268.32 155.191 268.434C154.898 268.543 154.654 268.69 154.459 268.873L154.068 267.97C154.345 267.762 154.673 267.601 155.051 267.488C155.429 267.37 155.785 267.311 156.119 267.311C156.742 267.311 157.244 267.49 157.627 267.848C158.013 268.202 158.207 268.678 158.207 269.276V272.352C158.207 272.56 158.239 272.722 158.304 272.84C158.369 272.958 158.463 273.052 158.585 273.121L158.695 273.182L158.304 274.098L158.158 274.024C157.914 273.902 157.72 273.738 157.578 273.53C157.44 273.323 157.364 273.133 157.352 272.962L157.535 273.158H157.169L157.486 272.926C157.324 273.28 157.086 273.565 156.772 273.78C156.459 273.992 156.095 274.098 155.68 274.098ZM161.124 274.098C160.835 274.098 160.599 274.033 160.416 273.902C160.237 273.772 160.105 273.587 160.019 273.347C159.934 273.103 159.891 272.812 159.891 272.474V264.601H160.917V272.499C160.917 272.56 160.923 272.641 160.935 272.743C160.951 272.844 160.992 272.938 161.057 273.023C161.122 273.105 161.234 273.146 161.393 273.146C161.498 273.146 161.592 273.129 161.673 273.097V274.024C161.596 274.049 161.507 274.067 161.405 274.079C161.303 274.092 161.209 274.098 161.124 274.098ZM165.238 274.073C164.709 274.073 164.241 273.933 163.834 273.652C163.427 273.371 163.108 272.977 162.876 272.468C162.644 271.955 162.528 271.355 162.528 270.667C162.528 269.992 162.642 269.402 162.87 268.897C163.102 268.393 163.421 268 163.828 267.719C164.235 267.439 164.705 267.298 165.238 267.298C165.604 267.298 165.94 267.363 166.245 267.494C166.55 267.62 166.808 267.774 167.02 267.958L166.629 268.812C166.471 268.633 166.265 268.495 166.013 268.397C165.761 268.299 165.527 268.25 165.311 268.25C164.957 268.25 164.648 268.352 164.383 268.556C164.123 268.759 163.919 269.044 163.773 269.41C163.626 269.776 163.553 270.204 163.553 270.692C163.553 271.184 163.626 271.614 163.773 271.98C163.919 272.342 164.123 272.623 164.383 272.822C164.648 273.021 164.957 273.121 165.311 273.121C165.551 273.121 165.793 273.07 166.037 272.969C166.286 272.863 166.483 272.718 166.629 272.535L167.02 273.414C166.812 273.609 166.55 273.768 166.233 273.89C165.919 274.012 165.588 274.073 165.238 274.073ZM170.157 274.098C169.783 274.098 169.445 274.004 169.144 273.817C168.843 273.626 168.605 273.363 168.43 273.03C168.255 272.696 168.167 272.311 168.167 271.876V267.408H169.193V271.864C169.193 272.23 169.301 272.539 169.516 272.792C169.736 273.044 170.035 273.17 170.414 273.17C170.658 273.17 170.879 273.115 171.079 273.005C171.282 272.891 171.443 272.737 171.561 272.541C171.683 272.346 171.744 272.124 171.744 271.876V267.408H172.77V272.45C172.77 272.6 172.812 272.739 172.898 272.865C172.983 272.987 173.107 273.089 173.27 273.17L172.867 274.098C172.558 273.939 172.326 273.752 172.171 273.536C172.021 273.316 171.935 273.097 171.915 272.877L172.135 273.121H171.708L172.074 272.889C171.903 273.243 171.646 273.534 171.305 273.762C170.967 273.986 170.584 274.098 170.157 274.098ZM175.699 274.098C175.41 274.098 175.174 274.033 174.991 273.902C174.812 273.772 174.68 273.587 174.594 273.347C174.509 273.103 174.466 272.812 174.466 272.474V264.601H175.492V272.499C175.492 272.56 175.498 272.641 175.51 272.743C175.526 272.844 175.567 272.938 175.632 273.023C175.697 273.105 175.809 273.146 175.968 273.146C176.074 273.146 176.167 273.129 176.249 273.097V274.024C176.171 274.049 176.082 274.067 175.98 274.079C175.878 274.092 175.785 274.098 175.699 274.098ZM178.995 274.098C178.629 274.098 178.303 274.012 178.019 273.841C177.734 273.67 177.51 273.436 177.347 273.139C177.184 272.842 177.103 272.507 177.103 272.132C177.103 271.489 177.329 270.989 177.781 270.631C178.236 270.273 178.836 270.094 179.581 270.094H180.741V270.924H179.618C179.138 270.924 178.761 271.028 178.489 271.235C178.216 271.443 178.08 271.729 178.08 272.096C178.08 272.429 178.179 272.7 178.379 272.907C178.578 273.115 178.836 273.219 179.154 273.219C179.41 273.219 179.646 273.152 179.862 273.017C180.077 272.879 180.248 272.692 180.375 272.456C180.505 272.216 180.57 271.941 180.57 271.632V270.887L180.545 270.533V269.374C180.545 269.032 180.431 268.761 180.204 268.562C179.976 268.362 179.691 268.263 179.349 268.263C179.081 268.263 178.8 268.32 178.507 268.434C178.214 268.543 177.97 268.69 177.774 268.873L177.384 267.97C177.66 267.762 177.988 267.601 178.366 267.488C178.745 267.37 179.101 267.311 179.435 267.311C180.057 267.311 180.56 267.49 180.942 267.848C181.329 268.202 181.522 268.678 181.522 269.276V272.352C181.522 272.56 181.555 272.722 181.62 272.84C181.685 272.958 181.778 273.052 181.9 273.121L182.01 273.182L181.62 274.098L181.473 274.024C181.229 273.902 181.036 273.738 180.893 273.53C180.755 273.323 180.68 273.133 180.667 272.962L180.851 273.158H180.484L180.802 272.926C180.639 273.28 180.401 273.565 180.088 273.78C179.774 273.992 179.41 274.098 178.995 274.098ZM185.306 274.098C184.757 274.098 184.336 273.921 184.043 273.567C183.754 273.213 183.609 272.755 183.609 272.193V265.443H184.635V272.096C184.635 272.425 184.704 272.684 184.842 272.871C184.985 273.054 185.16 273.146 185.367 273.146C185.44 273.146 185.516 273.131 185.593 273.103C185.67 273.074 185.742 273.04 185.807 272.999L186.185 273.902C186.083 273.943 185.959 273.986 185.813 274.031C185.666 274.075 185.497 274.098 185.306 274.098ZM182.596 268.36V267.408H186.026V268.36H182.596ZM189.469 274.098C188.932 274.098 188.464 273.955 188.065 273.67C187.67 273.386 187.363 272.987 187.143 272.474C186.928 271.957 186.82 271.355 186.82 270.667C186.82 269.992 186.928 269.404 187.143 268.904C187.363 268.399 187.67 268.008 188.065 267.732C188.464 267.451 188.932 267.311 189.469 267.311C190.002 267.311 190.466 267.451 190.86 267.732C191.255 268.008 191.56 268.399 191.776 268.904C191.996 269.404 192.105 269.992 192.105 270.667C192.105 271.359 191.996 271.963 191.776 272.48C191.56 272.993 191.255 273.392 190.86 273.677C190.466 273.957 190.002 274.098 189.469 274.098ZM189.469 273.146C189.957 273.146 190.348 272.922 190.641 272.474C190.934 272.027 191.08 271.424 191.08 270.667C191.08 269.939 190.934 269.357 190.641 268.922C190.348 268.482 189.957 268.263 189.469 268.263C188.976 268.263 188.582 268.482 188.285 268.922C187.992 269.357 187.845 269.939 187.845 270.667C187.845 271.416 187.992 272.016 188.285 272.468C188.582 272.92 188.976 273.146 189.469 273.146ZM193.399 274V267.408H194.425V268.299H194.596L194.278 268.702C194.364 268.438 194.49 268.202 194.657 267.994C194.824 267.783 195.027 267.616 195.267 267.494C195.511 267.372 195.792 267.311 196.109 267.311C196.219 267.311 196.333 267.321 196.451 267.341C196.573 267.357 196.655 267.376 196.695 267.396L196.268 268.421C196.24 268.409 196.185 268.399 196.103 268.391C196.026 268.379 195.947 268.373 195.865 268.373C195.662 268.373 195.448 268.436 195.224 268.562C195.001 268.684 194.811 268.881 194.657 269.154C194.502 269.426 194.425 269.785 194.425 270.228V274H193.399Z" fill="white"/>
<rect x="211" y="194" width="48" height="48" rx="24" fill="#9AA0A6"/>
<g clip-path="url(#clip7_2317_2)">
<path d="M248.333 206L246.107 208.227L243.893 206L241.667 208.227L239.44 206L237.227 208.227L235 206L232.773 208.227L230.56 206L228.333 208.227L226.107 206L223.893 208.227L221.667 206V227.333C221.667 228.8 222.867 230 224.333 230H245.667C247.133 230 248.333 228.8 248.333 227.333V206ZM233.667 227.333H224.333V219.333H233.667V227.333ZM245.667 227.333H236.333V224.667H245.667V227.333ZM245.667 222H236.333V219.333H245.667V222ZM245.667 216.667H224.333V212.667H245.667V216.667Z" fill="#202124"/>
</g>
<path d="M215.536 266.098C215.191 266.098 214.855 266.039 214.529 265.921C214.204 265.803 213.905 265.646 213.632 265.451C213.359 265.255 213.132 265.044 212.948 264.816L213.412 263.717C213.571 263.953 213.76 264.177 213.98 264.389C214.204 264.596 214.444 264.767 214.7 264.901C214.957 265.032 215.219 265.097 215.488 265.097C215.752 265.097 215.994 265.03 216.214 264.895C216.438 264.761 216.617 264.576 216.751 264.34C216.885 264.104 216.952 263.835 216.952 263.534C216.952 263.245 216.885 262.997 216.751 262.79C216.621 262.578 216.432 262.395 216.183 262.24C215.935 262.082 215.638 261.935 215.292 261.801C214.849 261.626 214.464 261.414 214.139 261.166C213.817 260.918 213.569 260.631 213.394 260.305C213.219 259.976 213.132 259.604 213.132 259.188C213.132 258.741 213.229 258.346 213.425 258.004C213.624 257.659 213.897 257.39 214.242 257.199C214.592 257.003 214.991 256.906 215.439 256.906C215.878 256.906 216.301 257.003 216.708 257.199C217.119 257.394 217.461 257.654 217.734 257.98L217.319 258.981C217.152 258.765 216.967 258.578 216.763 258.419C216.56 258.257 216.346 258.131 216.122 258.041C215.903 257.951 215.683 257.907 215.463 257.907C215.085 257.907 214.78 258.033 214.548 258.285C214.32 258.537 214.206 258.847 214.206 259.213C214.206 259.644 214.35 259.992 214.639 260.257C214.932 260.517 215.325 260.743 215.817 260.934C216.208 261.085 216.57 261.27 216.904 261.49C217.241 261.709 217.512 261.986 217.715 262.32C217.923 262.649 218.027 263.058 218.027 263.546C218.027 264.055 217.913 264.501 217.685 264.883C217.461 265.266 217.16 265.565 216.781 265.78C216.407 265.992 215.992 266.098 215.536 266.098ZM221.677 266.098C221.139 266.098 220.671 265.955 220.273 265.67C219.878 265.386 219.571 264.987 219.351 264.474C219.135 263.957 219.028 263.355 219.028 262.667C219.028 261.992 219.135 261.404 219.351 260.904C219.571 260.399 219.878 260.008 220.273 259.732C220.671 259.451 221.139 259.311 221.677 259.311C222.21 259.311 222.673 259.451 223.068 259.732C223.463 260.008 223.768 260.399 223.984 260.904C224.203 261.404 224.313 261.992 224.313 262.667C224.313 263.359 224.203 263.963 223.984 264.48C223.768 264.993 223.463 265.392 223.068 265.677C222.673 265.957 222.21 266.098 221.677 266.098ZM221.677 265.146C222.165 265.146 222.555 264.922 222.848 264.474C223.141 264.027 223.288 263.424 223.288 262.667C223.288 261.939 223.141 261.357 222.848 260.922C222.555 260.482 222.165 260.263 221.677 260.263C221.184 260.263 220.789 260.482 220.492 260.922C220.199 261.357 220.053 261.939 220.053 262.667C220.053 263.416 220.199 264.016 220.492 264.468C220.789 264.92 221.184 265.146 221.677 265.146ZM224.972 260.36V259.408H228.366V260.36H224.972ZM225.986 266V258.371C225.986 258.004 226.051 257.681 226.181 257.4C226.315 257.119 226.508 256.9 226.761 256.741C227.013 256.582 227.32 256.503 227.682 256.503C227.861 256.503 228.02 256.521 228.158 256.558C228.301 256.59 228.435 256.637 228.561 256.698L228.183 257.626C228.122 257.569 228.051 257.53 227.969 257.51C227.888 257.49 227.813 257.479 227.743 257.479C227.532 257.479 227.357 257.567 227.219 257.742C227.08 257.917 227.011 258.163 227.011 258.48V266H225.986ZM231.784 266.098C231.235 266.098 230.813 265.921 230.521 265.567C230.232 265.213 230.087 264.755 230.087 264.193V257.443H231.113V264.096C231.113 264.425 231.182 264.684 231.32 264.871C231.462 265.054 231.637 265.146 231.845 265.146C231.918 265.146 231.993 265.131 232.071 265.103C232.148 265.074 232.219 265.04 232.284 264.999L232.663 265.902C232.561 265.943 232.437 265.986 232.291 266.031C232.144 266.075 231.975 266.098 231.784 266.098ZM229.074 260.36V259.408H232.504V260.36H229.074ZM234.799 266L233.2 259.408H234.25L234.994 262.875L235.324 264.56H235.373L235.763 263.07L236.777 259.909H237.35L238.351 263.07L238.754 264.56H238.803L239.12 262.875L239.877 259.408H240.915L239.316 266H238.351L237.814 264.193L237.082 261.801H237.033L236.301 264.193L235.763 266H234.799ZM243.393 266.098C243.027 266.098 242.701 266.012 242.416 265.841C242.131 265.67 241.908 265.436 241.745 265.139C241.582 264.842 241.501 264.507 241.501 264.132C241.501 263.489 241.727 262.989 242.178 262.631C242.634 262.273 243.234 262.094 243.979 262.094H245.138V262.924H244.015C243.535 262.924 243.159 263.028 242.886 263.235C242.614 263.443 242.477 263.729 242.477 264.096C242.477 264.429 242.577 264.7 242.776 264.907C242.976 265.115 243.234 265.219 243.552 265.219C243.808 265.219 244.044 265.152 244.26 265.017C244.475 264.879 244.646 264.692 244.772 264.456C244.902 264.216 244.968 263.941 244.968 263.632V262.887L244.943 262.533V261.374C244.943 261.032 244.829 260.761 244.601 260.562C244.373 260.362 244.089 260.263 243.747 260.263C243.478 260.263 243.198 260.32 242.905 260.434C242.612 260.543 242.367 260.69 242.172 260.873L241.781 259.97C242.058 259.762 242.386 259.601 242.764 259.488C243.143 259.37 243.499 259.311 243.832 259.311C244.455 259.311 244.957 259.49 245.34 259.848C245.726 260.202 245.92 260.678 245.92 261.276V264.352C245.92 264.56 245.952 264.722 246.017 264.84C246.082 264.958 246.176 265.052 246.298 265.121L246.408 265.182L246.017 266.098L245.871 266.024C245.627 265.902 245.433 265.738 245.291 265.53C245.153 265.323 245.077 265.133 245.065 264.962L245.248 265.158H244.882L245.199 264.926C245.037 265.28 244.799 265.565 244.485 265.78C244.172 265.992 243.808 266.098 243.393 266.098ZM247.629 266V259.408H248.654V260.299H248.825L248.508 260.702C248.593 260.438 248.719 260.202 248.886 259.994C249.053 259.783 249.256 259.616 249.496 259.494C249.74 259.372 250.021 259.311 250.339 259.311C250.448 259.311 250.562 259.321 250.68 259.341C250.802 259.357 250.884 259.376 250.925 259.396L250.497 260.421C250.469 260.409 250.414 260.399 250.333 260.391C250.255 260.379 250.176 260.373 250.094 260.373C249.891 260.373 249.677 260.436 249.454 260.562C249.23 260.684 249.041 260.881 248.886 261.154C248.731 261.426 248.654 261.785 248.654 262.228V266H247.629ZM253.793 266.098C253.256 266.098 252.786 265.955 252.383 265.67C251.985 265.386 251.673 264.985 251.449 264.468C251.23 263.951 251.12 263.343 251.12 262.643C251.12 261.984 251.22 261.404 251.419 260.904C251.622 260.403 251.911 260.012 252.286 259.732C252.66 259.451 253.106 259.311 253.622 259.311C254.107 259.311 254.528 259.437 254.886 259.689C255.248 259.941 255.529 260.295 255.728 260.751C255.927 261.207 256.027 261.74 256.027 262.35C256.027 262.497 256.021 262.635 256.009 262.765C256.001 262.891 255.99 263.009 255.978 263.119H251.901V262.265H255.026C255.026 261.667 254.902 261.184 254.654 260.818C254.406 260.448 254.062 260.263 253.622 260.263C253.301 260.263 253.028 260.364 252.804 260.568C252.581 260.771 252.41 261.054 252.292 261.416C252.178 261.778 252.121 262.2 252.121 262.68C252.121 263.18 252.188 263.616 252.322 263.986C252.457 264.352 252.65 264.637 252.902 264.84C253.154 265.044 253.455 265.146 253.805 265.146C254.033 265.146 254.277 265.097 254.538 264.999C254.798 264.901 255.034 264.759 255.246 264.572L255.624 265.5C255.368 265.687 255.077 265.833 254.751 265.939C254.43 266.045 254.111 266.098 253.793 266.098ZM217.654 282.098C217.093 282.098 216.602 281.978 216.183 281.738C215.768 281.497 215.445 281.162 215.213 280.73C214.985 280.295 214.871 279.786 214.871 279.205V273.003H215.945V279.205C215.945 279.778 216.1 280.242 216.409 280.596C216.722 280.946 217.138 281.121 217.654 281.121C218.179 281.121 218.596 280.946 218.906 280.596C219.219 280.242 219.375 279.778 219.375 279.205V273.003H220.45V279.205C220.45 279.786 220.336 280.295 220.108 280.73C219.88 281.162 219.557 281.497 219.137 281.738C218.718 281.978 218.224 282.098 217.654 282.098ZM222.183 284.563V275.408H223.208V276.141H223.343L223.074 277.007V280.364L223.392 281.243H223.208V284.563H222.183ZM224.917 282.098C224.173 282.098 223.597 281.797 223.19 281.194C222.787 280.588 222.586 279.754 222.586 278.692C222.586 277.642 222.785 276.816 223.184 276.214C223.587 275.612 224.161 275.311 224.905 275.311C225.682 275.311 226.287 275.612 226.718 276.214C227.153 276.816 227.371 277.642 227.371 278.692C227.371 279.746 227.153 280.578 226.718 281.188C226.287 281.795 225.687 282.098 224.917 282.098ZM224.71 281.146C225.219 281.146 225.617 280.926 225.906 280.486C226.199 280.047 226.346 279.449 226.346 278.692C226.346 277.935 226.197 277.341 225.9 276.91C225.607 276.478 225.21 276.263 224.71 276.263C224.205 276.263 223.813 276.478 223.532 276.91C223.251 277.341 223.111 277.935 223.111 278.692C223.111 279.461 223.251 280.063 223.532 280.499C223.813 280.93 224.205 281.146 224.71 281.146ZM233.633 282.098C233.41 281.976 233.228 281.851 233.09 281.725C232.952 281.599 232.848 281.463 232.779 281.316C232.714 281.166 232.677 280.995 232.669 280.804L232.852 280.975H232.376L232.645 280.23V276.983L232.388 276.263H232.51V272.601H233.536V280.401C233.536 280.608 233.578 280.765 233.664 280.871C233.749 280.977 233.873 281.076 234.036 281.17L233.633 282.098ZM230.801 282.098C230.032 282.098 229.43 281.795 228.995 281.188C228.563 280.578 228.348 279.746 228.348 278.692C228.348 277.642 228.565 276.816 229.001 276.214C229.436 275.612 230.04 275.311 230.813 275.311C231.558 275.311 232.13 275.612 232.529 276.214C232.931 276.816 233.133 277.642 233.133 278.692C233.133 279.754 232.929 280.588 232.522 281.194C232.12 281.797 231.546 282.098 230.801 282.098ZM231.009 281.146C231.517 281.146 231.91 280.93 232.187 280.499C232.468 280.063 232.608 279.461 232.608 278.692C232.608 277.935 232.468 277.341 232.187 276.91C231.91 276.478 231.517 276.263 231.009 276.263C230.508 276.263 230.11 276.478 229.812 276.91C229.52 277.341 229.373 277.935 229.373 278.692C229.373 279.449 229.52 280.047 229.812 280.486C230.105 280.926 230.504 281.146 231.009 281.146ZM236.905 282.098C236.539 282.098 236.213 282.012 235.928 281.841C235.643 281.67 235.42 281.436 235.257 281.139C235.094 280.842 235.013 280.507 235.013 280.132C235.013 279.489 235.239 278.989 235.69 278.631C236.146 278.273 236.746 278.094 237.491 278.094H238.65V278.924H237.527C237.047 278.924 236.671 279.028 236.398 279.235C236.126 279.443 235.989 279.729 235.989 280.096C235.989 280.429 236.089 280.7 236.288 280.907C236.488 281.115 236.746 281.219 237.063 281.219C237.32 281.219 237.556 281.152 237.771 281.017C237.987 280.879 238.158 280.692 238.284 280.456C238.414 280.216 238.479 279.941 238.479 279.632V278.887L238.455 278.533V277.374C238.455 277.032 238.341 276.761 238.113 276.562C237.885 276.362 237.601 276.263 237.259 276.263C236.99 276.263 236.709 276.32 236.417 276.434C236.124 276.543 235.879 276.69 235.684 276.873L235.293 275.97C235.57 275.762 235.898 275.601 236.276 275.488C236.655 275.37 237.011 275.311 237.344 275.311C237.967 275.311 238.469 275.49 238.852 275.848C239.238 276.202 239.432 276.678 239.432 277.276V280.352C239.432 280.56 239.464 280.722 239.529 280.84C239.594 280.958 239.688 281.052 239.81 281.121L239.92 281.182L239.529 282.098L239.383 282.024C239.139 281.902 238.945 281.738 238.803 281.53C238.665 281.323 238.589 281.133 238.577 280.962L238.76 281.158H238.394L238.711 280.926C238.549 281.28 238.311 281.565 237.997 281.78C237.684 281.992 237.32 282.098 236.905 282.098ZM243.216 282.098C242.667 282.098 242.245 281.921 241.952 281.567C241.663 281.213 241.519 280.755 241.519 280.193V273.443H242.544V280.096C242.544 280.425 242.614 280.684 242.752 280.871C242.894 281.054 243.069 281.146 243.277 281.146C243.35 281.146 243.425 281.131 243.503 281.103C243.58 281.074 243.651 281.04 243.716 280.999L244.095 281.902C243.993 281.943 243.869 281.986 243.722 282.031C243.576 282.075 243.407 282.098 243.216 282.098ZM240.506 276.36V275.408H243.936V276.36H240.506ZM247.403 282.098C246.866 282.098 246.396 281.955 245.993 281.67C245.594 281.386 245.283 280.985 245.059 280.468C244.839 279.951 244.729 279.343 244.729 278.643C244.729 277.984 244.829 277.404 245.029 276.904C245.232 276.403 245.521 276.012 245.895 275.732C246.27 275.451 246.715 275.311 247.232 275.311C247.716 275.311 248.137 275.437 248.495 275.689C248.858 275.941 249.138 276.295 249.338 276.751C249.537 277.207 249.637 277.74 249.637 278.35C249.637 278.497 249.631 278.635 249.618 278.765C249.61 278.891 249.6 279.009 249.588 279.119H245.511V278.265H248.636C248.636 277.667 248.512 277.184 248.263 276.818C248.015 276.448 247.671 276.263 247.232 276.263C246.91 276.263 246.638 276.364 246.414 276.568C246.19 276.771 246.019 277.054 245.901 277.416C245.787 277.778 245.73 278.2 245.73 278.68C245.73 279.18 245.798 279.616 245.932 279.986C246.066 280.352 246.259 280.637 246.512 280.84C246.764 281.044 247.065 281.146 247.415 281.146C247.643 281.146 247.887 281.097 248.147 280.999C248.408 280.901 248.644 280.759 248.855 280.572L249.234 281.5C248.978 281.687 248.687 281.833 248.361 281.939C248.04 282.045 247.72 282.098 247.403 282.098ZM252.64 282.098C252.261 282.098 251.877 282.01 251.486 281.835C251.1 281.656 250.768 281.414 250.491 281.109L250.906 280.181C251.15 280.486 251.425 280.728 251.73 280.907C252.035 281.082 252.322 281.17 252.591 281.17C252.88 281.17 253.118 281.076 253.305 280.889C253.496 280.698 253.592 280.466 253.592 280.193C253.592 279.913 253.49 279.677 253.287 279.485C253.083 279.29 252.77 279.123 252.347 278.985C252.029 278.879 251.744 278.733 251.492 278.545C251.244 278.358 251.047 278.136 250.9 277.88C250.758 277.624 250.687 277.337 250.687 277.02C250.687 276.678 250.77 276.379 250.937 276.122C251.104 275.866 251.327 275.667 251.608 275.524C251.893 275.382 252.212 275.311 252.566 275.311C252.904 275.311 253.236 275.376 253.561 275.506C253.887 275.636 254.153 275.815 254.361 276.043L253.982 276.946C253.799 276.727 253.582 276.554 253.329 276.427C253.081 276.301 252.835 276.238 252.591 276.238C252.33 276.238 252.115 276.316 251.944 276.47C251.773 276.625 251.688 276.824 251.688 277.068C251.688 277.329 251.787 277.553 251.987 277.74C252.19 277.923 252.501 278.086 252.92 278.228C253.238 278.334 253.523 278.476 253.775 278.655C254.027 278.83 254.227 279.046 254.373 279.302C254.52 279.559 254.593 279.86 254.593 280.206C254.593 280.572 254.507 280.897 254.336 281.182C254.166 281.467 253.932 281.691 253.635 281.854C253.342 282.016 253.01 282.098 252.64 282.098Z" fill="white"/>
<rect x="0.4" y="0.4" width="279.2" height="178.2" fill="#E8E6E2" stroke="#202124" stroke-width="0.8"/>
<path d="M89.3332 140.667C85.8498 140.667 82.8679 139.427 80.3873 136.946C77.9068 134.465 76.6665 131.483 76.6665 128V52.0002C76.6665 48.5168 77.9068 45.5349 80.3873 43.0543C82.8679 40.5738 85.8498 39.3335 89.3332 39.3335H190.667C194.15 39.3335 197.132 40.5738 199.612 43.0543C202.093 45.5349 203.333 48.5168 203.333 52.0002V128C203.333 131.483 202.093 134.465 199.612 136.946C197.132 139.427 194.15 140.667 190.667 140.667H89.3332ZM89.3332 128H190.667V64.6668H89.3332V128ZM111.5 121.667L102.633 112.8L118.942 96.3335L102.475 79.8668L111.5 71.0002L136.833 96.3335L111.5 121.667ZM140 121.667V109H178V121.667H140Z" fill="#202124"/>
<defs>
<radialGradient id="paint0_radial_2317_2" cx="0" cy="0" r="1" gradientUnits="userSpaceOnUse" gradientTransform="translate(112.865 322.045) rotate(78.858) scale(19.7185 19.7281)">
<stop stop-color="#1BA1E3"/>
<stop offset="0.0001" stop-color="#1BA1E3"/>
<stop offset="0.300221" stop-color="#5489D6"/>
<stop offset="0.545524" stop-color="#9B72CB"/>
<stop offset="0.825372" stop-color="#D96570"/>
<stop offset="1" stop-color="#F49C46"/>
</radialGradient>
<radialGradient id="paint1_radial_2317_2" cx="0" cy="0" r="1" gradientUnits="userSpaceOnUse" gradientTransform="translate(112.865 322.045) rotate(78.858) scale(19.7185 19.7281)">
<stop stop-color="#1BA1E3"/>
<stop offset="0.0001" stop-color="#1BA1E3"/>
<stop offset="0.300221" stop-color="#5489D6"/>
<stop offset="0.545524" stop-color="#9B72CB"/>
<stop offset="0.825372" stop-color="#D96570"/>
<stop offset="1" stop-color="#F49C46"/>
</radialGradient>
<clipPath id="clip0_2317_2">
<rect width="32" height="32" fill="white" transform="translate(156 308)"/>
</clipPath>
<clipPath id="clip1_2317_2">
<rect width="32" height="32" fill="white" transform="translate(156 308)"/>
</clipPath>
<clipPath id="clip2_2317_2">
<rect width="32" height="32" fill="white" transform="translate(93 308)"/>
</clipPath>
<clipPath id="clip3_2317_2">
<rect width="32" height="32" fill="white" transform="translate(30 308)"/>
</clipPath>
<clipPath id="clip4_2317_2">
<rect width="32" height="32" fill="white" transform="translate(93 202)"/>
</clipPath>
<clipPath id="clip5_2317_2">
<rect width="32" height="32" fill="white" transform="translate(30 202)"/>
</clipPath>
<clipPath id="clip6_2317_2">
<rect width="32" height="32" fill="white" transform="translate(156 202)"/>
</clipPath>
<clipPath id="clip7_2317_2">
<rect width="32" height="32" fill="white" transform="translate(219 202)"/>
</clipPath>
</defs>
</svg>
