<svg width="280" height="453" viewBox="0 0 280 453" fill="none" xmlns="http://www.w3.org/2000/svg">
<rect width="453" height="280" transform="matrix(0 -1 1 0 0 453)" fill="#202124"/>
<rect x="0.4" y="0.4" width="279.2" height="195.2" fill="#E8E6E2" stroke="#202124" stroke-width="0.8"/>
<circle cx="172" cy="367" r="24" fill="#F4B5FB"/>
<g clip-path="url(#clip0_2314_48)">
<g clip-path="url(#clip1_2314_48)">
<path d="M182.667 356.333H161.333C159.867 356.333 158.68 357.533 158.68 359L158.667 375C158.667 376.467 159.867 377.667 161.333 377.667H182.667C184.133 377.667 185.333 376.467 185.333 375V359C185.333 357.533 184.133 356.333 182.667 356.333ZM182.667 361.667L172 368.333L161.333 361.667V359L172 365.667L182.667 359V361.667Z" fill="#202124"/>
</g>
</g>
<path d="M159.208 427V418.003H163.517V418.98H160.282V421.934H163.077V422.911H160.282V426.023H163.517V427H159.208ZM164.884 427V420.408H165.897V421.153H166.068L165.75 421.543C165.844 421.194 166.039 420.901 166.336 420.665C166.633 420.429 166.992 420.311 167.411 420.311C167.773 420.311 168.096 420.431 168.381 420.671C168.666 420.911 168.871 421.226 168.998 421.617L168.607 421.25H169.083L168.705 421.617C168.823 421.226 169.052 420.911 169.394 420.671C169.74 420.431 170.133 420.311 170.572 420.311C171.13 420.311 171.575 420.52 171.909 420.939C172.247 421.358 172.416 421.91 172.416 422.593V427H171.39V422.569C171.39 422.17 171.286 421.849 171.079 421.604C170.875 421.36 170.609 421.238 170.279 421.238C169.938 421.238 169.665 421.362 169.461 421.611C169.258 421.859 169.156 422.178 169.156 422.569V427H168.131V422.569C168.131 422.17 168.029 421.849 167.826 421.604C167.626 421.36 167.358 421.238 167.02 421.238C166.69 421.238 166.422 421.366 166.214 421.623C166.011 421.875 165.909 422.203 165.909 422.605V427H164.884ZM175.577 427.098C175.211 427.098 174.885 427.012 174.601 426.841C174.316 426.67 174.092 426.436 173.929 426.139C173.766 425.842 173.685 425.507 173.685 425.132C173.685 424.489 173.911 423.989 174.363 423.631C174.818 423.273 175.418 423.094 176.163 423.094H177.323V423.924H176.2C175.72 423.924 175.343 424.028 175.071 424.235C174.798 424.443 174.662 424.729 174.662 425.096C174.662 425.429 174.761 425.7 174.961 425.907C175.16 426.115 175.418 426.219 175.736 426.219C175.992 426.219 176.228 426.152 176.444 426.017C176.66 425.879 176.83 425.692 176.957 425.456C177.087 425.216 177.152 424.941 177.152 424.632V423.887L177.127 423.533V422.374C177.127 422.032 177.014 421.761 176.786 421.562C176.558 421.362 176.273 421.263 175.931 421.263C175.663 421.263 175.382 421.32 175.089 421.434C174.796 421.543 174.552 421.69 174.356 421.873L173.966 420.97C174.243 420.762 174.57 420.601 174.948 420.488C175.327 420.37 175.683 420.311 176.017 420.311C176.639 420.311 177.142 420.49 177.524 420.848C177.911 421.202 178.104 421.678 178.104 422.276V425.352C178.104 425.56 178.137 425.722 178.202 425.84C178.267 425.958 178.36 426.052 178.482 426.121L178.592 426.182L178.202 427.098L178.055 427.024C177.811 426.902 177.618 426.738 177.475 426.53C177.337 426.323 177.262 426.133 177.25 425.962L177.433 426.158H177.066L177.384 425.926C177.221 426.28 176.983 426.565 176.67 426.78C176.356 426.992 175.992 427.098 175.577 427.098ZM179.862 427V420.408H180.887V427H179.862ZM180.375 419.493C180.151 419.493 179.962 419.417 179.807 419.267C179.656 419.112 179.581 418.923 179.581 418.699C179.581 418.475 179.656 418.288 179.807 418.138C179.962 417.983 180.151 417.906 180.375 417.906C180.598 417.906 180.785 417.983 180.936 418.138C181.091 418.288 181.168 418.475 181.168 418.699C181.168 418.923 181.091 419.112 180.936 419.267C180.785 419.417 180.598 419.493 180.375 419.493ZM183.805 427.098C183.516 427.098 183.28 427.033 183.097 426.902C182.918 426.772 182.785 426.587 182.7 426.347C182.615 426.103 182.572 425.812 182.572 425.474V417.601H183.597V425.499C183.597 425.56 183.603 425.641 183.615 425.743C183.632 425.844 183.672 425.938 183.738 426.023C183.803 426.105 183.915 426.146 184.073 426.146C184.179 426.146 184.273 426.129 184.354 426.097V427.024C184.277 427.049 184.187 427.067 184.085 427.079C183.984 427.092 183.89 427.098 183.805 427.098Z" fill="white"/>
<circle cx="235" cy="367" r="24" fill="#137356"/>
<path d="M223 376H239V373H223V376ZM223 358V361H247V358H223ZM223 368.5H247V365.5H223V368.5Z" fill="#202124"/>
<path d="M221.042 427V418.003H221.811L225.192 423.521L225.925 424.742H225.973L225.949 422.41V418.003H227.023V427H226.266L222.873 421.482L222.14 420.262H222.092L222.116 422.593V427H221.042ZM231.039 427.098C230.502 427.098 230.034 426.955 229.635 426.67C229.241 426.386 228.934 425.987 228.714 425.474C228.498 424.957 228.39 424.355 228.39 423.667C228.39 422.992 228.498 422.404 228.714 421.904C228.934 421.399 229.241 421.008 229.635 420.732C230.034 420.451 230.502 420.311 231.039 420.311C231.572 420.311 232.036 420.451 232.431 420.732C232.826 421.008 233.131 421.399 233.346 421.904C233.566 422.404 233.676 422.992 233.676 423.667C233.676 424.359 233.566 424.963 233.346 425.48C233.131 425.993 232.826 426.392 232.431 426.677C232.036 426.957 231.572 427.098 231.039 427.098ZM231.039 426.146C231.528 426.146 231.918 425.922 232.211 425.474C232.504 425.027 232.651 424.424 232.651 423.667C232.651 422.939 232.504 422.357 232.211 421.922C231.918 421.482 231.528 421.263 231.039 421.263C230.547 421.263 230.152 421.482 229.855 421.922C229.562 422.357 229.416 422.939 229.416 423.667C229.416 424.416 229.562 425.016 229.855 425.468C230.152 425.92 230.547 426.146 231.039 426.146ZM237.045 427.098C236.496 427.098 236.075 426.921 235.782 426.567C235.493 426.213 235.348 425.755 235.348 425.193V418.443H236.374V425.096C236.374 425.425 236.443 425.684 236.581 425.871C236.724 426.054 236.899 426.146 237.106 426.146C237.179 426.146 237.255 426.131 237.332 426.103C237.409 426.074 237.481 426.04 237.546 425.999L237.924 426.902C237.822 426.943 237.698 426.986 237.552 427.031C237.405 427.075 237.236 427.098 237.045 427.098ZM234.335 421.36V420.408H237.765V421.36H234.335ZM241.232 427.098C240.695 427.098 240.225 426.955 239.822 426.67C239.424 426.386 239.112 425.985 238.888 425.468C238.669 424.951 238.559 424.343 238.559 423.643C238.559 422.984 238.659 422.404 238.858 421.904C239.061 421.403 239.35 421.012 239.725 420.732C240.099 420.451 240.545 420.311 241.061 420.311C241.545 420.311 241.967 420.437 242.325 420.689C242.687 420.941 242.968 421.295 243.167 421.751C243.366 422.207 243.466 422.74 243.466 423.35C243.466 423.497 243.46 423.635 243.448 423.765C243.44 423.891 243.429 424.009 243.417 424.119H239.34V423.265H242.465C242.465 422.667 242.341 422.184 242.093 421.818C241.845 421.448 241.501 421.263 241.061 421.263C240.74 421.263 240.467 421.364 240.243 421.568C240.02 421.771 239.849 422.054 239.731 422.416C239.617 422.778 239.56 423.2 239.56 423.68C239.56 424.18 239.627 424.616 239.761 424.986C239.896 425.352 240.089 425.637 240.341 425.84C240.593 426.044 240.894 426.146 241.244 426.146C241.472 426.146 241.716 426.097 241.977 425.999C242.237 425.901 242.473 425.759 242.685 425.572L243.063 426.5C242.807 426.687 242.516 426.833 242.19 426.939C241.869 427.045 241.55 427.098 241.232 427.098ZM246.469 427.098C246.091 427.098 245.706 427.01 245.315 426.835C244.929 426.656 244.597 426.414 244.321 426.109L244.736 425.181C244.98 425.486 245.254 425.728 245.56 425.907C245.865 426.082 246.152 426.17 246.42 426.17C246.709 426.17 246.947 426.076 247.134 425.889C247.326 425.698 247.421 425.466 247.421 425.193C247.421 424.913 247.319 424.677 247.116 424.485C246.913 424.29 246.599 424.123 246.176 423.985C245.859 423.879 245.574 423.733 245.322 423.545C245.073 423.358 244.876 423.136 244.729 422.88C244.587 422.624 244.516 422.337 244.516 422.02C244.516 421.678 244.599 421.379 244.766 421.122C244.933 420.866 245.157 420.667 245.438 420.524C245.722 420.382 246.042 420.311 246.396 420.311C246.733 420.311 247.065 420.376 247.391 420.506C247.716 420.636 247.983 420.815 248.19 421.043L247.812 421.946C247.629 421.727 247.411 421.554 247.159 421.427C246.91 421.301 246.664 421.238 246.42 421.238C246.16 421.238 245.944 421.316 245.773 421.47C245.602 421.625 245.517 421.824 245.517 422.068C245.517 422.329 245.617 422.553 245.816 422.74C246.019 422.923 246.331 423.086 246.75 423.228C247.067 423.334 247.352 423.476 247.604 423.655C247.857 423.83 248.056 424.046 248.202 424.302C248.349 424.559 248.422 424.86 248.422 425.206C248.422 425.572 248.337 425.897 248.166 426.182C247.995 426.467 247.761 426.691 247.464 426.854C247.171 427.016 246.839 427.098 246.469 427.098Z" fill="white"/>
<circle cx="109" cy="367" r="24" fill="#3C4043"/>
<g clip-path="url(#clip2_2314_48)">
<path d="M108.262 372.506L106.985 375.43C106.495 376.554 104.939 376.554 104.449 375.43L103.172 372.506C102.036 369.904 99.9912 367.833 97.4405 366.701L93.9267 365.141C92.8096 364.645 92.8096 363.02 93.9267 362.524L97.3308 361.013C99.947 359.852 102.029 357.704 103.145 355.013L104.438 351.897C104.918 350.741 106.516 350.741 106.996 351.897L108.289 355.013C109.405 357.704 111.487 359.852 114.103 361.013L117.507 362.524C118.624 363.02 118.624 364.645 117.507 365.141L113.993 366.701C111.443 367.833 109.398 369.904 108.262 372.506Z" fill="url(#paint0_radial_2314_48)"/>
<path d="M120.126 381.726L119.766 382.548C119.504 383.151 118.67 383.151 118.407 382.548L118.048 381.726C117.408 380.258 116.255 379.09 114.817 378.451L113.711 377.96C113.113 377.694 113.113 376.825 113.711 376.559L114.755 376.095C116.23 375.44 117.404 374.228 118.033 372.711L118.401 371.822C118.658 371.202 119.515 371.202 119.772 371.822L120.141 372.711C120.77 374.228 121.943 375.44 123.418 376.095L124.463 376.559C125.061 376.825 125.061 377.694 124.463 377.96L123.356 378.451C121.918 379.09 120.765 380.258 120.126 381.726Z" fill="url(#paint1_radial_2314_48)"/>
</g>
<path d="M92.7712 427.098C92.0022 427.098 91.3328 426.908 90.7632 426.53C90.1935 426.152 89.75 425.619 89.4326 424.931C89.1193 424.239 88.9626 423.427 88.9626 422.496C88.9626 421.568 89.1213 420.76 89.4387 420.073C89.7561 419.385 90.2037 418.852 90.7815 418.473C91.3593 418.095 92.0388 417.906 92.8201 417.906C93.2432 417.906 93.6766 417.981 94.1201 418.132C94.5636 418.282 94.9319 418.479 95.2249 418.724L94.8098 419.725C94.5901 419.472 94.3053 419.269 93.9553 419.114C93.6095 418.96 93.2595 418.882 92.9055 418.882C92.3236 418.882 91.8171 419.033 91.3857 419.334C90.9585 419.631 90.6269 420.05 90.3909 420.591C90.1549 421.132 90.0369 421.767 90.0369 422.496C90.0369 423.224 90.1508 423.861 90.3787 424.406C90.6106 424.947 90.9361 425.368 91.3552 425.669C91.7784 425.971 92.2748 426.121 92.8445 426.121C93.2229 426.121 93.5891 426.032 93.9431 425.853C94.2971 425.669 94.586 425.438 94.8098 425.157L95.2371 426.17C94.9197 426.455 94.5372 426.681 94.0896 426.847C93.6461 427.014 93.2066 427.098 92.7712 427.098ZM96.4456 427V417.601H97.4709V421.116H97.7029L97.2756 421.531C97.3977 421.153 97.6276 420.856 97.9653 420.64C98.3071 420.42 98.6917 420.311 99.1189 420.311C99.7008 420.311 100.165 420.508 100.51 420.903C100.86 421.293 101.035 421.816 101.035 422.471V427H100.01V422.593C100.01 422.182 99.8961 421.855 99.6682 421.611C99.4444 421.362 99.1555 421.238 98.8015 421.238C98.537 421.238 98.3051 421.295 98.1057 421.409C97.9063 421.523 97.7497 421.684 97.6357 421.891C97.5259 422.095 97.4709 422.333 97.4709 422.605V427H96.4456ZM104.197 427.098C103.831 427.098 103.505 427.012 103.22 426.841C102.936 426.67 102.712 426.436 102.549 426.139C102.386 425.842 102.305 425.507 102.305 425.132C102.305 424.489 102.531 423.989 102.982 423.631C103.438 423.273 104.038 423.094 104.783 423.094H105.943V423.924H104.82C104.339 423.924 103.963 424.028 103.69 424.235C103.418 424.443 103.281 424.729 103.281 425.096C103.281 425.429 103.381 425.7 103.581 425.907C103.78 426.115 104.038 426.219 104.356 426.219C104.612 426.219 104.848 426.152 105.064 426.017C105.279 425.879 105.45 425.692 105.576 425.456C105.707 425.216 105.772 424.941 105.772 424.632V423.887L105.747 423.533V422.374C105.747 422.032 105.633 421.761 105.406 421.562C105.178 421.362 104.893 421.263 104.551 421.263C104.282 421.263 104.002 421.32 103.709 421.434C103.416 421.543 103.172 421.69 102.976 421.873L102.586 420.97C102.862 420.762 103.19 420.601 103.568 420.488C103.947 420.37 104.303 420.311 104.636 420.311C105.259 420.311 105.762 420.49 106.144 420.848C106.531 421.202 106.724 421.678 106.724 422.276V425.352C106.724 425.56 106.756 425.722 106.822 425.84C106.887 425.958 106.98 426.052 107.102 426.121L107.212 426.182L106.822 427.098L106.675 427.024C106.431 426.902 106.238 426.738 106.095 426.53C105.957 426.323 105.882 426.133 105.869 425.962L106.052 426.158H105.686L106.004 425.926C105.841 426.28 105.603 426.565 105.29 426.78C104.976 426.992 104.612 427.098 104.197 427.098ZM110.508 427.098C109.959 427.098 109.538 426.921 109.245 426.567C108.956 426.213 108.811 425.755 108.811 425.193V418.443H109.837V425.096C109.837 425.425 109.906 425.684 110.044 425.871C110.187 426.054 110.362 426.146 110.569 426.146C110.642 426.146 110.718 426.131 110.795 426.103C110.872 426.074 110.943 426.04 111.009 425.999L111.387 426.902C111.285 426.943 111.161 426.986 111.015 427.031C110.868 427.075 110.699 427.098 110.508 427.098ZM107.798 421.36V420.408H111.228V421.36H107.798ZM112.51 427V417.601H113.535V421.141H113.633L113.413 422.081V425.499L113.694 426.243H113.535V427H112.51ZM115.244 427.098C114.5 427.098 113.924 426.797 113.517 426.194C113.114 425.588 112.913 424.754 112.913 423.692C112.913 422.642 113.112 421.816 113.511 421.214C113.914 420.612 114.488 420.311 115.232 420.311C116.009 420.311 116.614 420.612 117.045 421.214C117.48 421.816 117.698 422.642 117.698 423.692C117.698 424.746 117.48 425.578 117.045 426.188C116.614 426.795 116.013 427.098 115.244 427.098ZM115.037 426.146C115.545 426.146 115.944 425.926 116.233 425.486C116.526 425.047 116.673 424.449 116.673 423.692C116.673 422.935 116.524 422.341 116.227 421.91C115.934 421.478 115.537 421.263 115.037 421.263C114.532 421.263 114.14 421.478 113.859 421.91C113.578 422.341 113.438 422.935 113.438 423.692C113.438 424.461 113.578 425.063 113.859 425.499C114.14 425.93 114.532 426.146 115.037 426.146ZM121.323 427.098C120.786 427.098 120.318 426.955 119.92 426.67C119.525 426.386 119.218 425.987 118.998 425.474C118.782 424.957 118.675 424.355 118.675 423.667C118.675 422.992 118.782 422.404 118.998 421.904C119.218 421.399 119.525 421.008 119.92 420.732C120.318 420.451 120.786 420.311 121.323 420.311C121.857 420.311 122.32 420.451 122.715 420.732C123.11 421.008 123.415 421.399 123.631 421.904C123.85 422.404 123.96 422.992 123.96 423.667C123.96 424.359 123.85 424.963 123.631 425.48C123.415 425.993 123.11 426.392 122.715 426.677C122.32 426.957 121.857 427.098 121.323 427.098ZM121.323 426.146C121.812 426.146 122.202 425.922 122.495 425.474C122.788 425.027 122.935 424.424 122.935 423.667C122.935 422.939 122.788 422.357 122.495 421.922C122.202 421.482 121.812 421.263 121.323 421.263C120.831 421.263 120.436 421.482 120.139 421.922C119.846 422.357 119.7 422.939 119.7 423.667C119.7 424.416 119.846 425.016 120.139 425.468C120.436 425.92 120.831 426.146 121.323 426.146ZM127.329 427.098C126.78 427.098 126.359 426.921 126.066 426.567C125.777 426.213 125.633 425.755 125.633 425.193V418.443H126.658V425.096C126.658 425.425 126.727 425.684 126.865 425.871C127.008 426.054 127.183 426.146 127.39 426.146C127.464 426.146 127.539 426.131 127.616 426.103C127.694 426.074 127.765 426.04 127.83 425.999L128.208 426.902C128.107 426.943 127.982 426.986 127.836 427.031C127.689 427.075 127.521 427.098 127.329 427.098ZM124.619 421.36V420.408H128.05V421.36H124.619Z" fill="white"/>
<circle cx="46" cy="367" r="24" fill="#E37400"/>
<g clip-path="url(#clip3_2314_48)">
<path d="M35.3335 365C34.2268 365 33.3335 365.893 33.3335 367C33.3335 368.107 34.2268 369 35.3335 369C36.4402 369 37.3335 368.107 37.3335 367C37.3335 365.893 36.4402 365 35.3335 365ZM35.3335 357C34.2268 357 33.3335 357.893 33.3335 359C33.3335 360.107 34.2268 361 35.3335 361C36.4402 361 37.3335 360.107 37.3335 359C37.3335 357.893 36.4402 357 35.3335 357ZM35.3335 373C34.2268 373 33.3335 373.907 33.3335 375C33.3335 376.093 34.2402 377 35.3335 377C36.4268 377 37.3335 376.093 37.3335 375C37.3335 373.907 36.4402 373 35.3335 373ZM39.3335 376.333H58.0002V373.667H39.3335V376.333ZM39.3335 368.333H58.0002V365.667H39.3335V368.333ZM39.3335 357.667V360.333H58.0002V357.667H39.3335Z" fill="#202124"/>
</g>
<path d="M32.3103 419V410.772H33.3845V419H32.3103ZM30.2961 410.98V410.003H35.3987V410.98H30.2961ZM38.0232 419.098C37.4861 419.098 37.0181 418.955 36.6194 418.67C36.2247 418.386 35.9175 417.987 35.6978 417.474C35.4821 416.957 35.3743 416.355 35.3743 415.667C35.3743 414.992 35.4821 414.404 35.6978 413.904C35.9175 413.399 36.2247 413.008 36.6194 412.732C37.0181 412.451 37.4861 412.311 38.0232 412.311C38.5562 412.311 39.0201 412.451 39.4148 412.732C39.8095 413.008 40.1147 413.399 40.3303 413.904C40.55 414.404 40.6599 414.992 40.6599 415.667C40.6599 416.359 40.55 416.963 40.3303 417.48C40.1147 417.993 39.8095 418.392 39.4148 418.677C39.0201 418.957 38.5562 419.098 38.0232 419.098ZM38.0232 418.146C38.5115 418.146 38.9021 417.922 39.1951 417.474C39.488 417.027 39.6345 416.424 39.6345 415.667C39.6345 414.939 39.488 414.357 39.1951 413.922C38.9021 413.482 38.5115 413.263 38.0232 413.263C37.5308 413.263 37.1361 413.482 36.8391 413.922C36.5461 414.357 36.3997 414.939 36.3997 415.667C36.3997 416.416 36.5461 417.016 36.8391 417.468C37.1361 417.92 37.5308 418.146 38.0232 418.146ZM41.8074 416.119V415.204H44.8225V416.119H41.8074ZM51.2556 419.098C51.0318 418.976 50.8507 418.851 50.7124 418.725C50.5741 418.599 50.4703 418.463 50.4011 418.316C50.336 418.166 50.2994 417.995 50.2913 417.804L50.4744 417.975H49.9983L50.2668 417.23V413.983L50.0105 413.263H50.1326V409.601H51.158V417.401C51.158 417.608 51.2007 417.765 51.2861 417.871C51.3716 417.977 51.4957 418.076 51.6584 418.17L51.2556 419.098ZM48.4236 419.098C47.6545 419.098 47.0523 418.795 46.6169 418.188C46.1856 417.578 45.97 416.746 45.97 415.692C45.97 414.642 46.1877 413.816 46.623 413.214C47.0584 412.612 47.6627 412.311 48.4358 412.311C49.1804 412.311 49.7521 412.612 50.1509 413.214C50.5537 413.816 50.7551 414.642 50.7551 415.692C50.7551 416.754 50.5517 417.588 50.1448 418.194C49.7419 418.797 49.1682 419.098 48.4236 419.098ZM48.6311 418.146C49.1397 418.146 49.5324 417.93 49.8091 417.499C50.0898 417.063 50.2302 416.461 50.2302 415.692C50.2302 414.935 50.0898 414.341 49.8091 413.91C49.5324 413.478 49.1397 413.263 48.6311 413.263C48.1306 413.263 47.7319 413.478 47.4348 413.91C47.1418 414.341 46.9954 414.935 46.9954 415.692C46.9954 416.449 47.1418 417.047 47.4348 417.486C47.7278 417.926 48.1265 418.146 48.6311 418.146ZM55.2351 419.098C54.698 419.098 54.2301 418.955 53.8313 418.67C53.4366 418.386 53.1294 417.987 52.9097 417.474C52.694 416.957 52.5862 416.355 52.5862 415.667C52.5862 414.992 52.694 414.404 52.9097 413.904C53.1294 413.399 53.4366 413.008 53.8313 412.732C54.2301 412.451 54.698 412.311 55.2351 412.311C55.7681 412.311 56.232 412.451 56.6267 412.732C57.0214 413.008 57.3266 413.399 57.5422 413.904C57.762 414.404 57.8718 414.992 57.8718 415.667C57.8718 416.359 57.762 416.963 57.5422 417.48C57.3266 417.993 57.0214 418.392 56.6267 418.677C56.232 418.957 55.7681 419.098 55.2351 419.098ZM55.2351 418.146C55.7234 418.146 56.114 417.922 56.407 417.474C56.7 417.027 56.8464 416.424 56.8464 415.667C56.8464 414.939 56.7 414.357 56.407 413.922C56.114 413.482 55.7234 413.263 55.2351 413.263C54.7428 413.263 54.3481 413.482 54.051 413.922C53.7581 414.357 53.6116 414.939 53.6116 415.667C53.6116 416.416 53.7581 417.016 54.051 417.468C54.3481 417.92 54.7428 418.146 55.2351 418.146ZM40.1167 435.098C39.8278 435.098 39.5918 435.033 39.4087 434.902C39.2297 434.772 39.0974 434.587 39.012 434.347C38.9265 434.103 38.8838 433.812 38.8838 433.474V425.601H39.9092V433.499C39.9092 433.56 39.9153 433.641 39.9275 433.743C39.9438 433.844 39.9845 433.938 40.0496 434.023C40.1147 434.105 40.2266 434.146 40.3853 434.146C40.491 434.146 40.5846 434.129 40.666 434.097V435.024C40.5887 435.049 40.4992 435.067 40.3975 435.079C40.2957 435.092 40.2021 435.098 40.1167 435.098ZM41.96 435V428.408H42.9854V435H41.96ZM42.4727 427.493C42.2489 427.493 42.0597 427.417 41.905 427.267C41.7545 427.112 41.6792 426.923 41.6792 426.699C41.6792 426.475 41.7545 426.288 41.905 426.138C42.0597 425.983 42.2489 425.906 42.4727 425.906C42.6965 425.906 42.8836 425.983 43.0342 426.138C43.1888 426.288 43.2661 426.475 43.2661 426.699C43.2661 426.923 43.1888 427.112 43.0342 427.267C42.8836 427.417 42.6965 427.493 42.4727 427.493ZM46.3545 435.098C45.9761 435.098 45.5916 435.01 45.2009 434.835C44.8144 434.656 44.4827 434.414 44.2061 434.109L44.6211 433.181C44.8652 433.486 45.1399 433.728 45.4451 433.907C45.7502 434.082 46.0371 434.17 46.3057 434.17C46.5946 434.17 46.8326 434.076 47.0198 433.889C47.211 433.698 47.3066 433.466 47.3066 433.193C47.3066 432.913 47.2049 432.677 47.0015 432.485C46.798 432.29 46.4847 432.123 46.0615 431.985C45.7441 431.879 45.4593 431.733 45.207 431.545C44.9588 431.358 44.7615 431.136 44.615 430.88C44.4726 430.624 44.4014 430.337 44.4014 430.02C44.4014 429.678 44.4848 429.379 44.6516 429.122C44.8184 428.866 45.0422 428.667 45.323 428.524C45.6078 428.382 45.9272 428.311 46.2812 428.311C46.619 428.311 46.9506 428.376 47.2761 428.506C47.6016 428.636 47.8682 428.815 48.0757 429.043L47.6973 429.946C47.5142 429.727 47.2965 429.554 47.0442 429.427C46.796 429.301 46.5498 429.238 46.3057 429.238C46.0452 429.238 45.8296 429.316 45.6587 429.47C45.4878 429.625 45.4023 429.824 45.4023 430.068C45.4023 430.329 45.502 430.553 45.7014 430.74C45.9049 430.923 46.2161 431.086 46.6353 431.228C46.9526 431.334 47.2375 431.476 47.4897 431.655C47.742 431.83 47.9414 432.046 48.0879 432.302C48.2344 432.559 48.3076 432.86 48.3076 433.206C48.3076 433.572 48.2222 433.897 48.0513 434.182C47.8804 434.467 47.6464 434.691 47.3494 434.854C47.0564 435.016 46.7248 435.098 46.3545 435.098ZM51.7012 435.098C51.1519 435.098 50.7307 434.921 50.4377 434.567C50.1488 434.213 50.0044 433.755 50.0044 433.193V426.443H51.0298V433.096C51.0298 433.425 51.099 433.684 51.2373 433.871C51.3797 434.054 51.5547 434.146 51.7622 434.146C51.8354 434.146 51.9107 434.131 51.988 434.103C52.0653 434.074 52.1366 434.04 52.2017 433.999L52.5801 434.902C52.4784 434.943 52.3542 434.986 52.2078 435.031C52.0613 435.075 51.8924 435.098 51.7012 435.098ZM48.9912 429.36V428.408H52.4214V429.36H48.9912Z" fill="white"/>
<rect x="85" y="220" width="48" height="48" rx="24" fill="#FDD663"/>
<g clip-path="url(#clip4_2314_48)">
<path d="M110.333 232C103.707 232 98.3335 237.373 98.3335 244H94.3335L99.5202 249.187L99.6135 249.373L105 244H101C101 238.84 105.173 234.667 110.333 234.667C115.493 234.667 119.667 238.84 119.667 244C119.667 249.16 115.493 253.333 110.333 253.333C107.76 253.333 105.427 252.28 103.747 250.587L101.853 252.48C104.027 254.653 107.013 256 110.333 256C116.96 256 122.333 250.627 122.333 244C122.333 237.373 116.96 232 110.333 232ZM109 238.667V245.333L114.707 248.72L115.667 247.107L111 244.333V238.667H109Z" fill="black"/>
</g>
<path d="M87.7725 296.098C87.0034 296.098 86.3341 295.908 85.7644 295.53C85.1947 295.152 84.7512 294.619 84.4338 293.931C84.1205 293.239 83.9639 292.427 83.9639 291.496C83.9639 290.568 84.1226 289.76 84.4399 289.073C84.7573 288.385 85.2049 287.852 85.7827 287.473C86.3605 287.095 87.04 286.906 87.8213 286.906C88.2445 286.906 88.6778 286.981 89.1213 287.132C89.5649 287.282 89.9331 287.479 90.2261 287.724L89.811 288.725C89.5913 288.472 89.3065 288.269 88.9565 288.114C88.6107 287.96 88.2607 287.882 87.9067 287.882C87.3249 287.882 86.8183 288.033 86.387 288.334C85.9597 288.631 85.6281 289.05 85.3921 289.591C85.1561 290.132 85.0381 290.767 85.0381 291.496C85.0381 292.224 85.152 292.861 85.3799 293.406C85.6118 293.947 85.9373 294.368 86.3564 294.669C86.7796 294.971 87.276 295.121 87.8457 295.121C88.2241 295.121 88.5903 295.032 88.9443 294.853C89.2983 294.669 89.5872 294.438 89.811 294.157L90.2383 295.17C89.9209 295.455 89.5384 295.681 89.0908 295.847C88.6473 296.014 88.2078 296.098 87.7725 296.098ZM93.6074 296.098C93.0703 296.098 92.6024 295.955 92.2036 295.67C91.8089 295.386 91.5017 294.987 91.282 294.474C91.0663 293.957 90.9585 293.355 90.9585 292.667C90.9585 291.992 91.0663 291.404 91.282 290.904C91.5017 290.399 91.8089 290.008 92.2036 289.732C92.6024 289.451 93.0703 289.311 93.6074 289.311C94.1405 289.311 94.6043 289.451 94.999 289.732C95.3937 290.008 95.6989 290.399 95.9146 290.904C96.1343 291.404 96.2441 291.992 96.2441 292.667C96.2441 293.359 96.1343 293.963 95.9146 294.48C95.6989 294.993 95.3937 295.392 94.999 295.677C94.6043 295.957 94.1405 296.098 93.6074 296.098ZM93.6074 295.146C94.0957 295.146 94.4863 294.922 94.7793 294.474C95.0723 294.027 95.2188 293.424 95.2188 292.667C95.2188 291.939 95.0723 291.357 94.7793 290.922C94.4863 290.482 94.0957 290.263 93.6074 290.263C93.1151 290.263 92.7204 290.482 92.4233 290.922C92.1304 291.357 91.9839 291.939 91.9839 292.667C91.9839 293.416 92.1304 294.016 92.4233 294.468C92.7204 294.92 93.1151 295.146 93.6074 295.146ZM97.5381 296V289.408H98.5513V290.153H98.7222L98.4048 290.543C98.4984 290.194 98.6937 289.901 98.9907 289.665C99.2878 289.429 99.6458 289.311 100.065 289.311C100.427 289.311 100.751 289.431 101.035 289.671C101.32 289.911 101.526 290.226 101.652 290.617L101.261 290.25H101.737L101.359 290.617C101.477 290.226 101.707 289.911 102.049 289.671C102.394 289.431 102.787 289.311 103.227 289.311C103.784 289.311 104.23 289.52 104.563 289.939C104.901 290.358 105.07 290.91 105.07 291.593V296H104.044V291.569C104.044 291.17 103.941 290.849 103.733 290.604C103.53 290.36 103.263 290.238 102.934 290.238C102.592 290.238 102.319 290.362 102.116 290.611C101.912 290.859 101.811 291.178 101.811 291.569V296H100.785V291.569C100.785 291.17 100.683 290.849 100.48 290.604C100.281 290.36 100.012 290.238 99.6743 290.238C99.3447 290.238 99.0762 290.366 98.8687 290.623C98.6652 290.875 98.5635 291.203 98.5635 291.605V296H97.5381ZM106.608 296V289.408H107.621V290.153H107.792L107.475 290.543C107.568 290.194 107.764 289.901 108.061 289.665C108.358 289.429 108.716 289.311 109.135 289.311C109.497 289.311 109.82 289.431 110.105 289.671C110.39 289.911 110.596 290.226 110.722 290.617L110.331 290.25H110.807L110.429 290.617C110.547 290.226 110.777 289.911 111.118 289.671C111.464 289.431 111.857 289.311 112.296 289.311C112.854 289.311 113.299 289.52 113.633 289.939C113.971 290.358 114.14 290.91 114.14 291.593V296H113.114V291.569C113.114 291.17 113.01 290.849 112.803 290.604C112.6 290.36 112.333 290.238 112.003 290.238C111.662 290.238 111.389 290.362 111.186 290.611C110.982 290.859 110.88 291.178 110.88 291.569V296H109.855V291.569C109.855 291.17 109.753 290.849 109.55 290.604C109.35 290.36 109.082 290.238 108.744 290.238C108.415 290.238 108.146 290.366 107.938 290.623C107.735 290.875 107.633 291.203 107.633 291.605V296H106.608ZM117.301 296.098C116.935 296.098 116.61 296.012 116.325 295.841C116.04 295.67 115.816 295.436 115.653 295.139C115.491 294.842 115.409 294.507 115.409 294.132C115.409 293.489 115.635 292.989 116.087 292.631C116.542 292.273 117.143 292.094 117.887 292.094H119.047V292.924H117.924C117.444 292.924 117.067 293.028 116.795 293.235C116.522 293.443 116.386 293.729 116.386 294.096C116.386 294.429 116.485 294.7 116.685 294.907C116.884 295.115 117.143 295.219 117.46 295.219C117.716 295.219 117.952 295.152 118.168 295.017C118.384 294.879 118.555 294.692 118.681 294.456C118.811 294.216 118.876 293.941 118.876 293.632V292.887L118.852 292.533V291.374C118.852 291.032 118.738 290.761 118.51 290.562C118.282 290.362 117.997 290.263 117.655 290.263C117.387 290.263 117.106 290.32 116.813 290.434C116.52 290.543 116.276 290.69 116.081 290.873L115.69 289.97C115.967 289.762 116.294 289.601 116.673 289.488C117.051 289.37 117.407 289.311 117.741 289.311C118.363 289.311 118.866 289.49 119.248 289.848C119.635 290.202 119.828 290.678 119.828 291.276V294.352C119.828 294.56 119.861 294.722 119.926 294.84C119.991 294.958 120.084 295.052 120.207 295.121L120.316 295.182L119.926 296.098L119.779 296.024C119.535 295.902 119.342 295.738 119.199 295.53C119.061 295.323 118.986 295.133 118.974 294.962L119.157 295.158H118.791L119.108 294.926C118.945 295.28 118.707 295.565 118.394 295.78C118.08 295.992 117.716 296.098 117.301 296.098ZM121.537 296V289.408H122.562V290.141H122.794L122.379 290.556C122.51 290.157 122.746 289.85 123.087 289.634C123.429 289.418 123.808 289.311 124.223 289.311C124.796 289.311 125.256 289.514 125.602 289.921C125.952 290.324 126.127 290.853 126.127 291.508V296H125.102V291.63C125.102 291.215 124.99 290.879 124.766 290.623C124.546 290.366 124.255 290.238 123.893 290.238C123.633 290.238 123.403 290.297 123.203 290.415C123.004 290.533 122.847 290.698 122.733 290.91C122.619 291.117 122.562 291.361 122.562 291.642V296H121.537ZM132.682 296.098C132.458 295.976 132.277 295.851 132.139 295.725C132.001 295.599 131.897 295.463 131.828 295.316C131.763 295.166 131.726 294.995 131.718 294.804L131.901 294.975H131.425L131.693 294.23V290.983L131.437 290.263H131.559V286.601H132.584V294.401C132.584 294.608 132.627 294.765 132.713 294.871C132.798 294.977 132.922 295.076 133.085 295.17L132.682 296.098ZM129.85 296.098C129.081 296.098 128.479 295.795 128.043 295.188C127.612 294.578 127.396 293.746 127.396 292.692C127.396 291.642 127.614 290.816 128.05 290.214C128.485 289.612 129.089 289.311 129.862 289.311C130.607 289.311 131.179 289.612 131.577 290.214C131.98 290.816 132.182 291.642 132.182 292.692C132.182 293.754 131.978 294.588 131.571 295.194C131.168 295.797 130.595 296.098 129.85 296.098ZM130.058 295.146C130.566 295.146 130.959 294.93 131.236 294.499C131.516 294.063 131.657 293.461 131.657 292.692C131.657 291.935 131.516 291.341 131.236 290.91C130.959 290.478 130.566 290.263 130.058 290.263C129.557 290.263 129.158 290.478 128.861 290.91C128.568 291.341 128.422 291.935 128.422 292.692C128.422 293.449 128.568 294.047 128.861 294.486C129.154 294.926 129.553 295.146 130.058 295.146ZM91.5505 312V303.003H92.6248V306.91H96.4089V303.003H97.4832V312H96.4089V307.886H92.6248V312H91.5505ZM99.2654 312V305.408H100.291V312H99.2654ZM99.7781 304.493C99.5543 304.493 99.3651 304.417 99.2104 304.267C99.0599 304.112 98.9846 303.923 98.9846 303.699C98.9846 303.475 99.0599 303.288 99.2104 303.138C99.3651 302.983 99.5543 302.906 99.7781 302.906C100.002 302.906 100.189 302.983 100.34 303.138C100.494 303.288 100.572 303.475 100.572 303.699C100.572 303.923 100.494 304.112 100.34 304.267C100.189 304.417 100.002 304.493 99.7781 304.493ZM103.66 312.098C103.281 312.098 102.897 312.01 102.506 311.835C102.12 311.656 101.788 311.414 101.511 311.109L101.927 310.181C102.171 310.486 102.445 310.728 102.75 310.907C103.056 311.082 103.343 311.17 103.611 311.17C103.9 311.17 104.138 311.076 104.325 310.889C104.516 310.698 104.612 310.466 104.612 310.193C104.612 309.913 104.51 309.677 104.307 309.485C104.103 309.29 103.79 309.123 103.367 308.985C103.05 308.879 102.765 308.733 102.512 308.545C102.264 308.358 102.067 308.136 101.92 307.88C101.778 307.624 101.707 307.337 101.707 307.02C101.707 306.678 101.79 306.379 101.957 306.122C102.124 305.866 102.348 305.667 102.628 305.524C102.913 305.382 103.233 305.311 103.587 305.311C103.924 305.311 104.256 305.376 104.582 305.506C104.907 305.636 105.174 305.815 105.381 306.043L105.003 306.946C104.82 306.727 104.602 306.554 104.35 306.427C104.101 306.301 103.855 306.238 103.611 306.238C103.351 306.238 103.135 306.316 102.964 306.47C102.793 306.625 102.708 306.824 102.708 307.068C102.708 307.329 102.807 307.553 103.007 307.74C103.21 307.923 103.522 308.086 103.941 308.228C104.258 308.334 104.543 308.476 104.795 308.655C105.047 308.83 105.247 309.046 105.393 309.302C105.54 309.559 105.613 309.86 105.613 310.206C105.613 310.572 105.528 310.897 105.357 311.182C105.186 311.467 104.952 311.691 104.655 311.854C104.362 312.016 104.03 312.098 103.66 312.098ZM109.007 312.098C108.457 312.098 108.036 311.921 107.743 311.567C107.454 311.213 107.31 310.755 107.31 310.193V303.443H108.335V310.096C108.335 310.425 108.404 310.684 108.543 310.871C108.685 311.054 108.86 311.146 109.068 311.146C109.141 311.146 109.216 311.131 109.293 311.103C109.371 311.074 109.442 311.04 109.507 310.999L109.885 311.902C109.784 311.943 109.66 311.986 109.513 312.031C109.367 312.075 109.198 312.098 109.007 312.098ZM106.297 306.36V305.408H109.727V306.36H106.297ZM113.169 312.098C112.632 312.098 112.164 311.955 111.765 311.67C111.371 311.386 111.063 310.987 110.844 310.474C110.628 309.957 110.52 309.355 110.52 308.667C110.52 307.992 110.628 307.404 110.844 306.904C111.063 306.399 111.371 306.008 111.765 305.732C112.164 305.451 112.632 305.311 113.169 305.311C113.702 305.311 114.166 305.451 114.561 305.732C114.955 306.008 115.261 306.399 115.476 306.904C115.696 307.404 115.806 307.992 115.806 308.667C115.806 309.359 115.696 309.963 115.476 310.48C115.261 310.993 114.955 311.392 114.561 311.677C114.166 311.957 113.702 312.098 113.169 312.098ZM113.169 311.146C113.657 311.146 114.048 310.922 114.341 310.474C114.634 310.027 114.781 309.424 114.781 308.667C114.781 307.939 114.634 307.357 114.341 306.922C114.048 306.482 113.657 306.263 113.169 306.263C112.677 306.263 112.282 306.482 111.985 306.922C111.692 307.357 111.546 307.939 111.546 308.667C111.546 309.416 111.692 310.016 111.985 310.468C112.282 310.92 112.677 311.146 113.169 311.146ZM117.1 312V305.408H118.125V306.299H118.296L117.979 306.702C118.064 306.438 118.19 306.202 118.357 305.994C118.524 305.783 118.727 305.616 118.968 305.494C119.212 305.372 119.492 305.311 119.81 305.311C119.92 305.311 120.034 305.321 120.152 305.341C120.274 305.357 120.355 305.376 120.396 305.396L119.969 306.421C119.94 306.409 119.885 306.399 119.804 306.391C119.726 306.379 119.647 306.373 119.566 306.373C119.362 306.373 119.149 306.436 118.925 306.562C118.701 306.684 118.512 306.881 118.357 307.154C118.203 307.426 118.125 307.785 118.125 308.228V312H117.1ZM121.909 314.661C121.71 314.661 121.517 314.635 121.33 314.582C121.142 314.529 121.002 314.478 120.908 314.429L121.287 313.501C121.38 313.562 121.486 313.613 121.604 313.654C121.722 313.699 121.824 313.721 121.909 313.721C122.109 313.721 122.272 313.658 122.398 313.532C122.524 313.406 122.624 313.257 122.697 313.086C122.77 312.916 122.825 312.765 122.862 312.635L123.179 311.475V312.269L120.738 305.408H121.861L123.118 309.375L123.509 310.608H123.557L123.911 309.375L125.034 305.408H126.133L123.765 312.891C123.716 313.046 123.649 313.223 123.563 313.422C123.482 313.626 123.37 313.821 123.228 314.008C123.089 314.195 122.912 314.35 122.697 314.472C122.485 314.598 122.223 314.661 121.909 314.661Z" fill="white"/>
<rect x="22" y="220" width="48" height="48" rx="24" fill="#AECBFA"/>
<g clip-path="url(#clip5_2314_48)">
<path d="M55.3333 230.667H49.76C49.2 229.12 47.7333 228 46 228C44.2667 228 42.8 229.12 42.24 230.667H36.6667C35.2 230.667 34 231.867 34 233.333V254.667C34 256.133 35.2 257.333 36.6667 257.333H55.3333C56.8 257.333 58 256.133 58 254.667V233.333C58 231.867 56.8 230.667 55.3333 230.667ZM46 230.667C46.7333 230.667 47.3333 231.267 47.3333 232C47.3333 232.733 46.7333 233.333 46 233.333C45.2667 233.333 44.6667 232.733 44.6667 232C44.6667 231.267 45.2667 230.667 46 230.667ZM55.3333 254.667H36.6667V233.333H39.3333V237.333H52.6667V233.333H55.3333V254.667Z" fill="#202124"/>
</g>
<path d="M38.0476 296.098C37.2786 296.098 36.6092 295.908 36.0396 295.53C35.4699 295.152 35.0264 294.619 34.709 293.931C34.3957 293.239 34.239 292.427 34.239 291.496C34.239 290.568 34.3977 289.76 34.7151 289.073C35.0325 288.385 35.4801 287.852 36.0579 287.473C36.6357 287.095 37.3152 286.906 38.0964 286.906C38.5196 286.906 38.953 286.981 39.3965 287.132C39.84 287.282 40.2083 287.479 40.5012 287.724L40.0862 288.725C39.8665 288.472 39.5816 288.269 39.2317 288.114C38.8858 287.96 38.5359 287.882 38.1819 287.882C37.6 287.882 37.0934 288.033 36.6621 288.334C36.2349 288.631 35.9032 289.05 35.6672 289.591C35.4312 290.132 35.3132 290.767 35.3132 291.496C35.3132 292.224 35.4272 292.861 35.655 293.406C35.887 293.947 36.2125 294.368 36.6316 294.669C37.0548 294.971 37.5512 295.121 38.1208 295.121C38.4993 295.121 38.8655 295.032 39.2195 294.853C39.5735 294.669 39.8624 294.438 40.0862 294.157L40.5134 295.17C40.196 295.455 39.8136 295.681 39.366 295.847C38.9224 296.014 38.483 296.098 38.0476 296.098ZM42.9792 296.098C42.6903 296.098 42.4543 296.033 42.2712 295.902C42.0922 295.772 41.96 295.587 41.8745 295.347C41.7891 295.103 41.7463 294.812 41.7463 294.474V286.601H42.7717V294.499C42.7717 294.56 42.7778 294.641 42.79 294.743C42.8063 294.844 42.847 294.938 42.9121 295.023C42.9772 295.105 43.0891 295.146 43.2478 295.146C43.3536 295.146 43.4472 295.129 43.5286 295.097V296.024C43.4513 296.049 43.3617 296.067 43.26 296.079C43.1583 296.092 43.0647 296.098 42.9792 296.098ZM44.8225 296V289.408H45.8479V296H44.8225ZM45.3352 288.493C45.1114 288.493 44.9222 288.417 44.7676 288.267C44.617 288.112 44.5417 287.923 44.5417 287.699C44.5417 287.475 44.617 287.288 44.7676 287.138C44.9222 286.983 45.1114 286.906 45.3352 286.906C45.559 286.906 45.7462 286.983 45.8967 287.138C46.0514 287.288 46.1287 287.475 46.1287 287.699C46.1287 287.923 46.0514 288.112 45.8967 288.267C45.7462 288.417 45.559 288.493 45.3352 288.493ZM47.4592 298.563V289.408H48.4846V290.141H48.6189L48.3503 291.007V294.364L48.6677 295.243H48.4846V298.563H47.4592ZM50.1936 296.098C49.449 296.098 48.8732 295.797 48.4663 295.194C48.0635 294.588 47.8621 293.754 47.8621 292.692C47.8621 291.642 48.0614 290.816 48.4602 290.214C48.863 289.612 49.4368 289.311 50.1814 289.311C50.9586 289.311 51.5628 289.612 51.9941 290.214C52.4295 290.816 52.6472 291.642 52.6472 292.692C52.6472 293.746 52.4295 294.578 51.9941 295.188C51.5628 295.795 50.9626 296.098 50.1936 296.098ZM49.9861 295.146C50.4947 295.146 50.8935 294.926 51.1824 294.486C51.4753 294.047 51.6218 293.449 51.6218 292.692C51.6218 291.935 51.4733 291.341 51.1763 290.91C50.8833 290.478 50.4866 290.263 49.9861 290.263C49.4815 290.263 49.0889 290.478 48.8081 290.91C48.5273 291.341 48.387 291.935 48.387 292.692C48.387 293.461 48.5273 294.063 48.8081 294.499C49.0889 294.93 49.4815 295.146 49.9861 295.146ZM53.7947 293.119V292.204H56.8098V293.119H53.7947ZM32.7864 312V311.023H34.3977C34.8697 311.023 35.2461 310.879 35.5269 310.59C35.8076 310.301 35.948 309.925 35.948 309.461C35.948 308.985 35.7934 308.606 35.4841 308.326C35.179 308.041 34.7761 307.898 34.2756 307.898H32.6765V306.946H34.0315C34.4587 306.946 34.8005 306.808 35.0569 306.531C35.3173 306.255 35.4475 305.896 35.4475 305.457C35.4475 304.993 35.3092 304.631 35.0325 304.371C34.7598 304.11 34.3977 303.98 33.946 303.98H32.6765V303.003H33.9216C34.4384 303.003 34.8901 303.097 35.2766 303.284C35.6632 303.467 35.9622 303.73 36.1738 304.072C36.3895 304.413 36.4973 304.818 36.4973 305.286C36.4973 305.612 36.4465 305.919 36.3447 306.208C36.243 306.493 36.1006 306.741 35.9175 306.952C35.7344 307.164 35.5208 307.321 35.2766 307.422V307.154C35.8259 307.304 36.2491 307.595 36.5461 308.027C36.8472 308.454 36.9978 308.965 36.9978 309.559C36.9978 310.043 36.8879 310.468 36.6682 310.834C36.4526 311.2 36.1474 311.487 35.7527 311.695C35.358 311.898 34.8941 312 34.3611 312H32.7864ZM31.822 312V303.003H32.8718V312H31.822ZM40.7454 312.098C40.2083 312.098 39.7403 311.955 39.3416 311.67C38.9469 311.386 38.6396 310.987 38.4199 310.474C38.2043 309.957 38.0964 309.355 38.0964 308.667C38.0964 307.992 38.2043 307.404 38.4199 306.904C38.6396 306.399 38.9469 306.008 39.3416 305.732C39.7403 305.451 40.2083 305.311 40.7454 305.311C41.2784 305.311 41.7423 305.451 42.137 305.732C42.5317 306.008 42.8368 306.399 43.0525 306.904C43.2722 307.404 43.3821 307.992 43.3821 308.667C43.3821 309.359 43.2722 309.963 43.0525 310.48C42.8368 310.993 42.5317 311.392 42.137 311.677C41.7423 311.957 41.2784 312.098 40.7454 312.098ZM40.7454 311.146C41.2336 311.146 41.6243 310.922 41.9172 310.474C42.2102 310.027 42.3567 309.424 42.3567 308.667C42.3567 307.939 42.2102 307.357 41.9172 306.922C41.6243 306.482 41.2336 306.263 40.7454 306.263C40.253 306.263 39.8583 306.482 39.5613 306.922C39.2683 307.357 39.1218 307.939 39.1218 308.667C39.1218 309.416 39.2683 310.016 39.5613 310.468C39.8583 310.92 40.253 311.146 40.7454 311.146ZM46.2507 312.098C45.8845 312.098 45.559 312.012 45.2742 311.841C44.9893 311.67 44.7655 311.436 44.6028 311.139C44.44 310.842 44.3586 310.507 44.3586 310.132C44.3586 309.489 44.5845 308.989 45.0361 308.631C45.4919 308.273 46.092 308.094 46.8367 308.094H47.9963V308.924H46.8733C46.3931 308.924 46.0168 309.028 45.7441 309.235C45.4715 309.443 45.3352 309.729 45.3352 310.096C45.3352 310.429 45.4349 310.7 45.6343 310.907C45.8337 311.115 46.092 311.219 46.4094 311.219C46.6658 311.219 46.9018 311.152 47.1174 311.017C47.3331 310.879 47.504 310.692 47.6301 310.456C47.7603 310.216 47.8254 309.941 47.8254 309.632V308.887L47.801 308.533V307.374C47.801 307.032 47.6871 306.761 47.4592 306.562C47.2314 306.362 46.9465 306.263 46.6047 306.263C46.3362 306.263 46.0554 306.32 45.7625 306.434C45.4695 306.543 45.2253 306.69 45.03 306.873L44.6394 305.97C44.9161 305.762 45.2437 305.601 45.6221 305.488C46.0005 305.37 46.3565 305.311 46.6902 305.311C47.3127 305.311 47.8153 305.49 48.1978 305.848C48.5843 306.202 48.7776 306.678 48.7776 307.276V310.352C48.7776 310.56 48.8101 310.722 48.8752 310.84C48.9403 310.958 49.0339 311.052 49.156 311.121L49.2659 311.182L48.8752 312.098L48.7288 312.024C48.4846 311.902 48.2913 311.738 48.1489 311.53C48.0106 311.323 47.9353 311.133 47.9231 310.962L48.1062 311.158H47.74L48.0574 310.926C47.8946 311.28 47.6566 311.565 47.3433 311.78C47.0299 311.992 46.6658 312.098 46.2507 312.098ZM50.4866 312V305.408H51.512V306.299H51.6829L51.3655 306.702C51.4509 306.438 51.5771 306.202 51.7439 305.994C51.9107 305.783 52.1142 305.616 52.3542 305.494C52.5984 305.372 52.8792 305.311 53.1965 305.311C53.3064 305.311 53.4203 305.321 53.5383 305.341C53.6604 305.357 53.7418 305.376 53.7825 305.396L53.3552 306.421C53.3267 306.409 53.2718 306.399 53.1904 306.391C53.1131 306.379 53.0338 306.373 52.9524 306.373C52.7489 306.373 52.5353 306.436 52.3115 306.562C52.0877 306.684 51.8985 306.881 51.7439 307.154C51.5893 307.426 51.512 307.785 51.512 308.228V312H50.4866ZM59.2634 312.098C59.0396 311.976 58.8586 311.851 58.7202 311.725C58.5819 311.599 58.4781 311.463 58.4089 311.316C58.3438 311.166 58.3072 310.995 58.2991 310.804L58.4822 310.975H58.0061L58.2747 310.23V306.983L58.0183 306.263H58.1404V302.601H59.1658V310.401C59.1658 310.608 59.2085 310.765 59.2939 310.871C59.3794 310.977 59.5035 311.076 59.6663 311.17L59.2634 312.098ZM56.4314 312.098C55.6624 312.098 55.0601 311.795 54.6248 311.188C54.1934 310.578 53.9778 309.746 53.9778 308.692C53.9778 307.642 54.1955 306.816 54.6309 306.214C55.0662 305.612 55.6705 305.311 56.4436 305.311C57.1882 305.311 57.7599 305.612 58.1587 306.214C58.5615 306.816 58.7629 307.642 58.7629 308.692C58.7629 309.754 58.5595 310.588 58.1526 311.194C57.7498 311.797 57.176 312.098 56.4314 312.098ZM56.6389 311.146C57.1475 311.146 57.5402 310.93 57.8169 310.499C58.0977 310.063 58.238 309.461 58.238 308.692C58.238 307.935 58.0977 307.341 57.8169 306.91C57.5402 306.478 57.1475 306.263 56.6389 306.263C56.1384 306.263 55.7397 306.478 55.4426 306.91C55.1497 307.341 55.0032 307.935 55.0032 308.692C55.0032 309.449 55.1497 310.047 55.4426 310.486C55.7356 310.926 56.1344 311.146 56.6389 311.146Z" fill="white"/>
<rect x="148" y="220" width="48" height="48" rx="24" fill="#F28B82"/>
<g clip-path="url(#clip6_2314_48)">
<path d="M181.333 232H162.667C161.2 232 160 233.2 160 234.667V253.333C160 254.8 161.2 256 162.667 256H181.333C182.8 256 184 254.8 184 253.333V234.667C184 233.2 182.8 232 181.333 232ZM173.373 237.413L174.787 236L176.667 237.88L178.547 236L179.96 237.413L178.08 239.293L179.96 241.173L178.547 242.587L176.667 240.72L174.787 242.6L173.373 241.187L175.253 239.307L173.373 237.413ZM164.333 238.293H171V240.293H164.333V238.293ZM171.333 249.333H168.667V252H166.667V249.333H164V247.333H166.667V244.667H168.667V247.333H171.333V249.333ZM180 251H173.333V249H180V251ZM180 247.667H173.333V245.667H180V247.667Z" fill="#202124"/>
</g>
<path d="M150.553 304.098C149.784 304.098 149.114 303.908 148.545 303.53C147.975 303.152 147.531 302.619 147.214 301.931C146.901 301.239 146.744 300.427 146.744 299.496C146.744 298.568 146.903 297.76 147.22 297.073C147.538 296.385 147.985 295.852 148.563 295.473C149.141 295.095 149.82 294.906 150.602 294.906C151.025 294.906 151.458 294.981 151.902 295.132C152.345 295.282 152.713 295.479 153.006 295.724L152.591 296.725C152.372 296.472 152.087 296.269 151.737 296.114C151.391 295.96 151.041 295.882 150.687 295.882C150.105 295.882 149.599 296.033 149.167 296.334C148.74 296.631 148.408 297.05 148.172 297.591C147.936 298.132 147.818 298.767 147.818 299.496C147.818 300.224 147.932 300.861 148.16 301.406C148.392 301.947 148.718 302.368 149.137 302.669C149.56 302.971 150.056 303.121 150.626 303.121C151.004 303.121 151.371 303.032 151.725 302.853C152.079 302.669 152.368 302.438 152.591 302.157L153.019 303.17C152.701 303.455 152.319 303.681 151.871 303.847C151.428 304.014 150.988 304.098 150.553 304.098ZM155.68 304.098C155.313 304.098 154.988 304.012 154.703 303.841C154.418 303.67 154.194 303.436 154.032 303.139C153.869 302.842 153.788 302.507 153.788 302.132C153.788 301.489 154.013 300.989 154.465 300.631C154.921 300.273 155.521 300.094 156.266 300.094H157.425V300.924H156.302C155.822 300.924 155.446 301.028 155.173 301.235C154.9 301.443 154.764 301.729 154.764 302.096C154.764 302.429 154.864 302.7 155.063 302.907C155.263 303.115 155.521 303.219 155.838 303.219C156.095 303.219 156.331 303.152 156.546 303.017C156.762 302.879 156.933 302.692 157.059 302.456C157.189 302.216 157.254 301.941 157.254 301.632V300.887L157.23 300.533V299.374C157.23 299.032 157.116 298.761 156.888 298.562C156.66 298.362 156.375 298.263 156.034 298.263C155.765 298.263 155.484 298.32 155.191 298.434C154.898 298.543 154.654 298.69 154.459 298.873L154.068 297.97C154.345 297.762 154.673 297.601 155.051 297.488C155.429 297.37 155.785 297.311 156.119 297.311C156.742 297.311 157.244 297.49 157.627 297.848C158.013 298.202 158.207 298.678 158.207 299.276V302.352C158.207 302.56 158.239 302.722 158.304 302.84C158.369 302.958 158.463 303.052 158.585 303.121L158.695 303.182L158.304 304.098L158.158 304.024C157.914 303.902 157.72 303.738 157.578 303.53C157.44 303.323 157.364 303.133 157.352 302.962L157.535 303.158H157.169L157.486 302.926C157.324 303.28 157.086 303.565 156.772 303.78C156.459 303.992 156.095 304.098 155.68 304.098ZM161.124 304.098C160.835 304.098 160.599 304.033 160.416 303.902C160.237 303.772 160.105 303.587 160.019 303.347C159.934 303.103 159.891 302.812 159.891 302.474V294.601H160.917V302.499C160.917 302.56 160.923 302.641 160.935 302.743C160.951 302.844 160.992 302.938 161.057 303.023C161.122 303.105 161.234 303.146 161.393 303.146C161.498 303.146 161.592 303.129 161.673 303.097V304.024C161.596 304.049 161.507 304.067 161.405 304.079C161.303 304.092 161.209 304.098 161.124 304.098ZM165.238 304.073C164.709 304.073 164.241 303.933 163.834 303.652C163.427 303.371 163.108 302.977 162.876 302.468C162.644 301.955 162.528 301.355 162.528 300.667C162.528 299.992 162.642 299.402 162.87 298.897C163.102 298.393 163.421 298 163.828 297.719C164.235 297.439 164.705 297.298 165.238 297.298C165.604 297.298 165.94 297.363 166.245 297.494C166.55 297.62 166.808 297.774 167.02 297.958L166.629 298.812C166.471 298.633 166.265 298.495 166.013 298.397C165.761 298.299 165.527 298.25 165.311 298.25C164.957 298.25 164.648 298.352 164.383 298.556C164.123 298.759 163.919 299.044 163.773 299.41C163.626 299.776 163.553 300.204 163.553 300.692C163.553 301.184 163.626 301.614 163.773 301.98C163.919 302.342 164.123 302.623 164.383 302.822C164.648 303.021 164.957 303.121 165.311 303.121C165.551 303.121 165.793 303.07 166.037 302.969C166.286 302.863 166.483 302.718 166.629 302.535L167.02 303.414C166.812 303.609 166.55 303.768 166.233 303.89C165.919 304.012 165.588 304.073 165.238 304.073ZM170.157 304.098C169.783 304.098 169.445 304.004 169.144 303.817C168.843 303.626 168.605 303.363 168.43 303.03C168.255 302.696 168.167 302.311 168.167 301.876V297.408H169.193V301.864C169.193 302.23 169.301 302.539 169.516 302.792C169.736 303.044 170.035 303.17 170.414 303.17C170.658 303.17 170.879 303.115 171.079 303.005C171.282 302.891 171.443 302.737 171.561 302.541C171.683 302.346 171.744 302.124 171.744 301.876V297.408H172.77V302.45C172.77 302.6 172.812 302.739 172.898 302.865C172.983 302.987 173.107 303.089 173.27 303.17L172.867 304.098C172.558 303.939 172.326 303.752 172.171 303.536C172.021 303.316 171.935 303.097 171.915 302.877L172.135 303.121H171.708L172.074 302.889C171.903 303.243 171.646 303.534 171.305 303.762C170.967 303.986 170.584 304.098 170.157 304.098ZM175.699 304.098C175.41 304.098 175.174 304.033 174.991 303.902C174.812 303.772 174.68 303.587 174.594 303.347C174.509 303.103 174.466 302.812 174.466 302.474V294.601H175.492V302.499C175.492 302.56 175.498 302.641 175.51 302.743C175.526 302.844 175.567 302.938 175.632 303.023C175.697 303.105 175.809 303.146 175.968 303.146C176.074 303.146 176.167 303.129 176.249 303.097V304.024C176.171 304.049 176.082 304.067 175.98 304.079C175.878 304.092 175.785 304.098 175.699 304.098ZM178.995 304.098C178.629 304.098 178.303 304.012 178.019 303.841C177.734 303.67 177.51 303.436 177.347 303.139C177.184 302.842 177.103 302.507 177.103 302.132C177.103 301.489 177.329 300.989 177.781 300.631C178.236 300.273 178.836 300.094 179.581 300.094H180.741V300.924H179.618C179.138 300.924 178.761 301.028 178.489 301.235C178.216 301.443 178.08 301.729 178.08 302.096C178.08 302.429 178.179 302.7 178.379 302.907C178.578 303.115 178.836 303.219 179.154 303.219C179.41 303.219 179.646 303.152 179.862 303.017C180.077 302.879 180.248 302.692 180.375 302.456C180.505 302.216 180.57 301.941 180.57 301.632V300.887L180.545 300.533V299.374C180.545 299.032 180.431 298.761 180.204 298.562C179.976 298.362 179.691 298.263 179.349 298.263C179.081 298.263 178.8 298.32 178.507 298.434C178.214 298.543 177.97 298.69 177.774 298.873L177.384 297.97C177.66 297.762 177.988 297.601 178.366 297.488C178.745 297.37 179.101 297.311 179.435 297.311C180.057 297.311 180.56 297.49 180.942 297.848C181.329 298.202 181.522 298.678 181.522 299.276V302.352C181.522 302.56 181.555 302.722 181.62 302.84C181.685 302.958 181.778 303.052 181.9 303.121L182.01 303.182L181.62 304.098L181.473 304.024C181.229 303.902 181.036 303.738 180.893 303.53C180.755 303.323 180.68 303.133 180.667 302.962L180.851 303.158H180.484L180.802 302.926C180.639 303.28 180.401 303.565 180.088 303.78C179.774 303.992 179.41 304.098 178.995 304.098ZM185.306 304.098C184.757 304.098 184.336 303.921 184.043 303.567C183.754 303.213 183.609 302.755 183.609 302.193V295.443H184.635V302.096C184.635 302.425 184.704 302.684 184.842 302.871C184.985 303.054 185.16 303.146 185.367 303.146C185.44 303.146 185.516 303.131 185.593 303.103C185.67 303.074 185.742 303.04 185.807 302.999L186.185 303.902C186.083 303.943 185.959 303.986 185.813 304.031C185.666 304.075 185.497 304.098 185.306 304.098ZM182.596 298.36V297.408H186.026V298.36H182.596ZM189.469 304.098C188.932 304.098 188.464 303.955 188.065 303.67C187.67 303.386 187.363 302.987 187.143 302.474C186.928 301.957 186.82 301.355 186.82 300.667C186.82 299.992 186.928 299.404 187.143 298.904C187.363 298.399 187.67 298.008 188.065 297.732C188.464 297.451 188.932 297.311 189.469 297.311C190.002 297.311 190.466 297.451 190.86 297.732C191.255 298.008 191.56 298.399 191.776 298.904C191.996 299.404 192.105 299.992 192.105 300.667C192.105 301.359 191.996 301.963 191.776 302.48C191.56 302.993 191.255 303.392 190.86 303.677C190.466 303.957 190.002 304.098 189.469 304.098ZM189.469 303.146C189.957 303.146 190.348 302.922 190.641 302.474C190.934 302.027 191.08 301.424 191.08 300.667C191.08 299.939 190.934 299.357 190.641 298.922C190.348 298.482 189.957 298.263 189.469 298.263C188.976 298.263 188.582 298.482 188.285 298.922C187.992 299.357 187.845 299.939 187.845 300.667C187.845 301.416 187.992 302.016 188.285 302.468C188.582 302.92 188.976 303.146 189.469 303.146ZM193.399 304V297.408H194.425V298.299H194.596L194.278 298.702C194.364 298.438 194.49 298.202 194.657 297.994C194.824 297.783 195.027 297.616 195.267 297.494C195.511 297.372 195.792 297.311 196.109 297.311C196.219 297.311 196.333 297.321 196.451 297.341C196.573 297.357 196.655 297.376 196.695 297.396L196.268 298.421C196.24 298.409 196.185 298.399 196.103 298.391C196.026 298.379 195.947 298.373 195.865 298.373C195.662 298.373 195.448 298.436 195.224 298.562C195.001 298.684 194.811 298.881 194.657 299.154C194.502 299.426 194.425 299.785 194.425 300.228V304H193.399Z" fill="white"/>
<rect x="211" y="220" width="48" height="48" rx="24" fill="#9AA0A6"/>
<g clip-path="url(#clip7_2314_48)">
<path d="M248.333 232L246.107 234.227L243.893 232L241.667 234.227L239.44 232L237.227 234.227L235 232L232.773 234.227L230.56 232L228.333 234.227L226.107 232L223.893 234.227L221.667 232V253.333C221.667 254.8 222.867 256 224.333 256H245.667C247.133 256 248.333 254.8 248.333 253.333V232ZM233.667 253.333H224.333V245.333H233.667V253.333ZM245.667 253.333H236.333V250.667H245.667V253.333ZM245.667 248H236.333V245.333H245.667V248ZM245.667 242.667H224.333V238.667H245.667V242.667Z" fill="#202124"/>
</g>
<path d="M215.536 296.098C215.191 296.098 214.855 296.039 214.529 295.921C214.204 295.803 213.905 295.646 213.632 295.451C213.359 295.255 213.132 295.044 212.948 294.816L213.412 293.717C213.571 293.953 213.76 294.177 213.98 294.389C214.204 294.596 214.444 294.767 214.7 294.901C214.957 295.032 215.219 295.097 215.488 295.097C215.752 295.097 215.994 295.03 216.214 294.895C216.438 294.761 216.617 294.576 216.751 294.34C216.885 294.104 216.952 293.835 216.952 293.534C216.952 293.245 216.885 292.997 216.751 292.79C216.621 292.578 216.432 292.395 216.183 292.24C215.935 292.082 215.638 291.935 215.292 291.801C214.849 291.626 214.464 291.414 214.139 291.166C213.817 290.918 213.569 290.631 213.394 290.305C213.219 289.976 213.132 289.604 213.132 289.188C213.132 288.741 213.229 288.346 213.425 288.004C213.624 287.659 213.897 287.39 214.242 287.199C214.592 287.003 214.991 286.906 215.439 286.906C215.878 286.906 216.301 287.003 216.708 287.199C217.119 287.394 217.461 287.654 217.734 287.98L217.319 288.981C217.152 288.765 216.967 288.578 216.763 288.419C216.56 288.257 216.346 288.131 216.122 288.041C215.903 287.951 215.683 287.907 215.463 287.907C215.085 287.907 214.78 288.033 214.548 288.285C214.32 288.537 214.206 288.847 214.206 289.213C214.206 289.644 214.35 289.992 214.639 290.257C214.932 290.517 215.325 290.743 215.817 290.934C216.208 291.085 216.57 291.27 216.904 291.49C217.241 291.709 217.512 291.986 217.715 292.32C217.923 292.649 218.027 293.058 218.027 293.546C218.027 294.055 217.913 294.501 217.685 294.883C217.461 295.266 217.16 295.565 216.781 295.78C216.407 295.992 215.992 296.098 215.536 296.098ZM221.677 296.098C221.139 296.098 220.671 295.955 220.273 295.67C219.878 295.386 219.571 294.987 219.351 294.474C219.135 293.957 219.028 293.355 219.028 292.667C219.028 291.992 219.135 291.404 219.351 290.904C219.571 290.399 219.878 290.008 220.273 289.732C220.671 289.451 221.139 289.311 221.677 289.311C222.21 289.311 222.673 289.451 223.068 289.732C223.463 290.008 223.768 290.399 223.984 290.904C224.203 291.404 224.313 291.992 224.313 292.667C224.313 293.359 224.203 293.963 223.984 294.48C223.768 294.993 223.463 295.392 223.068 295.677C222.673 295.957 222.21 296.098 221.677 296.098ZM221.677 295.146C222.165 295.146 222.555 294.922 222.848 294.474C223.141 294.027 223.288 293.424 223.288 292.667C223.288 291.939 223.141 291.357 222.848 290.922C222.555 290.482 222.165 290.263 221.677 290.263C221.184 290.263 220.789 290.482 220.492 290.922C220.199 291.357 220.053 291.939 220.053 292.667C220.053 293.416 220.199 294.016 220.492 294.468C220.789 294.92 221.184 295.146 221.677 295.146ZM224.972 290.36V289.408H228.366V290.36H224.972ZM225.986 296V288.371C225.986 288.004 226.051 287.681 226.181 287.4C226.315 287.119 226.508 286.9 226.761 286.741C227.013 286.582 227.32 286.503 227.682 286.503C227.861 286.503 228.02 286.521 228.158 286.558C228.301 286.59 228.435 286.637 228.561 286.698L228.183 287.626C228.122 287.569 228.051 287.53 227.969 287.51C227.888 287.49 227.813 287.479 227.743 287.479C227.532 287.479 227.357 287.567 227.219 287.742C227.08 287.917 227.011 288.163 227.011 288.48V296H225.986ZM231.784 296.098C231.235 296.098 230.813 295.921 230.521 295.567C230.232 295.213 230.087 294.755 230.087 294.193V287.443H231.113V294.096C231.113 294.425 231.182 294.684 231.32 294.871C231.462 295.054 231.637 295.146 231.845 295.146C231.918 295.146 231.993 295.131 232.071 295.103C232.148 295.074 232.219 295.04 232.284 294.999L232.663 295.902C232.561 295.943 232.437 295.986 232.291 296.031C232.144 296.075 231.975 296.098 231.784 296.098ZM229.074 290.36V289.408H232.504V290.36H229.074ZM234.799 296L233.2 289.408H234.25L234.994 292.875L235.324 294.56H235.373L235.763 293.07L236.777 289.909H237.35L238.351 293.07L238.754 294.56H238.803L239.12 292.875L239.877 289.408H240.915L239.316 296H238.351L237.814 294.193L237.082 291.801H237.033L236.301 294.193L235.763 296H234.799ZM243.393 296.098C243.027 296.098 242.701 296.012 242.416 295.841C242.131 295.67 241.908 295.436 241.745 295.139C241.582 294.842 241.501 294.507 241.501 294.132C241.501 293.489 241.727 292.989 242.178 292.631C242.634 292.273 243.234 292.094 243.979 292.094H245.138V292.924H244.015C243.535 292.924 243.159 293.028 242.886 293.235C242.614 293.443 242.477 293.729 242.477 294.096C242.477 294.429 242.577 294.7 242.776 294.907C242.976 295.115 243.234 295.219 243.552 295.219C243.808 295.219 244.044 295.152 244.26 295.017C244.475 294.879 244.646 294.692 244.772 294.456C244.902 294.216 244.968 293.941 244.968 293.632V292.887L244.943 292.533V291.374C244.943 291.032 244.829 290.761 244.601 290.562C244.373 290.362 244.089 290.263 243.747 290.263C243.478 290.263 243.198 290.32 242.905 290.434C242.612 290.543 242.367 290.69 242.172 290.873L241.781 289.97C242.058 289.762 242.386 289.601 242.764 289.488C243.143 289.37 243.499 289.311 243.832 289.311C244.455 289.311 244.957 289.49 245.34 289.848C245.726 290.202 245.92 290.678 245.92 291.276V294.352C245.92 294.56 245.952 294.722 246.017 294.84C246.082 294.958 246.176 295.052 246.298 295.121L246.408 295.182L246.017 296.098L245.871 296.024C245.627 295.902 245.433 295.738 245.291 295.53C245.153 295.323 245.077 295.133 245.065 294.962L245.248 295.158H244.882L245.199 294.926C245.037 295.28 244.799 295.565 244.485 295.78C244.172 295.992 243.808 296.098 243.393 296.098ZM247.629 296V289.408H248.654V290.299H248.825L248.508 290.702C248.593 290.438 248.719 290.202 248.886 289.994C249.053 289.783 249.256 289.616 249.496 289.494C249.74 289.372 250.021 289.311 250.339 289.311C250.448 289.311 250.562 289.321 250.68 289.341C250.802 289.357 250.884 289.376 250.925 289.396L250.497 290.421C250.469 290.409 250.414 290.399 250.333 290.391C250.255 290.379 250.176 290.373 250.094 290.373C249.891 290.373 249.677 290.436 249.454 290.562C249.23 290.684 249.041 290.881 248.886 291.154C248.731 291.426 248.654 291.785 248.654 292.228V296H247.629ZM253.793 296.098C253.256 296.098 252.786 295.955 252.383 295.67C251.985 295.386 251.673 294.985 251.449 294.468C251.23 293.951 251.12 293.343 251.12 292.643C251.12 291.984 251.22 291.404 251.419 290.904C251.622 290.403 251.911 290.012 252.286 289.732C252.66 289.451 253.106 289.311 253.622 289.311C254.107 289.311 254.528 289.437 254.886 289.689C255.248 289.941 255.529 290.295 255.728 290.751C255.927 291.207 256.027 291.74 256.027 292.35C256.027 292.497 256.021 292.635 256.009 292.765C256.001 292.891 255.99 293.009 255.978 293.119H251.901V292.265H255.026C255.026 291.667 254.902 291.184 254.654 290.818C254.406 290.448 254.062 290.263 253.622 290.263C253.301 290.263 253.028 290.364 252.804 290.568C252.581 290.771 252.41 291.054 252.292 291.416C252.178 291.778 252.121 292.2 252.121 292.68C252.121 293.18 252.188 293.616 252.322 293.986C252.457 294.352 252.65 294.637 252.902 294.84C253.154 295.044 253.455 295.146 253.805 295.146C254.033 295.146 254.277 295.097 254.538 294.999C254.798 294.901 255.034 294.759 255.246 294.572L255.624 295.5C255.368 295.687 255.077 295.833 254.751 295.939C254.43 296.045 254.111 296.098 253.793 296.098ZM217.654 312.098C217.093 312.098 216.602 311.978 216.183 311.738C215.768 311.497 215.445 311.162 215.213 310.73C214.985 310.295 214.871 309.786 214.871 309.205V303.003H215.945V309.205C215.945 309.778 216.1 310.242 216.409 310.596C216.722 310.946 217.138 311.121 217.654 311.121C218.179 311.121 218.596 310.946 218.906 310.596C219.219 310.242 219.375 309.778 219.375 309.205V303.003H220.45V309.205C220.45 309.786 220.336 310.295 220.108 310.73C219.88 311.162 219.557 311.497 219.137 311.738C218.718 311.978 218.224 312.098 217.654 312.098ZM222.183 314.563V305.408H223.208V306.141H223.343L223.074 307.007V310.364L223.392 311.243H223.208V314.563H222.183ZM224.917 312.098C224.173 312.098 223.597 311.797 223.19 311.194C222.787 310.588 222.586 309.754 222.586 308.692C222.586 307.642 222.785 306.816 223.184 306.214C223.587 305.612 224.161 305.311 224.905 305.311C225.682 305.311 226.287 305.612 226.718 306.214C227.153 306.816 227.371 307.642 227.371 308.692C227.371 309.746 227.153 310.578 226.718 311.188C226.287 311.795 225.687 312.098 224.917 312.098ZM224.71 311.146C225.219 311.146 225.617 310.926 225.906 310.486C226.199 310.047 226.346 309.449 226.346 308.692C226.346 307.935 226.197 307.341 225.9 306.91C225.607 306.478 225.21 306.263 224.71 306.263C224.205 306.263 223.813 306.478 223.532 306.91C223.251 307.341 223.111 307.935 223.111 308.692C223.111 309.461 223.251 310.063 223.532 310.499C223.813 310.93 224.205 311.146 224.71 311.146ZM233.633 312.098C233.41 311.976 233.228 311.851 233.09 311.725C232.952 311.599 232.848 311.463 232.779 311.316C232.714 311.166 232.677 310.995 232.669 310.804L232.852 310.975H232.376L232.645 310.23V306.983L232.388 306.263H232.51V302.601H233.536V310.401C233.536 310.608 233.578 310.765 233.664 310.871C233.749 310.977 233.873 311.076 234.036 311.17L233.633 312.098ZM230.801 312.098C230.032 312.098 229.43 311.795 228.995 311.188C228.563 310.578 228.348 309.746 228.348 308.692C228.348 307.642 228.565 306.816 229.001 306.214C229.436 305.612 230.04 305.311 230.813 305.311C231.558 305.311 232.13 305.612 232.529 306.214C232.931 306.816 233.133 307.642 233.133 308.692C233.133 309.754 232.929 310.588 232.522 311.194C232.12 311.797 231.546 312.098 230.801 312.098ZM231.009 311.146C231.517 311.146 231.91 310.93 232.187 310.499C232.468 310.063 232.608 309.461 232.608 308.692C232.608 307.935 232.468 307.341 232.187 306.91C231.91 306.478 231.517 306.263 231.009 306.263C230.508 306.263 230.11 306.478 229.812 306.91C229.52 307.341 229.373 307.935 229.373 308.692C229.373 309.449 229.52 310.047 229.812 310.486C230.105 310.926 230.504 311.146 231.009 311.146ZM236.905 312.098C236.539 312.098 236.213 312.012 235.928 311.841C235.643 311.67 235.42 311.436 235.257 311.139C235.094 310.842 235.013 310.507 235.013 310.132C235.013 309.489 235.239 308.989 235.69 308.631C236.146 308.273 236.746 308.094 237.491 308.094H238.65V308.924H237.527C237.047 308.924 236.671 309.028 236.398 309.235C236.126 309.443 235.989 309.729 235.989 310.096C235.989 310.429 236.089 310.7 236.288 310.907C236.488 311.115 236.746 311.219 237.063 311.219C237.32 311.219 237.556 311.152 237.771 311.017C237.987 310.879 238.158 310.692 238.284 310.456C238.414 310.216 238.479 309.941 238.479 309.632V308.887L238.455 308.533V307.374C238.455 307.032 238.341 306.761 238.113 306.562C237.885 306.362 237.601 306.263 237.259 306.263C236.99 306.263 236.709 306.32 236.417 306.434C236.124 306.543 235.879 306.69 235.684 306.873L235.293 305.97C235.57 305.762 235.898 305.601 236.276 305.488C236.655 305.37 237.011 305.311 237.344 305.311C237.967 305.311 238.469 305.49 238.852 305.848C239.238 306.202 239.432 306.678 239.432 307.276V310.352C239.432 310.56 239.464 310.722 239.529 310.84C239.594 310.958 239.688 311.052 239.81 311.121L239.92 311.182L239.529 312.098L239.383 312.024C239.139 311.902 238.945 311.738 238.803 311.53C238.665 311.323 238.589 311.133 238.577 310.962L238.76 311.158H238.394L238.711 310.926C238.549 311.28 238.311 311.565 237.997 311.78C237.684 311.992 237.32 312.098 236.905 312.098ZM243.216 312.098C242.667 312.098 242.245 311.921 241.952 311.567C241.663 311.213 241.519 310.755 241.519 310.193V303.443H242.544V310.096C242.544 310.425 242.614 310.684 242.752 310.871C242.894 311.054 243.069 311.146 243.277 311.146C243.35 311.146 243.425 311.131 243.503 311.103C243.58 311.074 243.651 311.04 243.716 310.999L244.095 311.902C243.993 311.943 243.869 311.986 243.722 312.031C243.576 312.075 243.407 312.098 243.216 312.098ZM240.506 306.36V305.408H243.936V306.36H240.506ZM247.403 312.098C246.866 312.098 246.396 311.955 245.993 311.67C245.594 311.386 245.283 310.985 245.059 310.468C244.839 309.951 244.729 309.343 244.729 308.643C244.729 307.984 244.829 307.404 245.029 306.904C245.232 306.403 245.521 306.012 245.895 305.732C246.27 305.451 246.715 305.311 247.232 305.311C247.716 305.311 248.137 305.437 248.495 305.689C248.858 305.941 249.138 306.295 249.338 306.751C249.537 307.207 249.637 307.74 249.637 308.35C249.637 308.497 249.631 308.635 249.618 308.765C249.61 308.891 249.6 309.009 249.588 309.119H245.511V308.265H248.636C248.636 307.667 248.512 307.184 248.263 306.818C248.015 306.448 247.671 306.263 247.232 306.263C246.91 306.263 246.638 306.364 246.414 306.568C246.19 306.771 246.019 307.054 245.901 307.416C245.787 307.778 245.73 308.2 245.73 308.68C245.73 309.18 245.798 309.616 245.932 309.986C246.066 310.352 246.259 310.637 246.512 310.84C246.764 311.044 247.065 311.146 247.415 311.146C247.643 311.146 247.887 311.097 248.147 310.999C248.408 310.901 248.644 310.759 248.855 310.572L249.234 311.5C248.978 311.687 248.687 311.833 248.361 311.939C248.04 312.045 247.72 312.098 247.403 312.098ZM252.64 312.098C252.261 312.098 251.877 312.01 251.486 311.835C251.1 311.656 250.768 311.414 250.491 311.109L250.906 310.181C251.15 310.486 251.425 310.728 251.73 310.907C252.035 311.082 252.322 311.17 252.591 311.17C252.88 311.17 253.118 311.076 253.305 310.889C253.496 310.698 253.592 310.466 253.592 310.193C253.592 309.913 253.49 309.677 253.287 309.485C253.083 309.29 252.77 309.123 252.347 308.985C252.029 308.879 251.744 308.733 251.492 308.545C251.244 308.358 251.047 308.136 250.9 307.88C250.758 307.624 250.687 307.337 250.687 307.02C250.687 306.678 250.77 306.379 250.937 306.122C251.104 305.866 251.327 305.667 251.608 305.524C251.893 305.382 252.212 305.311 252.566 305.311C252.904 305.311 253.236 305.376 253.561 305.506C253.887 305.636 254.153 305.815 254.361 306.043L253.982 306.946C253.799 306.727 253.582 306.554 253.329 306.427C253.081 306.301 252.835 306.238 252.591 306.238C252.33 306.238 252.115 306.316 251.944 306.47C251.773 306.625 251.688 306.824 251.688 307.068C251.688 307.329 251.787 307.553 251.987 307.74C252.19 307.923 252.501 308.086 252.92 308.228C253.238 308.334 253.523 308.476 253.775 308.655C254.027 308.83 254.227 309.046 254.373 309.302C254.52 309.559 254.593 309.86 254.593 310.206C254.593 310.572 254.507 310.897 254.336 311.182C254.166 311.467 253.932 311.691 253.635 311.854C253.342 312.016 253.01 312.098 252.64 312.098Z" fill="white"/>
<path d="M89.3332 148.667C85.8498 148.667 82.8679 147.427 80.3873 144.946C77.9068 142.465 76.6665 139.483 76.6665 136V60.0002C76.6665 56.5168 77.9068 53.5349 80.3873 51.0543C82.8679 48.5738 85.8498 47.3335 89.3332 47.3335H190.667C194.15 47.3335 197.132 48.5738 199.612 51.0543C202.093 53.5349 203.333 56.5168 203.333 60.0002V136C203.333 139.483 202.093 142.465 199.612 144.946C197.132 147.427 194.15 148.667 190.667 148.667H89.3332ZM89.3332 136H190.667V72.6668H89.3332V136ZM111.5 129.667L102.633 120.8L118.942 104.333L102.475 87.8668L111.5 79.0002L136.833 104.333L111.5 129.667ZM140 129.667V117H178V129.667H140Z" fill="#202124"/>
<defs>
<radialGradient id="paint0_radial_2314_48" cx="0" cy="0" r="1" gradientUnits="userSpaceOnUse" gradientTransform="translate(112.865 365.045) rotate(78.858) scale(19.7185 19.7281)">
<stop stop-color="#1BA1E3"/>
<stop offset="0.0001" stop-color="#1BA1E3"/>
<stop offset="0.300221" stop-color="#5489D6"/>
<stop offset="0.545524" stop-color="#9B72CB"/>
<stop offset="0.825372" stop-color="#D96570"/>
<stop offset="1" stop-color="#F49C46"/>
</radialGradient>
<radialGradient id="paint1_radial_2314_48" cx="0" cy="0" r="1" gradientUnits="userSpaceOnUse" gradientTransform="translate(112.865 365.045) rotate(78.858) scale(19.7185 19.7281)">
<stop stop-color="#1BA1E3"/>
<stop offset="0.0001" stop-color="#1BA1E3"/>
<stop offset="0.300221" stop-color="#5489D6"/>
<stop offset="0.545524" stop-color="#9B72CB"/>
<stop offset="0.825372" stop-color="#D96570"/>
<stop offset="1" stop-color="#F49C46"/>
</radialGradient>
<clipPath id="clip0_2314_48">
<rect width="32" height="32" fill="white" transform="translate(156 351)"/>
</clipPath>
<clipPath id="clip1_2314_48">
<rect width="32" height="32" fill="white" transform="translate(156 351)"/>
</clipPath>
<clipPath id="clip2_2314_48">
<rect width="32" height="32" fill="white" transform="translate(93 351)"/>
</clipPath>
<clipPath id="clip3_2314_48">
<rect width="32" height="32" fill="white" transform="translate(30 351)"/>
</clipPath>
<clipPath id="clip4_2314_48">
<rect width="32" height="32" fill="white" transform="translate(93 228)"/>
</clipPath>
<clipPath id="clip5_2314_48">
<rect width="32" height="32" fill="white" transform="translate(30 228)"/>
</clipPath>
<clipPath id="clip6_2314_48">
<rect width="32" height="32" fill="white" transform="translate(156 228)"/>
</clipPath>
<clipPath id="clip7_2314_48">
<rect width="32" height="32" fill="white" transform="translate(219 228)"/>
</clipPath>
</defs>
</svg>
